<svg xmlns="http://www.w3.org/2000/svg" xmlns:xlink="http://www.w3.org/1999/xlink"><defs><path id="a" d="M1230 60h-3v-1h2v-9h-2v-1h3z"/><style>.cls-1,.cls-7{fill:#88e9c2}.cls-1{clip-rule:evenodd}.cls-2{fill:#6fbdbf}.cls-3{fill:#fff}.cls-4{fill:#3627a2}.cls-10,.cls-16,.cls-17,.cls-18,.cls-5,.cls-9{fill:none;stroke-linecap:round;stroke-linejoin:round}.cls-17,.cls-5{stroke:#d675ad}.cls-5{stroke-width:33.1px}.cls-6{fill:#406b9c}.cls-10,.cls-13,.cls-14,.cls-16,.cls-18,.cls-19,.cls-7{fill-rule:evenodd}.cls-8{clip-path:url(#clip-path)}.cls-9{stroke:#6fbdbf;stroke-width:4.02px}.cls-10,.cls-16{stroke:#efecf5}.cls-10{stroke-width:4.37px}.cls-11{fill:url(#Безымянный_градиент_35)}.cls-12{fill:#d675ad}.cls-13{fill:url(#Безымянный_градиент_35-2)}.cls-14{fill:url(#Безымянный_градиент_35-3)}.cls-15{fill:#1f1c1e}.cls-16{stroke-width:5.47px}.cls-17{stroke-width:8.48px}.cls-18{stroke:#b962b8;stroke-width:1.5px}.cls-19{fill:#2a0d50}</style><clipPath id="clip-path"><path class="cls-1" d="M197.82 361.08h213.24a5.64 5.64 0 0 1 5.64 5.64 112.22 112.22 0 0 0-58.45-98.54v-20H251.68v19.48a112.22 112.22 0 0 0-59.5 99.09 5.64 5.64 0 0 1 5.64-5.67z"/></clipPath><linearGradient id="&#x411;&#x435;&#x437;&#x44B;&#x43C;&#x44F;&#x43D;&#x43D;&#x44B;&#x439;_&#x433;&#x440;&#x430;&#x434;&#x438;&#x435;&#x43D;&#x442;_35" x1="305" y1="-50.62" x2="305" y2="144.63" gradientUnits="userSpaceOnUse"><stop offset="0" stop-color="#df6531"/><stop offset="1" stop-color="#db332d"/></linearGradient><linearGradient id="&#x411;&#x435;&#x437;&#x44B;&#x43C;&#x44F;&#x43D;&#x43D;&#x44B;&#x439;_&#x433;&#x440;&#x430;&#x434;&#x438;&#x435;&#x43D;&#x442;_35-2" x1="246.39" y1="-22.37" x2="246.39" y2="127.2" xlink:href="#&#x411;&#x435;&#x437;&#x44B;&#x43C;&#x44F;&#x43D;&#x43D;&#x44B;&#x439;_&#x433;&#x440;&#x430;&#x434;&#x438;&#x435;&#x43D;&#x442;_35"/><linearGradient id="&#x411;&#x435;&#x437;&#x44B;&#x43C;&#x44F;&#x43D;&#x43D;&#x44B;&#x439;_&#x433;&#x440;&#x430;&#x434;&#x438;&#x435;&#x43D;&#x442;_35-3" x1="363.66" y1="-22.37" x2="363.66" y2="127.2" xlink:href="#&#x411;&#x435;&#x437;&#x44B;&#x43C;&#x44F;&#x43D;&#x43D;&#x44B;&#x439;_&#x433;&#x440;&#x430;&#x434;&#x438;&#x435;&#x43D;&#x442;_35"/><style>.cls-1{isolation:isolate}.cls-2{fill:#210442}.cls-3{fill:url(#Безымянный_градиент_201)}.cls-4{fill:#42067b}.cls-10,.cls-11,.cls-12,.cls-15,.cls-21,.cls-27,.cls-28,.cls-30,.cls-31,.cls-32,.cls-33,.cls-4,.cls-9{fill-rule:evenodd}.cls-11,.cls-16,.cls-20,.cls-22,.cls-23,.cls-24,.cls-25,.cls-30,.cls-5{fill:none;stroke-linecap:round}.cls-5{stroke:#2e055e}.cls-11,.cls-16,.cls-20,.cls-22,.cls-23,.cls-25,.cls-30,.cls-5{stroke-linejoin:round}.cls-20,.cls-5{stroke-width:4.23px}.cls-10,.cls-6{fill:#55007c}.cls-21,.cls-7{fill:#ff398a}.cls-8{fill:url(#Безымянный_градиент_212)}.cls-26,.cls-9{fill:#e7d7e8}.cls-11,.cls-22,.cls-23,.cls-25{stroke:#ff398a}.cls-11,.cls-22{stroke-width:11.28px}.cls-12{fill:#8b0cc5}.cls-13{fill:url(#Безымянный_градиент_24)}.cls-14{fill:#37086d}.cls-15{fill:url(#Безымянный_градиент_169)}.cls-16,.cls-20{stroke:#330666}.cls-16,.cls-30{stroke-width:7.05px}.cls-17{fill:url(#Безымянный_градиент_169-2)}.cls-18{fill:url(#Безымянный_градиент_169-3)}.cls-19{fill:url(#Безымянный_градиент_169-4)}.cls-23{stroke-width:8.46px}.cls-24{stroke:#bf3294;stroke-miterlimit:10;stroke-width:2.82px}.cls-25{stroke-width:9.87px}.cls-27{fill:url(#Безымянный_градиент_169-5)}.cls-28{fill:url(#Безымянный_градиент_9)}.cls-29,.cls-31{fill:#ffda00}.cls-30{stroke:#e7d7e8}.cls-32,.cls-33{mix-blend-mode:exclusion}.cls-32{fill:url(#Безымянный_градиент_169-6)}.cls-33{fill:url(#Безымянный_градиент_169-7)}.cls-34{fill:#1a1138}</style><linearGradient id="&#x411;&#x435;&#x437;&#x44B;&#x43C;&#x44F;&#x43D;&#x43D;&#x44B;&#x439;_&#x433;&#x440;&#x430;&#x434;&#x438;&#x435;&#x43D;&#x442;_201" x1="288.75" y1="668.87" x2="288.75" y2="367.1" gradientTransform="rotate(-180 288.75 538.83)" gradientUnits="userSpaceOnUse"><stop offset="0" stop-color="#5c0093"/><stop offset="1" stop-color="#3d0061"/></linearGradient><linearGradient id="&#x411;&#x435;&#x437;&#x44B;&#x43C;&#x44F;&#x43D;&#x43D;&#x44B;&#x439;_&#x433;&#x440;&#x430;&#x434;&#x438;&#x435;&#x43D;&#x442;_212" x1="274.15" y1="256.73" x2="458.48" y2="256.73" gradientUnits="userSpaceOnUse"><stop offset="0" stop-color="#cabccc"/><stop offset="1" stop-color="#e7d7e8"/></linearGradient><linearGradient id="&#x411;&#x435;&#x437;&#x44B;&#x43C;&#x44F;&#x43D;&#x43D;&#x44B;&#x439;_&#x433;&#x440;&#x430;&#x434;&#x438;&#x435;&#x43D;&#x442;_24" x1="693.29" y1="371.52" x2="243.11" y2="371.52" gradientTransform="translate(-162.82 -61.76)" gradientUnits="userSpaceOnUse"><stop offset="0" stop-color="#5c0093"/><stop offset="1" stop-color="#43006b"/></linearGradient><linearGradient id="&#x411;&#x435;&#x437;&#x44B;&#x43C;&#x44F;&#x43D;&#x43D;&#x44B;&#x439;_&#x433;&#x440;&#x430;&#x434;&#x438;&#x435;&#x43D;&#x442;_169" x1="913.32" y1="230.17" x2="679.34" y2="469.78" gradientTransform="rotate(-21.05 233.461 778.85)" gradientUnits="userSpaceOnUse"><stop offset="0" stop-color="#b3d226"/><stop offset=".21" stop-color="#9acf43"/><stop offset=".56" stop-color="#73c96f"/><stop offset=".84" stop-color="#5bc68a"/><stop offset="1" stop-color="#52c594"/></linearGradient><linearGradient id="&#x411;&#x435;&#x437;&#x44B;&#x43C;&#x44F;&#x43D;&#x43D;&#x44B;&#x439;_&#x433;&#x440;&#x430;&#x434;&#x438;&#x435;&#x43D;&#x442;_169-2" x1="761.19" y1="297.15" x2="752.03" y2="363.4" gradientTransform="matrix(.99 -.11 .11 .99 -227.96 -74.09)" xlink:href="#&#x411;&#x435;&#x437;&#x44B;&#x43C;&#x44F;&#x43D;&#x43D;&#x44B;&#x439;_&#x433;&#x440;&#x430;&#x434;&#x438;&#x435;&#x43D;&#x442;_169"/><linearGradient id="&#x411;&#x435;&#x437;&#x44B;&#x43C;&#x44F;&#x43D;&#x43D;&#x44B;&#x439;_&#x433;&#x440;&#x430;&#x434;&#x438;&#x435;&#x43D;&#x442;_169-3" x1="791.02" y1="301.28" x2="781.86" y2="367.52" gradientTransform="rotate(-6.22 -867.244 2066.103)" xlink:href="#&#x411;&#x435;&#x437;&#x44B;&#x43C;&#x44F;&#x43D;&#x43D;&#x44B;&#x439;_&#x433;&#x440;&#x430;&#x434;&#x438;&#x435;&#x43D;&#x442;_169"/><linearGradient id="&#x411;&#x435;&#x437;&#x44B;&#x43C;&#x44F;&#x43D;&#x43D;&#x44B;&#x439;_&#x433;&#x440;&#x430;&#x434;&#x438;&#x435;&#x43D;&#x442;_169-4" x1="820.85" y1="305.4" x2="811.69" y2="371.65" gradientTransform="matrix(.99 -.11 .11 .99 -229.96 -89.52)" xlink:href="#&#x411;&#x435;&#x437;&#x44B;&#x43C;&#x44F;&#x43D;&#x43D;&#x44B;&#x439;_&#x433;&#x440;&#x430;&#x434;&#x438;&#x435;&#x43D;&#x442;_169"/><linearGradient id="&#x411;&#x435;&#x437;&#x44B;&#x43C;&#x44F;&#x43D;&#x43D;&#x44B;&#x439;_&#x433;&#x440;&#x430;&#x434;&#x438;&#x435;&#x43D;&#x442;_169-5" x1="272.67" y1="132.15" x2="272.67" y2="236.48" xlink:href="#&#x411;&#x435;&#x437;&#x44B;&#x43C;&#x44F;&#x43D;&#x43D;&#x44B;&#x439;_&#x433;&#x440;&#x430;&#x434;&#x438;&#x435;&#x43D;&#x442;_169"/><linearGradient id="&#x411;&#x435;&#x437;&#x44B;&#x43C;&#x44F;&#x43D;&#x43D;&#x44B;&#x439;_&#x433;&#x440;&#x430;&#x434;&#x438;&#x435;&#x43D;&#x442;_9" x1="272.67" y1="150.68" x2="272.67" y2="255.56" gradientUnits="userSpaceOnUse"><stop offset="0" stop-color="#bf3294"/><stop offset="1" stop-color="#ff398a"/></linearGradient><linearGradient id="&#x411;&#x435;&#x437;&#x44B;&#x43C;&#x44F;&#x43D;&#x43D;&#x44B;&#x439;_&#x433;&#x440;&#x430;&#x434;&#x438;&#x435;&#x43D;&#x442;_169-6" x1="282.32" y1="65.05" x2="282.32" y2="113.3" xlink:href="#&#x411;&#x435;&#x437;&#x44B;&#x43C;&#x44F;&#x43D;&#x43D;&#x44B;&#x439;_&#x433;&#x440;&#x430;&#x434;&#x438;&#x435;&#x43D;&#x442;_169"/><linearGradient id="&#x411;&#x435;&#x437;&#x44B;&#x43C;&#x44F;&#x43D;&#x43D;&#x44B;&#x439;_&#x433;&#x440;&#x430;&#x434;&#x438;&#x435;&#x43D;&#x442;_169-7" x1="319.75" y1="65.05" x2="319.75" y2="113.3" xlink:href="#&#x411;&#x435;&#x437;&#x44B;&#x43C;&#x44F;&#x43D;&#x43D;&#x44B;&#x439;_&#x433;&#x440;&#x430;&#x434;&#x438;&#x435;&#x43D;&#x442;_169"/><style>.cls-1{fill:url(#GradientFill_4)}.cls-2{fill:#1a1138}.cls-3{fill:#400c7f}.cls-10,.cls-11,.cls-13,.cls-16,.cls-20,.cls-27,.cls-3,.cls-4,.cls-7,.cls-9{fill-rule:evenodd}.cls-13,.cls-14,.cls-23,.cls-25,.cls-27,.cls-4,.cls-6,.cls-7{fill:none;stroke-linecap:round;stroke-linejoin:round}.cls-4{stroke:#1a1138}.cls-27,.cls-4,.cls-6,.cls-7{stroke-width:4.34px}.cls-5{fill:url(#Безымянный_градиент_5)}.cls-14,.cls-6,.cls-7{stroke:#df6531}.cls-11,.cls-8{fill:#8e3935}.cls-9{fill:#3d165b}.cls-10{fill:url(#GradientFill_4-2)}.cls-12{fill:#3f0f0f}.cls-13{stroke:#b25546;stroke-width:2.36px}.cls-14{stroke-width:2.89px}.cls-15{fill:url(#Безымянный_градиент_33)}.cls-16{fill:#df6531}.cls-17{fill:url(#Безымянный_градиент_73)}.cls-18{fill:url(#Безымянный_градиент_44)}.cls-19{fill:url(#Безымянный_градиент_44-2)}.cls-20{fill:url(#Безымянный_градиент_44-3)}.cls-21{fill:#6fbdbf}.cls-22{fill:url(#Безымянный_градиент_33-2)}.cls-23{stroke:#8e3935;stroke-width:13.32px}.cls-24{fill:#d0a9fb}.cls-25{stroke:#7f2f2f;stroke-width:2.17px}.cls-26{fill:#54358e}.cls-27{stroke:#442672}.cls-28{fill:#e0e0e0}</style><linearGradient id="GradientFill_4" x1="124.03" y1="483.52" x2="515.52" y2="483.52" gradientUnits="userSpaceOnUse"><stop offset="0" stop-color="#f0ca30"/><stop offset="1" stop-color="#dd9623"/></linearGradient><linearGradient id="&#x411;&#x435;&#x437;&#x44B;&#x43C;&#x44F;&#x43D;&#x43D;&#x44B;&#x439;_&#x433;&#x440;&#x430;&#x434;&#x438;&#x435;&#x43D;&#x442;_5" x1="281.2" y1="490.6" x2="281.2" y2="585.51" gradientUnits="userSpaceOnUse"><stop offset="0" stop-color="#df6531"/><stop offset="1" stop-color="#db332d"/></linearGradient><linearGradient id="GradientFill_4-2" x1="233.02" y1="57.89" x2="401.53" y2="57.89" xlink:href="#GradientFill_4"/><linearGradient id="&#x411;&#x435;&#x437;&#x44B;&#x43C;&#x44F;&#x43D;&#x43D;&#x44B;&#x439;_&#x433;&#x440;&#x430;&#x434;&#x438;&#x435;&#x43D;&#x442;_33" x1="288" y1="36.85" x2="310.42" y2="36.85" gradientUnits="userSpaceOnUse"><stop offset="0" stop-color="#42067b"/><stop offset=".59" stop-color="#56067b"/><stop offset="1" stop-color="#5e067b"/></linearGradient><linearGradient id="&#x411;&#x435;&#x437;&#x44B;&#x43C;&#x44F;&#x43D;&#x43D;&#x44B;&#x439;_&#x433;&#x440;&#x430;&#x434;&#x438;&#x435;&#x43D;&#x442;_73" x1="103.78" y1="276.38" x2="319.31" y2="276.38" gradientUnits="userSpaceOnUse"><stop offset="0" stop-color="#d0a9fb"/><stop offset=".15" stop-color="#caa7f8"/><stop offset=".33" stop-color="#baa0f1"/><stop offset=".54" stop-color="#a096e5"/><stop offset=".77" stop-color="#7b87d4"/><stop offset="1" stop-color="#4e75bf"/></linearGradient><linearGradient id="&#x411;&#x435;&#x437;&#x44B;&#x43C;&#x44F;&#x43D;&#x43D;&#x44B;&#x439;_&#x433;&#x440;&#x430;&#x434;&#x438;&#x435;&#x43D;&#x442;_44" x1="79.59" y1="148.53" x2="309.9" y2="148.53" gradientUnits="userSpaceOnUse"><stop offset="0" stop-color="#6fbdbf"/><stop offset="1" stop-color="#4e75bf"/></linearGradient><linearGradient id="&#x411;&#x435;&#x437;&#x44B;&#x43C;&#x44F;&#x43D;&#x43D;&#x44B;&#x439;_&#x433;&#x440;&#x430;&#x434;&#x438;&#x435;&#x43D;&#x442;_44-2" x1="76.64" y1="148.79" x2="92.82" y2="148.79" xlink:href="#&#x411;&#x435;&#x437;&#x44B;&#x43C;&#x44F;&#x43D;&#x43D;&#x44B;&#x439;_&#x433;&#x440;&#x430;&#x434;&#x438;&#x435;&#x43D;&#x442;_44"/><linearGradient id="&#x411;&#x435;&#x437;&#x44B;&#x43C;&#x44F;&#x43D;&#x43D;&#x44B;&#x439;_&#x433;&#x440;&#x430;&#x434;&#x438;&#x435;&#x43D;&#x442;_44-3" x1="32.66" y1="148.49" x2="84.73" y2="148.49" xlink:href="#&#x411;&#x435;&#x437;&#x44B;&#x43C;&#x44F;&#x43D;&#x43D;&#x44B;&#x439;_&#x433;&#x440;&#x430;&#x434;&#x438;&#x435;&#x43D;&#x442;_44"/><linearGradient id="&#x411;&#x435;&#x437;&#x44B;&#x43C;&#x44F;&#x43D;&#x43D;&#x44B;&#x439;_&#x433;&#x440;&#x430;&#x434;&#x438;&#x435;&#x43D;&#x442;_33-2" x1="55.8" y1="148.53" x2="-6.22" y2="148.53" xlink:href="#&#x411;&#x435;&#x437;&#x44B;&#x43C;&#x44F;&#x43D;&#x43D;&#x44B;&#x439;_&#x433;&#x440;&#x430;&#x434;&#x438;&#x435;&#x43D;&#x442;_33"/></defs><symbol id="icon-arrow" viewBox="0 0 24 9"><path d="M23.8 4l-4.1-4h-1.4l4.1 4H0v1h22.4l-4.1 4h1.4l4.1-4h.2V4z"/></symbol><symbol id="icon-close-menu" viewBox="0 0 21.6 21.6"><style>.st0{display:none}.st1{display:inline}</style><g id="Layer_1" class="st0"><path d="M21.3.7l-.7-.7-9.9 9.9v-.1l-.1.1L.7 0 0 .7l10 10-10 9.9.7.7 10-10 9.9 9.9.7-.7-9.9-9.9z" class="st1"/></g><path d="M21.6.7l-.7-.7-10.1 10.1L.7 0 0 .7l10.1 10.1L0 20.9l.7.7 10.1-10.1 10.1 10.1.7-.7-10.1-10.1z" id="Layer_2"/></symbol><symbol id="icon-doc" viewBox="0 0 68 83"><style>.st1{fill:#ef0957}</style><path d="M17 43h1v-4h-1v4zm11-4v4h1v-4h-1z"/><path d="M39 43h1v-4h-1v4zm11-4v4h1v-4h-1z"/><path d="M54 4H4v75h60V14L54 4zm0 1.4l8.6 8.6H54V5.4zM63 78H5V5h48v10h10v63z"/><g><path class="st1" d="M5 78v-4H4v4H0v1h4v4h1v-4h4v-1z"/><path class="st1" d="M64 78v-4h-1v4h-4v1h4v4h1v-4h4v-1z"/><path class="st1" d="M5 4V0H4v4H0v1h4v4h1V5h4V4z"/></g></symbol><symbol id="icon-download" viewBox="0 0 12 9"><path d="M11 6v2H1V6H0v3h12V6h-1zM9 0H3l3 5 3-5z"/></symbol><symbol id="icon-dropdown" viewBox="0 0 12 9"><path d="M9 0H3l3 5 3-5z"/></symbol><symbol id="icon-frame" viewBox="0 0 3 11"><use xlink:href="#a" transform="translate(-1227 -49)"/></symbol><symbol id="icon-girl" viewBox="0 0 609.77 697.02"><title>Asset 1</title><g id="Layer_2" data-name="Layer 2"><g id="arm1"><path class="cls-2" d="M274.41 157.19H68.82v33.1h205.59a16.55 16.55 0 1 0 0-33.1z"/><circle class="cls-3" cx="82.26" cy="162.44" r="5.71"/><circle class="cls-3" cx="82.26" cy="173.74" r="5.71"/><circle class="cls-3" cx="82.26" cy="185.04" r="5.71"/><path class="cls-3" d="M68.56 156.73h13.7v34.02h-13.7z"/></g><g id="arm2"><path class="cls-2" d="M335.36 157.19h205.59v33.1H335.36a16.55 16.55 0 1 1 0-33.1z"/><circle class="cls-3" cx="527.52" cy="162.44" r="5.71"/><circle class="cls-3" cx="527.52" cy="173.74" r="5.71"/><circle class="cls-3" cx="527.52" cy="185.04" r="5.71"/><path class="cls-3" transform="rotate(-180 534.365 173.74)" d="M527.52 156.73h13.7v34.02h-13.7z"/></g><rect class="cls-4" x="192.18" y="361.08" width="224.51" height="11.27" rx="5.64" ry="5.64" id="body"/><g id="l_leg"><path class="cls-5" d="M282.56 286.71v324.22"/><path class="cls-3" d="M265.53 521.41h34.19v126.92h-34.19z"/><circle class="cls-3" cx="271.13" cy="521.41" r="5.72"/><circle class="cls-3" cx="282.56" cy="521.41" r="5.72"/><circle class="cls-3" cx="294" cy="521.41" r="5.72"/></g><g id="r_leg"><path class="cls-5" d="M328.32 286.71v324.22"/><path class="cls-3" transform="rotate(-180 328.26 584.875)" d="M311.17 521.41h34.19v126.92h-34.19z"/><circle class="cls-3" cx="339.75" cy="521.41" r="5.72"/><circle class="cls-3" cx="328.32" cy="521.41" r="5.72"/><circle class="cls-3" cx="316.88" cy="521.41" r="5.72"/></g><g id="body-2" data-name="body"><circle class="cls-2" cx="305.03" cy="207.27" r="59.85"/><circle class="cls-6" cx="305.03" cy="216.37" r="3.48"/><circle class="cls-6" cx="305.03" cy="192.49" r="3.48"/><path class="cls-7" d="M197.82 361.08h213.24a5.64 5.64 0 0 1 5.64 5.64 112.22 112.22 0 0 0-58.45-98.54v-20H251.68v19.48a112.22 112.22 0 0 0-59.5 99.09 5.64 5.64 0 0 1 5.64-5.67z"/><g class="cls-8"><path class="cls-9" d="M225.64 212.9v189.81"/><path class="cls-9" d="M265.37 212.9v189.81"/><path class="cls-9" d="M305.11 212.9v189.81"/><path class="cls-9" d="M344.85 212.9v189.81"/><path class="cls-9" d="M384.59 212.9v189.81"/><path class="cls-9" d="M448.44 261.37H161.79"/><path class="cls-9" d="M448.44 301.1H161.79"/><path class="cls-9" d="M448.44 340.84H161.79"/><path class="cls-9" d="M448.44 380.58H161.79"/></g><path class="cls-10" d="M279.55 154.36c-.35 18.17 18.46 20 25.48 8.52"/><path class="cls-10" d="M330.51 154.36c.35 18.17-18.46 20-25.48 8.52"/></g><g id="head"><path class="cls-11" d="M219.23 77.52h171.54v60.74H219.23z"/><circle class="cls-12" cx="304.85" cy="93.05" r="54.37"/><path class="cls-13" d="M281.74.09a25.13 25.13 0 0 0-22.59 21.55q-.14 1-.19 2.07a10.35 10.35 0 0 1-9.68 9.79h-.29a25.57 25.57 0 0 0-23.16 22.72 26 26 0 0 0-.13 2.76 12.32 12.32 0 0 1-11.08 12h-.36a33.75 33.75 0 0 0 7.36 67.07c16.07-1.3 28.88-30.2 28.88-30.2V81.59c23.06 0 57.11-12.81 57.11-53.17 1.54-15.7-10.2-29.67-25.87-28.33z"/><path class="cls-14" d="M328.32.09a25.13 25.13 0 0 1 22.59 21.55q.14 1 .19 2.07a10.35 10.35 0 0 0 9.68 9.79h.29a25.57 25.57 0 0 1 23.16 22.72 26 26 0 0 1 .13 2.76 12.32 12.32 0 0 0 11.08 12h.36a33.75 33.75 0 0 1-7.36 67.07c-16.07-1.3-28.43-30.27-28.43-30.27l-.47-26.3c-23.06 0-57.08-12.81-57.08-53.17-1.55-15.59 10.19-29.56 25.86-28.22z"/><circle class="cls-15" cx="290.51" cy="88.11" r="3.42"/><circle class="cls-15" cx="319.2" cy="88.11" r="3.42"/><path class="cls-16" d="M291 110.67a14.86 14.86 0 0 0 12.41 6.68"/><circle class="cls-12" cx="250.51" cy="91.53" r="9.94"/><circle class="cls-12" cx="359.23" cy="91.53" r="9.94"/></g><g id="hand2"><path class="cls-12" d="M552.86 157.19h23.7a6.38 6.38 0 0 1 6.38 6.38v23.51h-30.08v-29.9z" transform="rotate(-180 567.9 172.14)"/><rect class="cls-12" x="574.95" y="179.61" width="29.6" height="7.47" rx="3.74" ry="3.74" transform="rotate(-180 589.75 183.35)"/><rect class="cls-12" x="576.08" y="172.14" width="33.69" height="7.47" rx="3.74" ry="3.74" transform="rotate(-180 592.93 175.875)"/><rect class="cls-12" x="576.08" y="164.67" width="33.69" height="7.47" rx="3.74" ry="3.74" transform="rotate(-180 592.93 168.4)"/><rect class="cls-12" x="576.08" y="157.19" width="29.6" height="7.47" rx="3.74" ry="3.74" transform="rotate(-180 590.88 160.93)"/><path class="cls-12" transform="rotate(-180 552.68 172.14)" d="M540.95 157.19h23.46v29.9h-23.46z"/><path class="cls-17" d="M556.94 160.93l21.93-11.49"/><path class="cls-18" d="M571.25 160.93a7.93 7.93 0 0 1-7.93 7.93"/></g><g id="hand1"><path class="cls-12" d="M26.83 157.19h30.08v23.51a6.38 6.38 0 0 1-6.38 6.38h-23.7v-29.9.01z"/><rect class="cls-12" x="5.22" y="179.61" width="29.6" height="7.47" rx="3.74" ry="3.74"/><rect class="cls-12" y="172.14" width="33.69" height="7.47" rx="3.74" ry="3.74"/><rect class="cls-12" y="164.67" width="33.69" height="7.47" rx="3.74" ry="3.74"/><rect class="cls-12" x="4.09" y="157.19" width="29.6" height="7.47" rx="3.74" ry="3.74"/><path class="cls-12" d="M45.36 157.19h23.46v29.9H45.36z"/><path class="cls-17" d="M52.84 160.93l-21.93-11.49"/><path class="cls-18" d="M38.53 160.93a7.93 7.93 0 0 0 7.93 7.93"/></g><path class="cls-19" d="M252.06 659.79h-15A23.31 23.31 0 0 0 213.83 683v14h38.59a23.32 23.32 0 0 0 23.2-21.81V697h27.94v-48.67h-41v.9a10.58 10.58 0 0 1-10.5 10.56z" id="l_foot"/><path class="cls-19" d="M358.83 659.79h15A23.31 23.31 0 0 1 397 683v14h-38.54a23.32 23.32 0 0 1-23.2-21.81V697h-27.99v-48.67h41v.9a10.58 10.58 0 0 0 10.56 10.56z" id="r_foot"/></g></symbol><symbol id="icon-linkedin" viewBox="0 0 24 24"><path d="M19 0H0v24h24V0h-5zM8 19H5V8h3v11zM6.5 6.7c-1 0-1.8-.8-1.8-1.8s.8-1.8 1.8-1.8S8.2 4 8.2 5s-.7 1.7-1.7 1.7zM20 19h-3v-5.6c0-3.4-4-3.1-4 0V19h-3V8h3v1.8c1.4-2.6 7-2.8 7 2.5V19z"/></symbol><symbol id="icon-logo" viewBox="0 0 68.88 13.25"><title>Asset 2</title><g data-name="Layer 2"><g data-name="Layer 1"><path class="logo-svg" d="M29.17 5.99V4.13l-.12-.12h-5.87L25.01.17 24.9 0h-.63l-.1.07-6.2 13.01.11.17h.62l.11-.07 3.37-7.07h1.73v4.17l.11.12h2.52l.12-.12V6.11h2.39l.12-.12z"/><path class="logo-svg" d="M40.38 8.24V4.13l-.11-.12h-2.53l-.11.12v6.15l.11.12h6.17l.11-.12V8.36l-.11-.12h-3.53z"/><path class="logo-svg" d="M47.43 8.57v-.51h3.66l.12-.12v-1.5l-.12-.12h-3.66v-.5h3.78l.12-.12V4.13l-.12-.12h-6.43l-.12.12v6.15l.12.12h6.49l.12-.12V8.69l-.12-.12h-3.84z"/><path class="logo-svg" d="M57.86 4.01l-.11.12v2.86l-2.96-2.95-.09-.03h-2.56l-.12.12v6.15l.12.12h2.46l.12-.12V7.26l3.12 3.1.08.04h2.41l.12-.12V4.13l-.12-.12h-2.47z"/><path class="logo-svg" d="M68.76 4.01h-7.54l-.12.12v1.86l.12.12h2.39v4.17l.12.12h2.52l.11-.12V6.11h2.4l.12-.12V4.13l-.12-.12z"/><path class="logo-svg" d="M17.82 6.11h2.4l.12-.12V4.13l-.12-.12h-7.55l-.12.12v1.86l.12.12h2.4v4.17l.12.12h2.51l.12-.12V6.11z"/><path class="logo-svg" d="M9.31 4.01l-.11.12v6.15l.11.12h2.52l.12-.12V4.13l-.12-.12H9.31z"/><path class="logo-svg" d="M37 9.31l-2.53-5.24-.11-.07H31.1l-.1.08-2.49 5.23v1l.12.12h2.07l.11-.07.39-.85h2.95l.39.85.11.07h2.23l.12-.12v-1zM31.91 7.7L32.6 6h.14l.7 1.69z"/><path class="logo-svg" d="M7.23 7a4.5 4.5 0 0 0 1.2-.73V4.91A3.79 3.79 0 0 0 6.09 4h-6L0 4.13v6.15l.12.12h6.32a4.85 4.85 0 0 0 2.12-1V7.64A3.94 3.94 0 0 0 7.23 7zM5.49 8.39a1.32 1.32 0 0 1-.49.18H2.76V8H5a1.29 1.29 0 0 1 .46.16zm.05-2.17a1 1 0 0 1-.54.13H2.76v-.58H5a1 1 0 0 1 .51.13z"/></g></g></symbol><symbol id="icon-Maincharacter" viewBox="0 0 660.36 823.26"><title>Maincharackter</title><g class="cls-1"><g id="Layer_2" data-name="Layer 2"><g id="r_leg"><path class="cls-2" transform="rotate(-180 309.42 759.66)" d="M305.93 754.9h6.98v9.53h-6.98z"/><path class="cls-3" d="M259.83 318h57.85v412.74a28.92 28.92 0 0 1-28.92 28.92 28.92 28.92 0 0 1-28.92-28.92V318z" transform="rotate(180 288.75 538.83)"/><path class="cls-2" transform="rotate(-180 309.42 759.66)" d="M305.93 754.9h6.98v9.53h-6.98z"/><circle class="cls-2" cx="312.91" cy="759.66" r="4.76"/></g><g id="r_foot"><path class="cls-4" d="M307.49 754.9v5.28a15.41 15.41 0 0 0 15.41 15.41h15.39A47.67 47.67 0 0 1 386 823.26h-84.51v-8.86a6 6 0 0 0-6-6 6 6 0 0 0-6 6v8.86h-29.66V754.9z"/><path class="cls-5" d="M373.05 810.79h-63.63"/><path class="cls-5" d="M282.91 810.79h-17.89"/></g><g id="l_leg"><path class="cls-2" d="M200.35 754.9h6.98v9.53h-6.98z"/><path class="cls-6" d="M224.51 318a28.92 28.92 0 0 1 28.92 28.92v412.74h-57.84V346.92A28.92 28.92 0 0 1 224.51 318z"/><path class="cls-2" d="M200.35 754.9h6.98v9.53h-6.98z"/><circle class="cls-2" cx="200.35" cy="759.66" r="4.76"/></g><g id="l_foot"><path class="cls-4" d="M205.78 754.9v5.28a15.41 15.41 0 0 1-15.41 15.41H175a47.67 47.67 0 0 0-47.67 47.67h84.47v-8.86a6 6 0 0 1 6-6 6 6 0 0 1 6 6v8.86h29.68V754.9z"/><path class="cls-5" d="M140.21 810.79h63.63"/><path class="cls-5" d="M230.35 810.79h17.89"/></g><g id="r_arm"><path class="cls-7" transform="rotate(-21.92 449.848 286.975)" d="M419.25 265.57h61.25v42.84h-61.25z"/><path class="cls-8" d="M439.74 267.41l-43 17L321.21 182a26.08 26.08 0 1 0-42 31l87.52 118.5a26.07 26.07 0 0 0 30.57 8.77l61.19-24.18z"/></g><g id="body"><path class="cls-9" d="M353 332.5v-98.91a81 81 0 0 0-81-81h-1.57a81 81 0 0 0-81 81v98.91z"/><path class="cls-10" d="M189.52 332.5a81 81 0 0 0 81 80.37h1.57a81 81 0 0 0 81-80.37z"/></g><g id="guitar"><path class="cls-11" d="M501.33 275.77s5.78-17.08 17.07-26.46"/><path class="cls-12" d="M260.54 377.13a15.89 15.89 0 1 1-19.66-22.44l40-15.4a63.94 63.94 0 0 0-5.19-17.64 65.11 65.11 0 0 0-95.56-26.74 36.78 36.78 0 0 1-35.46 3.28 102.77 102.77 0 0 0-82.36-.38c-49.15 21.1-74.14 77.39-56.84 128a103.11 103.11 0 0 0 191.84 8.61 35.63 35.63 0 0 1 27.68-21 65.12 65.12 0 0 0 48.46-33z"/><path class="cls-13" transform="rotate(-21.05 318.212 309.801)" d="M88.49 295.59h459.33v28.35H88.49z"/><rect class="cls-14" x="97.1" y="369.33" width="13.43" height="45.88" rx="6.71" ry="6.71" transform="rotate(-21.05 103.843 392.335)"/><path class="cls-15" d="M634.54 164.46l-85.75 22.26a18.14 18.14 0 0 0-11.39 8.9l-10 18.4 10.18 26.45s17.41-6.7 30.51 13c37-14.25 39.24-81.92 76.22-48.26a20.94 20.94 0 1 0-9.75-40.72z"/><path class="cls-16" d="M560.24 170.72l3.88 14.65"/><rect class="cls-17" x="550.79" y="163.87" width="18.5" height="12.16" rx="3.79" ry="3.79" transform="rotate(-15 551.2 168.168)"/><path class="cls-16" d="M589.36 163l3.88 14.65"/><rect class="cls-18" x="579.91" y="156.16" width="18.5" height="12.16" rx="3.79" ry="3.79" transform="rotate(-14.84 589.016 162.216)"/><path class="cls-16" d="M618.49 155.29l3.88 14.65"/><rect class="cls-19" x="609.03" y="148.44" width="18.5" height="12.16" rx="3.79" ry="3.79" transform="rotate(-14.84 618.173 154.495)"/><path class="cls-20" d="M108.4 385.49l422.41-162.6"/><path class="cls-20" d="M111.69 394.04l422.41-162.6"/></g><g id="r_hand"><path class="cls-21" d="M504.31 257.54c-8.57-5.07-53.5 4.9-42.44 29.58 4.9 10.93 23.81 8.16 23.81 8.16 28.81-11.14 24.32-22.45 18.63-37.74z"/><path class="cls-7" d="M500.8 270a5.64 5.64 0 0 1-5.3-3.71l-7.13-19.53-16.37-4.81a5.64 5.64 0 1 1 3.19-10.82l19.15 5.64a5.64 5.64 0 0 1 3.7 3.47l8.1 22.2a5.64 5.64 0 0 1-5.3 7.57z"/><path class="cls-22" d="M489.67 264.08l-15.27-43.93"/><path class="cls-22" d="M481.24 272.12l-15.27-43.93"/><path class="cls-23" d="M476.58 270.36l-23.26-12.57"/><path class="cls-24" d="M472.91 231.44l9.97 28.5"/><path class="cls-24" d="M482.88 227.86l9.97 28.5"/></g><g id="l_hand"><path class="cls-7" d="M121.06 306.07h40.33v37.23h-40.33z"/><path class="cls-7" d="M168.8 368h-7.16a11.52 11.52 0 0 1-11.51-11.51v-13.18a5.64 5.64 0 1 1 11.28 0v13.15a.24.24 0 0 0 .23.24h7.16a5.64 5.64 0 0 1 0 11.28z"/><path class="cls-22" d="M145.55 337.61v46.47"/><path class="cls-22" d="M135.21 334.84v46.46"/><path class="cls-25" d="M126.94 335.28l-6.99 35.59"/><path class="cls-24" d="M151.19 344.31v12.07"/><path class="cls-24" d="M140.38 344.31v35.59"/><path class="cls-22" d="M156.12 318l14.29 23.13"/></g><path class="cls-26" d="M240.73 159.9H135.31a26.08 26.08 0 0 0-26.07 26.1v120.1h52.15v-94h79.34a26.08 26.08 0 0 0 0-52.15z" id="l_arm"/><g id="neck"><path class="cls-27" d="M286.68 142.57h-28A16.39 16.39 0 0 0 242.29 159v72.48l30.39-17.33 30.39 17.33V159a16.39 16.39 0 0 0-16.39-16.43z"/><path class="cls-28" d="M286.09 150.68h-26.83a1.28 1.28 0 0 0-1.27 1.45l13.41 102.31a1.28 1.28 0 0 0 2.54 0l13.42-102.31a1.28 1.28 0 0 0-1.27-1.45z"/></g><g id="head"><path class="cls-7" d="M271.23 33.9h44.38v82.9a41.52 41.52 0 0 1-41.52 41.52 41.52 41.52 0 0 1-41.52-41.52V72.57a38.66 38.66 0 0 1 38.66-38.67z"/><path class="cls-29" d="M232.57 44.18h14.58v45.66h-14.58z"/><ellipse class="cls-29" cx="247.7" cy="67.01" rx="13.09" ry="22.83"/><circle class="cls-7" cx="232.57" cy="89.84" r="9.28"/><path class="cls-30" d="M269.52 104.1a18.69 18.69 0 0 0 18.69 18.69"/><path class="cls-29" d="M257.32 31.48h68.06V53.1h-68.06z"/><circle class="cls-29" cx="239.86" cy="44.18" r="7.29"/><circle class="cls-29" cx="325.38" cy="26.55" r="26.55"/><circle class="cls-29" cx="290.1" cy="31.8" r="21.3"/><circle class="cls-29" cx="260.66" cy="38.45" r="14.64"/><path class="cls-31" d="M254.78 112.62h-12.94V89.83h6.37l6.57 22.79z"/></g><g id="glass"><path class="cls-32" d="M288.08 96.52h-11.51a8.11 8.11 0 0 1-8-6.93l-3.62-24.65h34.78l-3.63 24.65a8.11 8.11 0 0 1-8.02 6.93z"/><path class="cls-33" d="M325.5 96.52H314a8.11 8.11 0 0 1-8-6.93l-3.62-24.65h34.78l-3.62 24.65a8.11 8.11 0 0 1-8.04 6.93z"/><path class="cls-7" d="M300.59 92.71h19a4.23 4.23 0 0 1 4.23 4.23 4.23 4.23 0 0 1-4.23 4.23h-19v-8.46z"/><rect class="cls-34" x="222.25" y="61.64" width="116.64" height="5.51" rx="2.75" ry="2.75"/></g><g id="eye"><circle class="cls-34" cx="278.35" cy="81.36" r="2.85"/><circle class="cls-34" cx="310.4" cy="81.36" r="2.85"/></g></g></g></symbol><symbol id="icon-man" viewBox="0 0 515.52 551.6"><title>Asset 2</title><g id="Layer_2" data-name="Layer 2"><g id="legs"><rect class="cls-1" x="124.03" y="415.44" width="391.49" height="136.16" rx="68.08" ry="68.08"/><rect class="cls-2" x="271.56" y="483.52" width="19.29" height="68.08" rx="9.64" ry="9.64"/><path class="cls-3" d="M248.89 501.2a32.22 32.22 0 0 0-32.22-32.2h-16.95v82.6h91.12v-50.4z"/><path class="cls-4" d="M248.89 501.2v1.45a33.26 33.26 0 0 1-33.26 33.26"/><path class="cls-5" d="M271.56 501.2h19.29v50.4h-19.29z"/><path class="cls-6" d="M293.88 481.28h155.7"/><path class="cls-7" d="M455.39 473.12a8.15 8.15 0 0 1 0 16.31"/></g><g id="head"><rect class="cls-8" x="272.44" y="49.81" width="89.68" height="149.15" rx="44.84" ry="44.84"/><path class="cls-9" d="M362.11 116.67v-22a44.61 44.61 0 0 0-5.93-22.27h-1.37a22.15 22.15 0 0 0 0 44.29z"/><path class="cls-10" d="M364.89 21.24h-95.23a36.64 36.64 0 1 0 0 73.28h2.78A44.75 44.75 0 0 1 288.87 60l73.24 34.57h2.78a36.64 36.64 0 1 0 0-73.28z"/><path class="cls-11" d="M276.65 75.67l-26.39 52.13h25.07c1.08-.01 1.32-52.13 1.32-52.13z"/><circle class="cls-12" cx="281.62" cy="99.21" r="4.01"/><circle class="cls-12" cx="305.49" cy="99.21" r="4.01"/><circle class="cls-12" cx="288.53" cy="148.53" r="6.87"/><circle class="cls-8" cx="362.11" cy="114.29" r="11.07"/><path class="cls-13" d="M325.77 133a17 17 0 0 0 0 34"/><path class="cls-14" d="M362.11 94.53L255.05 44.87"/><circle class="cls-15" cx="299.21" cy="36.85" r="11.21"/><path class="cls-14" d="M299.21 65.35l48.68-20.48"/><path class="cls-16" d="M304.24 5a5 5 0 0 0-10.06 0c0 2.78 5 13 5 13s5.06-10.19 5.06-13z"/><path class="cls-16" d="M314.72 13.54a5 5 0 1 0-7.12-7.12c-2 2-5.65 12.76-5.65 12.76s10.81-3.67 12.77-5.64z"/><path class="cls-16" d="M290.82 6.43a5 5 0 0 0-7.12 7.12c2 2 12.76 5.65 12.76 5.65s-3.68-10.81-5.64-12.77z"/></g><g id="l_arm"><path class="cls-17" d="M316.28 225.07a29.65 29.65 0 0 0-39.67-13.58l-113.53 55.62v-53h-59.3v100.55a29.65 29.65 0 0 0 42.7 26.63l156.22-76.55a29.65 29.65 0 0 0 13.58-39.67z"/><path class="cls-18" d="M288.53 152.86H29a4.34 4.34 0 0 1 0-8.68h259.53a4.34 4.34 0 1 1 0 8.68z"/><circle class="cls-19" cx="84.73" cy="148.79" r="8.09"/><path class="cls-20" d="M81.55 143.6l-41.38-18.28a5.34 5.34 0 0 0-7.5 4.89v36.55a5.34 5.34 0 0 0 7.5 4.89l41.38-18.28a5.34 5.34 0 0 0 3.18-4.89 5.34 5.34 0 0 0-3.18-4.88z"/><circle class="cls-21" cx="29.05" cy="148.53" r="29.05"/><circle class="cls-22" cx="29.05" cy="148.53" r="20.97"/></g><g id="l_hand"><path class="cls-11" d="M162.91 214.46v-36.83l-46.97.22v36.61h46.97z"/><path class="cls-11" d="M162.58 144.11l.38 44.08-46.98.22-.37-43.83 46.97-.47z"/><path class="cls-23" d="M157.09 189.41l17.9-34.54"/><path class="cls-13" d="M157 166.92a12.47 12.47 0 0 0-12.41 12.52"/><rect class="cls-8" x="135.16" y="138.88" width="19.84" height="11.82" rx="5.89" ry="5.89" transform="rotate(90 145.085 144.125)"/><rect class="cls-8" x="123.3" y="138.88" width="19.84" height="11.82" rx="5.89" ry="5.89" transform="rotate(89.74 133.225 144.78)"/><path class="cls-13" d="M151 148.79a5.89 5.89 0 0 1-5.86 5.92 5.89 5.89 0 0 1-5.92-5.86v-7.06"/><rect class="cls-8" x="146.79" y="138.88" width="19.84" height="11.82" rx="5.89" ry="5.89" transform="rotate(89.74 156.714 144.779)"/><path class="cls-13" d="M156.78 154.71a5.89 5.89 0 0 1-5.92-5.86v-7.06"/><rect class="cls-8" x="111.44" y="138.88" width="19.84" height="11.82" rx="5.89" ry="5.89" transform="rotate(89.74 121.368 144.784)"/><path class="cls-13" d="M139.15 148.79a5.89 5.89 0 0 1-5.86 5.92 5.89 5.89 0 0 1-5.92-5.86v-7.06"/><path class="cls-13" d="M127.29 148.79a5.89 5.89 0 0 1-5.86 5.92"/></g><g id="r_arm"><path class="cls-8" d="M427 397.3h59.06v10.61a14 14 0 0 1-14 14h-59v-10.62A14 14 0 0 1 427 397.3z"/><path class="cls-8" d="M413.06 421.89v-10.6a14 14 0 0 1 14-14"/><path class="cls-24" d="M439.82 388.26h59.3v-95.88A29.65 29.65 0 0 0 482 265.52l-120.2-56.14a29.65 29.65 0 1 0-25.09 53.73l103.11 48.15z"/><rect class="cls-8" x="413.06" y="406.83" width="13.26" height="27.12" rx="6.63" ry="6.63"/><rect class="cls-8" x="426.32" y="406.83" width="13.26" height="27.12" rx="6.63" ry="6.63"/><rect class="cls-8" x="439.58" y="406.83" width="13.26" height="27.12" rx="6.63" ry="6.63"/><rect class="cls-8" x="452.84" y="406.83" width="13.26" height="27.12" rx="6.63" ry="6.63"/><path class="cls-8" d="M439.82 388.26h46.28v11.75h-46.28z"/><path class="cls-25" d="M426.32 425.24V411.7"/><path class="cls-25" d="M439.58 425.24V411.7"/><path class="cls-25" d="M452.84 425.24V411.7"/></g><g id="body"><path class="cls-24" d="M319.77 198.43a81.75 81.75 0 0 1 81.75 81.75v135.26H238V280.19a81.75 81.75 0 0 1 81.77-81.76z"/><path class="cls-26" d="M238.83 365h161.88a2.23 2.23 0 0 1 2.23 2.23v48.21H236.6v-48.21a2.23 2.23 0 0 1 2.23-2.23z"/><path class="cls-27" d="M248.89 379.95h133.62a5.24 5.24 0 0 1 5.24 5.24v.36a5.24 5.24 0 0 1-5.24 5.24H254.13a5.24 5.24 0 0 0-5.24 5.24 5.24 5.24 0 0 0 5.24 5.24h133.62"/><circle class="cls-28" cx="318.32" cy="237.48" r="5.57"/><circle class="cls-28" cx="318.32" cy="281.59" r="5.57"/><circle class="cls-28" cx="318.32" cy="325.71" r="5.57"/></g></g></symbol></svg>