<?xml version="1.0" encoding="utf-8"?>
<!-- Generator: Adobe Illustrator 19.2.1, SVG Export Plug-In . SVG Version: 6.00 Build 0)  -->
<svg version="1.1" xmlns="http://www.w3.org/2000/svg" xmlns:xlink="http://www.w3.org/1999/xlink" x="0px" y="0px" width="75px"
	 height="75px" viewBox="0 0 75 75" style="enable-background:new 0 0 75 75;" xml:space="preserve">
<style type="text/css">
	.st0{fill:#703BF6;}
	.st1{fill:#EF0957;}
	.st2{fill:#FFFFFF;}
</style>
<g id="Layer_2">
	<path class="st0" d="M75,37.5l-5,18.8L56.3,70l-18.8,5l-18.8-5L5,56.3L0,37.5l5-18.8L18.8,5l18.8-5l18.8,5L70,18.8L75,37.5z"/>
	<path class="st1" d="M52,37.5l-1.9,7.3l-5.3,5.3L37.5,52l-7.3-1.9l-5.3-5.3L23,37.5l1.9-7.2l5.3-5.3l7.3-1.9l7.3,1.9l5.3,5.3
		L52,37.5z"/>
</g>
<g id="Layer_1">
	<g>
		<g>
			<polygon class="st2" points="38,37 38,33 37,33 37,37 33,37 33,38 37,38 37,42 38,42 38,38 42,38 42,37 			"/>
		</g>
	</g>
</g>
</svg>
