<?xml version="1.0" encoding="utf-8"?>
<svg version="1.1" id="Layer_1" xmlns="http://www.w3.org/2000/svg" x="0px" y="0px"
	 width="597px" height="344px" viewBox="0 0 597 344" style="enable-background:new 0 0 597 344;" xml:space="preserve">
<g>
	<g>
		<path d="M575.4,344H22.6c-8.8,0-16.4-4-20.6-6.2c-0.4-0.2-0.8-0.4-1.1-0.6H0V326h56V17.3C56,9.8,63.2,0,71,0h456.2
			c7.7,0,15.8,8.2,15.8,16v310h54v10.5c-0.1,0.7,0,0.9,0,0.9l0,0.3l-0.2,0.2l-1,1C594.6,339.8,588.2,344,575.4,344z M1,336.3h0.2
			l0.1,0.1c0.4,0.2,0.8,0.4,1.2,0.6c4.1,2.1,11.6,6.1,20.1,6.1h552.8c12.5,0,18.7-4.1,19.8-4.9l0.8-0.8c0-0.2,0-0.5,0-0.9l0-9.5H1
			V336.3z M57,326h485V16c0-7.1-7.8-15-14.8-15H71c-7.2,0-14,9.2-14,16.3V326z"/>
	</g>
</g>
</svg>
