<?xml version="1.0" encoding="utf-8"?>
<!-- Generator: Adobe Illustrator 19.2.1, SVG Export Plug-In . SVG Version: 6.00 Build 0)  -->
<svg version="1.1" xmlns="http://www.w3.org/2000/svg" xmlns:xlink="http://www.w3.org/1999/xlink" x="0px" y="0px" width="120px"
	 height="120px" viewBox="0 0 120 120" style="enable-background:new 0 0 120 120;" xml:space="preserve">
<style type="text/css">
	.st0{fill:none;stroke:#EF0957;stroke-miterlimit:10;}
</style>
<g id="Layer_1">
	<g>
		<polyline class="st0" points="111.9,90.1 111.9,90 120,60 		"/>
		<polyline class="st0" points="8.1,90.1 30,111.9 30.1,112 		"/>
		<line class="st0" x1="30.1" y1="112" x2="60" y2="120"/>
		<line class="st0" x1="60" y1="120" x2="89.9" y2="112"/>
		<polyline class="st0" points="89.9,112 90,111.9 111.9,90.1 		"/>
		<polyline class="st0" points="0,60 8,90 8.1,90.1 		"/>
		<polyline class="st0" points="8,30.1 0,60 0,60 		"/>
		<polyline class="st0" points="112,30.1 111.9,30 90,8.1 		"/>
		<polyline class="st0" points="120,60 120,60 112,30.1 		"/>
		<polyline class="st0" points="90,8.1 90,8 60,0 		"/>
		<polyline class="st0" points="60,0 30,8 29.9,8.1 		"/>
		<polyline class="st0" points="29.9,8.1 8,30 8,30.1 		"/>
	</g>
</g>
<g id="Layer_2">
</g>
</svg>
