<?xml version="1.0" encoding="utf-8"?>
<!-- Generator: Adobe Illustrator 19.2.1, SVG Export Plug-In . SVG Version: 6.00 Build 0)  -->
<svg version="1.1" xmlns="http://www.w3.org/2000/svg" xmlns:xlink="http://www.w3.org/1999/xlink" x="0px" y="0px" width="120.9px"
	 height="120.9px" viewBox="0 0 120.9 120.9" style="enable-background:new 0 0 120.9 120.9;" xml:space="preserve">
<style type="text/css">
	.st0{fill:#EF0957;}
</style>
<g id="Layer_1">
	<g>
		<g>
			<polygon class="st0" points="112.7,90.9 112.2,90.4 111.9,90.3 120,60.3 120.9,60.6 112.9,90.7 			"/>
		</g>
		<g>
			<polygon class="st0" points="30.4,112.9 30.3,112.9 30.1,112.8 8.2,90.9 9,90.2 30.8,112.1 30.5,112.4 			"/>
		</g>
		<g>
			<rect x="45" y="101" transform="matrix(0.2588 -0.9659 0.9659 0.2588 -78.7515 130.2673)" class="st0" width="1" height="31"/>
		</g>
		<g>
			<rect x="59.9" y="115.9" transform="matrix(0.966 -0.2586 0.2586 0.966 -27.5449 23.4656)" class="st0" width="31" height="1"/>
		</g>
		<g>
			<polygon class="st0" points="90.6,112.9 90.4,112.4 90.1,112.1 112,90.2 112.7,90.9 90.7,112.9 			"/>
		</g>
		<g>
			<polygon class="st0" points="8.2,90.9 8.1,90.7 0,60.6 1,60.3 9,90.3 8.7,90.4 			"/>
		</g>
		<g>
			<rect x="-11" y="45" transform="matrix(0.2588 -0.9659 0.9659 0.2588 -40.6528 38.079)" class="st0" width="30.9" height="1"/>
		</g>
		<g>
			<polygon class="st0" points="112.1,30.8 90.2,8.9 90.9,8.2 112.9,30.2 112.9,30.5 112.3,30.6 			"/>
		</g>
		<g>
			<rect x="116" y="30.1" transform="matrix(0.9659 -0.2588 0.2588 0.9659 -7.8155 31.6887)" class="st0" width="1" height="30.9"/>
		</g>
		<g>
			<polygon class="st0" points="90.3,9 60.3,1 60.6,0 90.7,8.1 90.8,8.2 90.4,8.6 			"/>
		</g>
		<g>
			<polygon class="st0" points="30.6,9 30.5,8.6 30.1,8.2 30.2,8.1 30.3,8 60.3,0 60.6,1 			"/>
		</g>
		<g>
			<polygon class="st0" points="8.9,30.8 8.7,30.6 8,30.5 8.1,30.2 8.2,30.1 30.1,8.2 30.8,8.9 			"/>
		</g>
	</g>
</g>
<g id="Layer_2">
</g>
</svg>
