<svg xmlns="http://www.w3.org/2000/svg" xmlns:xlink="http://www.w3.org/1999/xlink" viewBox="0 0 660.36 823.26"><defs><style>.cls-1{isolation:isolate;}.cls-2{fill:#210442;}.cls-3{fill:url(#Безымянный_градиент_201);}.cls-4{fill:#42067b;}.cls-10,.cls-11,.cls-12,.cls-15,.cls-21,.cls-27,.cls-28,.cls-30,.cls-31,.cls-32,.cls-33,.cls-4,.cls-9{fill-rule:evenodd;}.cls-11,.cls-16,.cls-20,.cls-22,.cls-23,.cls-24,.cls-25,.cls-30,.cls-5{fill:none;stroke-linecap:round;}.cls-5{stroke:#2e055e;}.cls-11,.cls-16,.cls-20,.cls-22,.cls-23,.cls-25,.cls-30,.cls-5{stroke-linejoin:round;}.cls-20,.cls-5{stroke-width:4.23px;}.cls-10,.cls-6{fill:#55007c;}.cls-21,.cls-7{fill:#ff398a;}.cls-8{fill:url(#Безымянный_градиент_212);}.cls-26,.cls-9{fill:#e7d7e8;}.cls-11,.cls-22,.cls-23,.cls-25{stroke:#ff398a;}.cls-11,.cls-22{stroke-width:11.28px;}.cls-12{fill:#8b0cc5;}.cls-13{fill:url(#Безымянный_градиент_24);}.cls-14{fill:#37086d;}.cls-15{fill:url(#Безымянный_градиент_169);}.cls-16,.cls-20{stroke:#330666;}.cls-16,.cls-30{stroke-width:7.05px;}.cls-17{fill:url(#Безымянный_градиент_169-2);}.cls-18{fill:url(#Безымянный_градиент_169-3);}.cls-19{fill:url(#Безымянный_градиент_169-4);}.cls-23{stroke-width:8.46px;}.cls-24{stroke:#bf3294;stroke-miterlimit:10;stroke-width:2.82px;}.cls-25{stroke-width:9.87px;}.cls-27{fill:url(#Безымянный_градиент_169-5);}.cls-28{fill:url(#Безымянный_градиент_9);}.cls-29,.cls-31{fill:#ffda00;}.cls-30{stroke:#e7d7e8;}.cls-32,.cls-33{mix-blend-mode:exclusion;}.cls-32{fill:url(#Безымянный_градиент_169-6);}.cls-33{fill:url(#Безымянный_градиент_169-7);}.cls-34{fill:#1a1138;}</style><linearGradient id="Безымянный_градиент_201" x1="288.75" y1="668.87" x2="288.75" y2="367.1" gradientTransform="translate(577.5 1077.66) rotate(-180)" gradientUnits="userSpaceOnUse"><stop offset="0" stop-color="#5c0093"/><stop offset="1" stop-color="#3d0061"/></linearGradient><linearGradient id="Безымянный_градиент_212" x1="274.15" y1="256.73" x2="458.48" y2="256.73" gradientUnits="userSpaceOnUse"><stop offset="0" stop-color="#cabccc"/><stop offset="1" stop-color="#e7d7e8"/></linearGradient><linearGradient id="Безымянный_градиент_24" x1="693.29" y1="371.52" x2="243.11" y2="371.52" gradientTransform="translate(-162.82 -61.76)" gradientUnits="userSpaceOnUse"><stop offset="0" stop-color="#5c0093"/><stop offset="1" stop-color="#43006b"/></linearGradient><linearGradient id="Безымянный_градиент_169" x1="913.32" y1="230.17" x2="679.34" y2="469.78" gradientTransform="translate(-264.17 135.83) rotate(-21.05)" gradientUnits="userSpaceOnUse"><stop offset="0" stop-color="#b3d226"/><stop offset="0.21" stop-color="#9acf43"/><stop offset="0.56" stop-color="#73c96f"/><stop offset="0.84" stop-color="#5bc68a"/><stop offset="1" stop-color="#52c594"/></linearGradient><linearGradient id="Безымянный_градиент_169-2" x1="761.19" y1="297.15" x2="752.03" y2="363.4" gradientTransform="matrix(0.99, -0.11, 0.11, 0.99, -227.96, -74.09)" xlink:href="#Безымянный_градиент_169"/><linearGradient id="Безымянный_градиент_169-3" x1="791.02" y1="301.28" x2="781.86" y2="367.52" gradientTransform="translate(-228.96 -81.8) rotate(-6.22)" xlink:href="#Безымянный_градиент_169"/><linearGradient id="Безымянный_градиент_169-4" x1="820.85" y1="305.4" x2="811.69" y2="371.65" gradientTransform="matrix(0.99, -0.11, 0.11, 0.99, -229.96, -89.52)" xlink:href="#Безымянный_градиент_169"/><linearGradient id="Безымянный_градиент_169-5" x1="272.67" y1="132.15" x2="272.67" y2="236.48" gradientTransform="matrix(1, 0, 0, 1, 0, 0)" xlink:href="#Безымянный_градиент_169"/><linearGradient id="Безымянный_градиент_9" x1="272.67" y1="150.68" x2="272.67" y2="255.56" gradientUnits="userSpaceOnUse"><stop offset="0" stop-color="#bf3294"/><stop offset="1" stop-color="#ff398a"/></linearGradient><linearGradient id="Безымянный_градиент_169-6" x1="282.32" y1="65.05" x2="282.32" y2="113.3" gradientTransform="matrix(1, 0, 0, 1, 0, 0)" xlink:href="#Безымянный_градиент_169"/><linearGradient id="Безымянный_градиент_169-7" x1="319.75" y1="65.05" x2="319.75" y2="113.3" gradientTransform="matrix(1, 0, 0, 1, 0, 0)" xlink:href="#Безымянный_градиент_169"/></defs><title>Maincharackter</title><g class="cls-1"><g id="Layer_2" data-name="Layer 2"><g id="r_leg"><rect class="cls-2" x="305.93" y="754.9" width="6.98" height="9.53" transform="translate(618.84 1519.32) rotate(-180)"/><path class="cls-3" d="M259.83,318h57.85a0,0,0,0,1,0,0V730.74a28.92,28.92,0,0,1-28.92,28.92h0a28.92,28.92,0,0,1-28.92-28.92V318a0,0,0,0,1,0,0Z" transform="translate(577.5 1077.66) rotate(180)"/><rect class="cls-2" x="305.93" y="754.9" width="6.98" height="9.53" transform="translate(618.84 1519.32) rotate(-180)"/><circle class="cls-2" cx="312.91" cy="759.66" r="4.76"/></g><g id="r_foot"><path class="cls-4" d="M307.49,754.9v5.28a15.41,15.41,0,0,0,15.41,15.41h15.39A47.67,47.67,0,0,1,386,823.26H301.49V814.4a6,6,0,0,0-6-6h0a6,6,0,0,0-6,6v8.86H259.83V754.9Z"/><line class="cls-5" x1="373.05" y1="810.79" x2="309.42" y2="810.79"/><line class="cls-5" x1="282.91" y1="810.79" x2="265.02" y2="810.79"/></g><g id="l_leg"><rect class="cls-2" x="200.35" y="754.9" width="6.98" height="9.53"/><path class="cls-6" d="M224.51,318h0a28.92,28.92,0,0,1,28.92,28.92V759.66a0,0,0,0,1,0,0H195.59a0,0,0,0,1,0,0V346.92A28.92,28.92,0,0,1,224.51,318Z"/><rect class="cls-2" x="200.35" y="754.9" width="6.98" height="9.53"/><circle class="cls-2" cx="200.35" cy="759.66" r="4.76"/></g><g id="l_foot"><path class="cls-4" d="M205.78,754.9v5.28a15.41,15.41,0,0,1-15.41,15.41H175a47.67,47.67,0,0,0-47.67,47.67h84.47V814.4a6,6,0,0,1,6-6h0a6,6,0,0,1,6,6v8.86h29.68V754.9Z"/><line class="cls-5" x1="140.21" y1="810.79" x2="203.84" y2="810.79"/><line class="cls-5" x1="230.35" y1="810.79" x2="248.24" y2="810.79"/></g><g id="r_arm"><rect class="cls-7" x="419.25" y="265.57" width="61.25" height="42.84" transform="translate(-74.61 188.68) rotate(-21.92)"/><path class="cls-8" d="M439.74,267.41l-43,17L321.21,182a26.08,26.08,0,1,0-42,31L366.73,331.5a26.07,26.07,0,0,0,30.57,8.77l61.19-24.18Z"/></g><g id="body"><path class="cls-9" d="M353,332.5V233.59a81,81,0,0,0-81-81h-1.57a81,81,0,0,0-81,81V332.5Z"/><path class="cls-10" d="M189.52,332.5a81,81,0,0,0,81,80.37h1.57a81,81,0,0,0,81-80.37Z"/></g><g id="guitar"><path class="cls-11" d="M501.33,275.77s5.78-17.08,17.07-26.46"/><path class="cls-12" d="M260.54,377.13a15.89,15.89,0,1,1-19.66-22.44l40-15.4a63.94,63.94,0,0,0-5.19-17.64,65.11,65.11,0,0,0-95.56-26.74,36.78,36.78,0,0,1-35.46,3.28,102.77,102.77,0,0,0-82.36-.38c-49.15,21.1-74.14,77.39-56.84,128a103.11,103.11,0,0,0,191.84,8.61,35.63,35.63,0,0,1,27.68-21,65.12,65.12,0,0,0,48.46-33Z"/><rect class="cls-13" x="88.49" y="295.59" width="459.33" height="28.35" transform="translate(-90.04 134.97) rotate(-21.05)"/><rect class="cls-14" x="97.1" y="369.33" width="13.43" height="45.88" rx="6.71" ry="6.71" transform="translate(-133.99 63.48) rotate(-21.05)"/><path class="cls-15" d="M634.54,164.46l-85.75,22.26a18.14,18.14,0,0,0-11.39,8.9l-10,18.4,10.18,26.45s17.41-6.7,30.51,13c37-14.25,39.24-81.92,76.22-48.26a20.94,20.94,0,1,0-9.75-40.72Z"/><line class="cls-16" x1="560.24" y1="170.72" x2="564.12" y2="185.37"/><rect class="cls-17" x="550.79" y="163.87" width="18.5" height="12.16" rx="3.79" ry="3.79" transform="matrix(0.97, -0.26, 0.26, 0.97, -24.85, 149.07)"/><line class="cls-16" x1="589.36" y1="163" x2="593.24" y2="177.65"/><rect class="cls-18" x="579.91" y="156.16" width="18.5" height="12.16" rx="3.79" ry="3.79" transform="translate(-21.9 156.27) rotate(-14.84)"/><line class="cls-16" x1="618.49" y1="155.29" x2="622.37" y2="169.94"/><rect class="cls-19" x="609.03" y="148.44" width="18.5" height="12.16" rx="3.79" ry="3.79" transform="translate(-18.95 163.48) rotate(-14.84)"/><line class="cls-20" x1="108.4" y1="385.49" x2="530.81" y2="222.89"/><line class="cls-20" x1="111.69" y1="394.04" x2="534.1" y2="231.44"/></g><g id="r_hand"><path class="cls-21" d="M504.31,257.54c-8.57-5.07-53.5,4.9-42.44,29.58,4.9,10.93,23.81,8.16,23.81,8.16C514.49,284.14,510,272.83,504.31,257.54Z"/><path class="cls-7" d="M500.8,270a5.64,5.64,0,0,1-5.3-3.71l-7.13-19.53L472,241.95a5.64,5.64,0,1,1,3.19-10.82l19.15,5.64a5.64,5.64,0,0,1,3.7,3.47l8.1,22.2a5.64,5.64,0,0,1-5.3,7.57Z"/><line class="cls-22" x1="489.67" y1="264.08" x2="474.4" y2="220.15"/><line class="cls-22" x1="481.24" y1="272.12" x2="465.97" y2="228.19"/><line class="cls-23" x1="476.58" y1="270.36" x2="453.32" y2="257.79"/><line class="cls-24" x1="472.91" y1="231.44" x2="482.88" y2="259.94"/><line class="cls-24" x1="482.88" y1="227.86" x2="492.85" y2="256.36"/></g><g id="l_hand"><rect class="cls-7" x="121.06" y="306.07" width="40.33" height="37.23"/><path class="cls-7" d="M168.8,368h-7.16a11.52,11.52,0,0,1-11.51-11.51V343.31a5.64,5.64,0,1,1,11.28,0v13.15a.24.24,0,0,0,.23.24h7.16a5.64,5.64,0,0,1,0,11.28Z"/><line class="cls-22" x1="145.55" y1="337.61" x2="145.55" y2="384.08"/><line class="cls-22" x1="135.21" y1="334.84" x2="135.21" y2="381.3"/><line class="cls-25" x1="126.94" y1="335.28" x2="119.95" y2="370.87"/><line class="cls-24" x1="151.19" y1="344.31" x2="151.19" y2="356.38"/><line class="cls-24" x1="140.38" y1="344.31" x2="140.38" y2="379.9"/><line class="cls-22" x1="156.12" y1="318" x2="170.41" y2="341.13"/></g><g id="l_arm"><path class="cls-26" d="M240.73,159.9H135.31A26.08,26.08,0,0,0,109.24,186v120.1h52.15v-94h79.34a26.08,26.08,0,0,0,0-52.15Z"/></g><g id="neck"><path class="cls-27" d="M286.68,142.57h-28A16.39,16.39,0,0,0,242.29,159v72.48l30.39-17.33,30.39,17.33V159A16.39,16.39,0,0,0,286.68,142.57Z"/><path class="cls-28" d="M286.09,150.68H259.26a1.28,1.28,0,0,0-1.27,1.45L271.4,254.44a1.28,1.28,0,0,0,2.54,0l13.42-102.31A1.28,1.28,0,0,0,286.09,150.68Z"/></g><g id="head"><path class="cls-7" d="M271.23,33.9h44.38a0,0,0,0,1,0,0v82.9a41.52,41.52,0,0,1-41.52,41.52h0a41.52,41.52,0,0,1-41.52-41.52V72.57A38.66,38.66,0,0,1,271.23,33.9Z"/><rect class="cls-29" x="232.57" y="44.18" width="14.58" height="45.66"/><ellipse class="cls-29" cx="247.7" cy="67.01" rx="13.09" ry="22.83"/><circle class="cls-7" cx="232.57" cy="89.84" r="9.28"/><path class="cls-30" d="M269.52,104.1a18.69,18.69,0,0,0,18.69,18.69"/><rect class="cls-29" x="257.32" y="31.48" width="68.06" height="21.62"/><circle class="cls-29" cx="239.86" cy="44.18" r="7.29"/><circle class="cls-29" cx="325.38" cy="26.55" r="26.55"/><circle class="cls-29" cx="290.1" cy="31.8" r="21.3"/><circle class="cls-29" cx="260.66" cy="38.45" r="14.64"/><polygon class="cls-31" points="254.78 112.62 241.84 112.62 241.84 89.83 248.21 89.83 254.78 112.62"/></g><g id="glass"><path class="cls-32" d="M288.08,96.52H276.57a8.11,8.11,0,0,1-8-6.93l-3.62-24.65h34.78L296.1,89.59A8.11,8.11,0,0,1,288.08,96.52Z"/><path class="cls-33" d="M325.5,96.52H314a8.11,8.11,0,0,1-8-6.93l-3.62-24.65h34.78l-3.62,24.65A8.11,8.11,0,0,1,325.5,96.52Z"/><path class="cls-7" d="M300.59,92.71h19a4.23,4.23,0,0,1,4.23,4.23v0a4.23,4.23,0,0,1-4.23,4.23h-19a0,0,0,0,1,0,0V92.71A0,0,0,0,1,300.59,92.71Z"/><rect class="cls-34" x="222.25" y="61.64" width="116.64" height="5.51" rx="2.75" ry="2.75"/></g><g id="eye"><circle class="cls-34" cx="278.35" cy="81.36" r="2.85"/><circle class="cls-34" cx="310.4" cy="81.36" r="2.85"/></g></g></g></svg>