<?xml version="1.0" encoding="utf-8"?>
<!-- Generator: Adobe Illustrator 19.2.1, SVG Export Plug-In . SVG Version: 6.00 Build 0)  -->
<svg version="1.1" xmlns="http://www.w3.org/2000/svg" xmlns:xlink="http://www.w3.org/1999/xlink" x="0px" y="0px" width="221px"
	 height="221px" viewBox="0 0 221 221" style="enable-background:new 0 0 221 221;" xml:space="preserve">
<style type="text/css">
	.st0{display:none;}
	.st1{display:inline;opacity:0.5;}
	.st2{opacity:0.5;}
	.st3{display:inline;fill:#EF0957;}
</style>
<g id="Layer_1" class="st0">
	<g class="st1">
		<g>
			<g>
				<path d="M111.7,111.5c-0.2,0-0.3-0.1-0.4-0.3l-0.2-0.4c-0.1-0.2-0.1-0.5,0.2-0.7c0.2-0.1,0.5-0.1,0.7,0.2l0.2,0.4
					c0.1,0.2,0.1,0.5-0.2,0.7C111.8,111.5,111.8,111.5,111.7,111.5z"/>
			</g>
			<g>
				<path d="M163.7,202c-0.2,0-0.3-0.1-0.4-0.3l-0.5-0.9c-0.1-0.2-0.1-0.5,0.2-0.7c0.2-0.1,0.5-0.1,0.7,0.2l0.5,0.9
					c0.1,0.2,0.1,0.5-0.2,0.7C163.8,202,163.8,202,163.7,202z M161.7,198.5c-0.2,0-0.3-0.1-0.4-0.3l-0.5-0.9
					c-0.1-0.2-0.1-0.5,0.2-0.7c0.2-0.1,0.5-0.1,0.7,0.2l0.5,0.9c0.1,0.2,0.1,0.5-0.2,0.7C161.8,198.5,161.8,198.5,161.7,198.5z
					 M159.7,195c-0.2,0-0.3-0.1-0.4-0.3l-0.5-0.9c-0.1-0.2-0.1-0.5,0.2-0.7c0.2-0.1,0.5-0.1,0.7,0.2l0.5,0.9
					c0.1,0.2,0.1,0.5-0.2,0.7C159.8,195,159.8,195,159.7,195z M157.7,191.6c-0.2,0-0.3-0.1-0.4-0.3l-0.5-0.9
					c-0.1-0.2-0.1-0.5,0.2-0.7c0.2-0.1,0.5-0.1,0.7,0.2l0.5,0.9c0.1,0.2,0.1,0.5-0.2,0.7C157.8,191.5,157.8,191.6,157.7,191.6z
					 M155.7,188.1c-0.2,0-0.3-0.1-0.4-0.3l-0.5-0.9c-0.1-0.2-0.1-0.5,0.2-0.7c0.2-0.1,0.5-0.1,0.7,0.2l0.5,0.9
					c0.1,0.2,0.1,0.5-0.2,0.7C155.8,188.1,155.8,188.1,155.7,188.1z M153.7,184.6c-0.2,0-0.3-0.1-0.4-0.3l-0.5-0.9
					c-0.1-0.2-0.1-0.5,0.2-0.7c0.2-0.1,0.5-0.1,0.7,0.2l0.5,0.9c0.1,0.2,0.1,0.5-0.2,0.7C153.8,184.6,153.8,184.6,153.7,184.6z
					 M151.7,181.1c-0.2,0-0.3-0.1-0.4-0.3l-0.5-0.9c-0.1-0.2-0.1-0.5,0.2-0.7c0.2-0.1,0.5-0.1,0.7,0.2l0.5,0.9
					c0.1,0.2,0.1,0.5-0.2,0.7C151.8,181.1,151.8,181.1,151.7,181.1z M149.7,177.6c-0.2,0-0.3-0.1-0.4-0.3l-0.5-0.9
					c-0.1-0.2-0.1-0.5,0.2-0.7c0.2-0.1,0.5-0.1,0.7,0.2l0.5,0.9c0.1,0.2,0.1,0.5-0.2,0.7C149.8,177.6,149.8,177.6,149.7,177.6z
					 M147.7,174.1c-0.2,0-0.3-0.1-0.4-0.3l-0.5-0.9c-0.1-0.2-0.1-0.5,0.2-0.7c0.2-0.1,0.5-0.1,0.7,0.2l0.5,0.9
					c0.1,0.2,0.1,0.5-0.2,0.7C147.8,174.1,147.8,174.1,147.7,174.1z M145.7,170.7c-0.2,0-0.3-0.1-0.4-0.3l-0.5-0.9
					c-0.1-0.2-0.1-0.5,0.2-0.7c0.2-0.1,0.5-0.1,0.7,0.2l0.5,0.9c0.1,0.2,0.1,0.5-0.2,0.7C145.8,170.6,145.8,170.7,145.7,170.7z
					 M143.7,167.2c-0.2,0-0.3-0.1-0.4-0.3l-0.5-0.9c-0.1-0.2-0.1-0.5,0.2-0.7c0.2-0.1,0.5-0.1,0.7,0.2l0.5,0.9
					c0.1,0.2,0.1,0.5-0.2,0.7C143.8,167.2,143.8,167.2,143.7,167.2z M141.7,163.7c-0.2,0-0.3-0.1-0.4-0.3l-0.5-0.9
					c-0.1-0.2-0.1-0.5,0.2-0.7c0.2-0.1,0.5-0.1,0.7,0.2l0.5,0.9c0.1,0.2,0.1,0.5-0.2,0.7C141.8,163.7,141.8,163.7,141.7,163.7z
					 M139.7,160.2c-0.2,0-0.3-0.1-0.4-0.3l-0.5-0.9c-0.1-0.2-0.1-0.5,0.2-0.7c0.2-0.1,0.5-0.1,0.7,0.2l0.5,0.9
					c0.1,0.2,0.1,0.5-0.2,0.7C139.8,160.2,139.8,160.2,139.7,160.2z M137.7,156.7c-0.2,0-0.3-0.1-0.4-0.3l-0.5-0.9
					c-0.1-0.2-0.1-0.5,0.2-0.7c0.2-0.1,0.5-0.1,0.7,0.2l0.5,0.9c0.1,0.2,0.1,0.5-0.2,0.7C137.8,156.7,137.8,156.7,137.7,156.7z
					 M135.7,153.3c-0.2,0-0.3-0.1-0.4-0.3l-0.5-0.9c-0.1-0.2-0.1-0.5,0.2-0.7c0.2-0.1,0.5-0.1,0.7,0.2l0.5,0.9
					c0.1,0.2,0.1,0.5-0.2,0.7C135.8,153.2,135.8,153.3,135.7,153.3z M133.7,149.8c-0.2,0-0.3-0.1-0.4-0.3l-0.5-0.9
					c-0.1-0.2-0.1-0.5,0.2-0.7c0.2-0.1,0.5-0.1,0.7,0.2l0.5,0.9c0.1,0.2,0.1,0.5-0.2,0.7C133.8,149.8,133.8,149.8,133.7,149.8z
					 M131.7,146.3c-0.2,0-0.3-0.1-0.4-0.3l-0.5-0.9c-0.1-0.2-0.1-0.5,0.2-0.7c0.2-0.1,0.5-0.1,0.7,0.2l0.5,0.9
					c0.1,0.2,0.1,0.5-0.2,0.7C131.8,146.3,131.8,146.3,131.7,146.3z M129.7,142.8c-0.2,0-0.3-0.1-0.4-0.3l-0.5-0.9
					c-0.1-0.2-0.1-0.5,0.2-0.7c0.2-0.1,0.5-0.1,0.7,0.2l0.5,0.9c0.1,0.2,0.1,0.5-0.2,0.7C129.8,142.8,129.8,142.8,129.7,142.8z
					 M127.7,139.3c-0.2,0-0.3-0.1-0.4-0.3l-0.5-0.9c-0.1-0.2-0.1-0.5,0.2-0.7c0.2-0.1,0.5-0.1,0.7,0.2l0.5,0.9
					c0.1,0.2,0.1,0.5-0.2,0.7C127.8,139.3,127.8,139.3,127.7,139.3z M125.7,135.8c-0.2,0-0.3-0.1-0.4-0.3l-0.5-0.9
					c-0.1-0.2-0.1-0.5,0.2-0.7c0.2-0.1,0.5-0.1,0.7,0.2l0.5,0.9c0.1,0.2,0.1,0.5-0.2,0.7C125.8,135.8,125.8,135.8,125.7,135.8z
					 M123.7,132.4c-0.2,0-0.3-0.1-0.4-0.3l-0.5-0.9c-0.1-0.2-0.1-0.5,0.2-0.7c0.2-0.1,0.5-0.1,0.7,0.2l0.5,0.9
					c0.1,0.2,0.1,0.5-0.2,0.7C123.8,132.3,123.8,132.4,123.7,132.4z M121.7,128.9c-0.2,0-0.3-0.1-0.4-0.3l-0.5-0.9
					c-0.1-0.2-0.1-0.5,0.2-0.7c0.2-0.1,0.5-0.1,0.7,0.2l0.5,0.9c0.1,0.2,0.1,0.5-0.2,0.7C121.8,128.9,121.8,128.9,121.7,128.9z
					 M119.7,125.4c-0.2,0-0.3-0.1-0.4-0.3l-0.5-0.9c-0.1-0.2-0.1-0.5,0.2-0.7c0.2-0.1,0.5-0.1,0.7,0.2l0.5,0.9
					c0.1,0.2,0.1,0.5-0.2,0.7C119.8,125.4,119.8,125.4,119.7,125.4z M117.7,121.9c-0.2,0-0.3-0.1-0.4-0.3l-0.5-0.9
					c-0.1-0.2-0.1-0.5,0.2-0.7c0.2-0.1,0.5-0.1,0.7,0.2l0.5,0.9c0.1,0.2,0.1,0.5-0.2,0.7C117.8,121.9,117.8,121.9,117.7,121.9z
					 M115.7,118.4c-0.2,0-0.3-0.1-0.4-0.3l-0.5-0.9c-0.1-0.2-0.1-0.5,0.2-0.7c0.2-0.1,0.5-0.1,0.7,0.2l0.5,0.9
					c0.1,0.2,0.1,0.5-0.2,0.7C115.8,118.4,115.8,118.4,115.7,118.4z M113.7,115c-0.2,0-0.3-0.1-0.4-0.3l-0.5-0.9
					c-0.1-0.2-0.1-0.5,0.2-0.7c0.2-0.1,0.5-0.1,0.7,0.2l0.5,0.9c0.1,0.2,0.1,0.5-0.2,0.7C113.8,114.9,113.8,115,113.7,115z"/>
			</g>
			<g>
				<path d="M165.4,205c-0.2,0-0.3-0.1-0.4-0.3l-0.2-0.4c-0.1-0.2-0.1-0.5,0.2-0.7c0.2-0.1,0.5-0.1,0.7,0.2l0.2,0.4
					c0.1,0.2,0.1,0.5-0.2,0.7C165.6,205,165.5,205,165.4,205z"/>
			</g>
		</g>
		<g>
			<g>
				<path d="M110.9,111.2c-0.2,0-0.4-0.1-0.5-0.4c-0.1-0.3,0.1-0.5,0.3-0.6l0.5-0.1c0.3-0.1,0.5,0.1,0.6,0.3
					c0.1,0.3-0.1,0.5-0.3,0.6l-0.5,0.1C111,111.2,111,111.2,110.9,111.2z"/>
			</g>
			<g>
				<path d="M11.8,141c-0.2,0-0.4-0.1-0.5-0.4c-0.1-0.3,0.1-0.5,0.3-0.6l1-0.3c0.3-0.1,0.5,0.1,0.6,0.3c0.1,0.3-0.1,0.5-0.3,0.6
					l-1,0.3C11.9,141,11.8,141,11.8,141z M15.6,139.9c-0.2,0-0.4-0.1-0.5-0.4c-0.1-0.3,0.1-0.5,0.3-0.6l1-0.3
					c0.3-0.1,0.5,0.1,0.6,0.3c0.1,0.3-0.1,0.5-0.3,0.6l-1,0.3C15.7,139.9,15.6,139.9,15.6,139.9z M19.4,138.7
					c-0.2,0-0.4-0.1-0.5-0.4c-0.1-0.3,0.1-0.5,0.3-0.6l1-0.3c0.3-0.1,0.5,0.1,0.6,0.3c0.1,0.3-0.1,0.5-0.3,0.6l-1,0.3
					C19.5,138.7,19.4,138.7,19.4,138.7z M23.2,137.6c-0.2,0-0.4-0.1-0.5-0.4c-0.1-0.3,0.1-0.5,0.3-0.6l1-0.3
					c0.3-0.1,0.5,0.1,0.6,0.3c0.1,0.3-0.1,0.5-0.3,0.6l-1,0.3C23.3,137.6,23.3,137.6,23.2,137.6z M27,136.4c-0.2,0-0.4-0.1-0.5-0.4
					c-0.1-0.3,0.1-0.5,0.3-0.6l1-0.3c0.3-0.1,0.5,0.1,0.6,0.3c0.1,0.3-0.1,0.5-0.3,0.6l-1,0.3C27.1,136.4,27.1,136.4,27,136.4z
					 M30.8,135.3c-0.2,0-0.4-0.1-0.5-0.4c-0.1-0.3,0.1-0.5,0.3-0.6l1-0.3c0.3-0.1,0.5,0.1,0.6,0.3c0.1,0.3-0.1,0.5-0.3,0.6l-1,0.3
					C30.9,135.3,30.9,135.3,30.8,135.3z M34.7,134.2c-0.2,0-0.4-0.1-0.5-0.4c-0.1-0.3,0.1-0.5,0.3-0.6l1-0.3
					c0.3-0.1,0.5,0.1,0.6,0.3c0.1,0.3-0.1,0.5-0.3,0.6l-1,0.3C34.7,134.1,34.7,134.2,34.7,134.2z M38.5,133c-0.2,0-0.4-0.1-0.5-0.4
					c-0.1-0.3,0.1-0.5,0.3-0.6l1-0.3c0.3-0.1,0.5,0.1,0.6,0.3c0.1,0.3-0.1,0.5-0.3,0.6l-1,0.3C38.6,133,38.5,133,38.5,133z
					 M42.3,131.9c-0.2,0-0.4-0.1-0.5-0.4c-0.1-0.3,0.1-0.5,0.3-0.6l1-0.3c0.3-0.1,0.5,0.1,0.6,0.3c0.1,0.3-0.1,0.5-0.3,0.6l-1,0.3
					C42.4,131.8,42.3,131.9,42.3,131.9z M46.1,130.7c-0.2,0-0.4-0.1-0.5-0.4c-0.1-0.3,0.1-0.5,0.3-0.6l1-0.3
					c0.3-0.1,0.5,0.1,0.6,0.3c0.1,0.3-0.1,0.5-0.3,0.6l-1,0.3C46.2,130.7,46.1,130.7,46.1,130.7z M49.9,129.6
					c-0.2,0-0.4-0.1-0.5-0.4c-0.1-0.3,0.1-0.5,0.3-0.6l1-0.3c0.3-0.1,0.5,0.1,0.6,0.3c0.1,0.3-0.1,0.5-0.3,0.6l-1,0.3
					C50,129.6,50,129.6,49.9,129.6z M53.7,128.4c-0.2,0-0.4-0.1-0.5-0.4c-0.1-0.3,0.1-0.5,0.3-0.6l1-0.3c0.3-0.1,0.5,0.1,0.6,0.3
					c0.1,0.3-0.1,0.5-0.3,0.6l-1,0.3C53.8,128.4,53.8,128.4,53.7,128.4z M57.5,127.3c-0.2,0-0.4-0.1-0.5-0.4
					c-0.1-0.3,0.1-0.5,0.3-0.6l1-0.3c0.3-0.1,0.5,0.1,0.6,0.3c0.1,0.3-0.1,0.5-0.3,0.6l-1,0.3C57.6,127.3,57.6,127.3,57.5,127.3z
					 M61.4,126.1c-0.2,0-0.4-0.1-0.5-0.4c-0.1-0.3,0.1-0.5,0.3-0.6l1-0.3c0.3-0.1,0.5,0.1,0.6,0.3c0.1,0.3-0.1,0.5-0.3,0.6l-1,0.3
					C61.5,126.1,61.4,126.1,61.4,126.1z M65.2,125c-0.2,0-0.4-0.1-0.5-0.4c-0.1-0.3,0.1-0.5,0.3-0.6l1-0.3c0.3-0.1,0.5,0.1,0.6,0.3
					c0.1,0.3-0.1,0.5-0.3,0.6l-1,0.3C65.3,125,65.2,125,65.2,125z M69,123.8c-0.2,0-0.4-0.1-0.5-0.4c-0.1-0.3,0.1-0.5,0.3-0.6l1-0.3
					c0.3-0.1,0.5,0.1,0.6,0.3c0.1,0.3-0.1,0.5-0.3,0.6l-1,0.3C69.1,123.8,69,123.8,69,123.8z M72.8,122.7c-0.2,0-0.4-0.1-0.5-0.4
					c-0.1-0.3,0.1-0.5,0.3-0.6l1-0.3c0.3-0.1,0.5,0.1,0.6,0.3c0.1,0.3-0.1,0.5-0.3,0.6l-1,0.3C72.9,122.7,72.8,122.7,72.8,122.7z
					 M76.6,121.5c-0.2,0-0.4-0.1-0.5-0.4c-0.1-0.3,0.1-0.5,0.3-0.6l1-0.3c0.3-0.1,0.5,0.1,0.6,0.3c0.1,0.3-0.1,0.5-0.3,0.6l-1,0.3
					C76.7,121.5,76.7,121.5,76.6,121.5z M80.4,120.4c-0.2,0-0.4-0.1-0.5-0.4c-0.1-0.3,0.1-0.5,0.3-0.6l1-0.3
					c0.3-0.1,0.5,0.1,0.6,0.3c0.1,0.3-0.1,0.5-0.3,0.6l-1,0.3C80.5,120.4,80.5,120.4,80.4,120.4z M84.2,119.2
					c-0.2,0-0.4-0.1-0.5-0.4c-0.1-0.3,0.1-0.5,0.3-0.6l1-0.3c0.3-0.1,0.5,0.1,0.6,0.3c0.1,0.3-0.1,0.5-0.3,0.6l-1,0.3
					C84.3,119.2,84.3,119.2,84.2,119.2z M88.1,118.1c-0.2,0-0.4-0.1-0.5-0.4c-0.1-0.3,0.1-0.5,0.3-0.6l1-0.3
					c0.3-0.1,0.5,0.1,0.6,0.3c0.1,0.3-0.1,0.5-0.3,0.6l-1,0.3C88.2,118.1,88.1,118.1,88.1,118.1z M91.9,116.9
					c-0.2,0-0.4-0.1-0.5-0.4c-0.1-0.3,0.1-0.5,0.3-0.6l1-0.3c0.3-0.1,0.5,0.1,0.6,0.3c0.1,0.3-0.1,0.5-0.3,0.6l-1,0.3
					C92,116.9,91.9,116.9,91.9,116.9z M95.7,115.8c-0.2,0-0.4-0.1-0.5-0.4c-0.1-0.3,0.1-0.5,0.3-0.6l1-0.3c0.3-0.1,0.5,0.1,0.6,0.3
					c0.1,0.3-0.1,0.5-0.3,0.6l-1,0.3C95.8,115.8,95.7,115.8,95.7,115.8z M99.5,114.6c-0.2,0-0.4-0.1-0.5-0.4
					c-0.1-0.3,0.1-0.5,0.3-0.6l1-0.3c0.3-0.1,0.5,0.1,0.6,0.3c0.1,0.3-0.1,0.5-0.3,0.6l-1,0.3C99.6,114.6,99.5,114.6,99.5,114.6z
					 M103.3,113.5c-0.2,0-0.4-0.1-0.5-0.4c-0.1-0.3,0.1-0.5,0.3-0.6l1-0.3c0.3-0.1,0.5,0.1,0.6,0.3c0.1,0.3-0.1,0.5-0.3,0.6l-1,0.3
					C103.4,113.5,103.4,113.5,103.3,113.5z M107.1,112.3c-0.2,0-0.4-0.1-0.5-0.4c-0.1-0.3,0.1-0.5,0.3-0.6l1-0.3
					c0.3-0.1,0.5,0.1,0.6,0.3c0.1,0.3-0.1,0.5-0.3,0.6l-1,0.3C107.2,112.3,107.2,112.3,107.1,112.3z"/>
			</g>
			<g>
				<path d="M8.4,142c-0.2,0-0.4-0.1-0.5-0.4c-0.1-0.3,0.1-0.5,0.3-0.6l0.5-0.1c0.3-0.1,0.5,0.1,0.6,0.3c0.1,0.3-0.1,0.5-0.3,0.6
					L8.6,142C8.5,142,8.5,142,8.4,142z"/>
			</g>
		</g>
		<g>
			<g>
				<path d="M111.4,2.5c-0.3,0-0.5-0.2-0.5-0.5V1.5c0-0.3,0.2-0.5,0.5-0.5s0.5,0.2,0.5,0.5V2C111.9,2.3,111.7,2.5,111.4,2.5z"/>
			</g>
			<g>
				<path d="M111.4,107.5c-0.3,0-0.5-0.2-0.5-0.5v-1c0-0.3,0.2-0.5,0.5-0.5s0.5,0.2,0.5,0.5v1C111.9,107.3,111.7,107.5,111.4,107.5z
					 M111.4,103.5c-0.3,0-0.5-0.2-0.5-0.5v-1c0-0.3,0.2-0.5,0.5-0.5s0.5,0.2,0.5,0.5v1C111.9,103.3,111.7,103.5,111.4,103.5z
					 M111.4,99.4c-0.3,0-0.5-0.2-0.5-0.5v-1c0-0.3,0.2-0.5,0.5-0.5s0.5,0.2,0.5,0.5v1C111.9,99.2,111.7,99.4,111.4,99.4z
					 M111.4,95.4c-0.3,0-0.5-0.2-0.5-0.5v-1c0-0.3,0.2-0.5,0.5-0.5s0.5,0.2,0.5,0.5v1C111.9,95.2,111.7,95.4,111.4,95.4z
					 M111.4,91.4c-0.3,0-0.5-0.2-0.5-0.5v-1c0-0.3,0.2-0.5,0.5-0.5s0.5,0.2,0.5,0.5v1C111.9,91.1,111.7,91.4,111.4,91.4z
					 M111.4,87.3c-0.3,0-0.5-0.2-0.5-0.5v-1c0-0.3,0.2-0.5,0.5-0.5s0.5,0.2,0.5,0.5v1C111.9,87.1,111.7,87.3,111.4,87.3z
					 M111.4,83.3c-0.3,0-0.5-0.2-0.5-0.5v-1c0-0.3,0.2-0.5,0.5-0.5s0.5,0.2,0.5,0.5v1C111.9,83.1,111.7,83.3,111.4,83.3z
					 M111.4,79.3c-0.3,0-0.5-0.2-0.5-0.5v-1c0-0.3,0.2-0.5,0.5-0.5s0.5,0.2,0.5,0.5v1C111.9,79,111.7,79.3,111.4,79.3z M111.4,75.2
					c-0.3,0-0.5-0.2-0.5-0.5v-1c0-0.3,0.2-0.5,0.5-0.5s0.5,0.2,0.5,0.5v1C111.9,75,111.7,75.2,111.4,75.2z M111.4,71.2
					c-0.3,0-0.5-0.2-0.5-0.5v-1c0-0.3,0.2-0.5,0.5-0.5s0.5,0.2,0.5,0.5v1C111.9,71,111.7,71.2,111.4,71.2z M111.4,67.1
					c-0.3,0-0.5-0.2-0.5-0.5v-1c0-0.3,0.2-0.5,0.5-0.5s0.5,0.2,0.5,0.5v1C111.9,66.9,111.7,67.1,111.4,67.1z M111.4,63.1
					c-0.3,0-0.5-0.2-0.5-0.5v-1c0-0.3,0.2-0.5,0.5-0.5s0.5,0.2,0.5,0.5v1C111.9,62.9,111.7,63.1,111.4,63.1z M111.4,59.1
					c-0.3,0-0.5-0.2-0.5-0.5v-1c0-0.3,0.2-0.5,0.5-0.5s0.5,0.2,0.5,0.5v1C111.9,58.8,111.7,59.1,111.4,59.1z M111.4,55
					c-0.3,0-0.5-0.2-0.5-0.5v-1c0-0.3,0.2-0.5,0.5-0.5s0.5,0.2,0.5,0.5v1C111.9,54.8,111.7,55,111.4,55z M111.4,51
					c-0.3,0-0.5-0.2-0.5-0.5v-1c0-0.3,0.2-0.5,0.5-0.5s0.5,0.2,0.5,0.5v1C111.9,50.8,111.7,51,111.4,51z M111.4,47
					c-0.3,0-0.5-0.2-0.5-0.5v-1c0-0.3,0.2-0.5,0.5-0.5s0.5,0.2,0.5,0.5v1C111.9,46.7,111.7,47,111.4,47z M111.4,42.9
					c-0.3,0-0.5-0.2-0.5-0.5v-1c0-0.3,0.2-0.5,0.5-0.5s0.5,0.2,0.5,0.5v1C111.9,42.7,111.7,42.9,111.4,42.9z M111.4,38.9
					c-0.3,0-0.5-0.2-0.5-0.5v-1c0-0.3,0.2-0.5,0.5-0.5s0.5,0.2,0.5,0.5v1C111.9,38.7,111.7,38.9,111.4,38.9z M111.4,34.8
					c-0.3,0-0.5-0.2-0.5-0.5v-1c0-0.3,0.2-0.5,0.5-0.5s0.5,0.2,0.5,0.5v1C111.9,34.6,111.7,34.8,111.4,34.8z M111.4,30.8
					c-0.3,0-0.5-0.2-0.5-0.5v-1c0-0.3,0.2-0.5,0.5-0.5s0.5,0.2,0.5,0.5v1C111.9,30.6,111.7,30.8,111.4,30.8z M111.4,26.8
					c-0.3,0-0.5-0.2-0.5-0.5v-1c0-0.3,0.2-0.5,0.5-0.5s0.5,0.2,0.5,0.5v1C111.9,26.5,111.7,26.8,111.4,26.8z M111.4,22.7
					c-0.3,0-0.5-0.2-0.5-0.5v-1c0-0.3,0.2-0.5,0.5-0.5s0.5,0.2,0.5,0.5v1C111.9,22.5,111.7,22.7,111.4,22.7z M111.4,18.7
					c-0.3,0-0.5-0.2-0.5-0.5v-1c0-0.3,0.2-0.5,0.5-0.5s0.5,0.2,0.5,0.5v1C111.9,18.5,111.7,18.7,111.4,18.7z M111.4,14.7
					c-0.3,0-0.5-0.2-0.5-0.5v-1c0-0.3,0.2-0.5,0.5-0.5s0.5,0.2,0.5,0.5v1C111.9,14.4,111.7,14.7,111.4,14.7z M111.4,10.6
					c-0.3,0-0.5-0.2-0.5-0.5v-1c0-0.3,0.2-0.5,0.5-0.5s0.5,0.2,0.5,0.5v1C111.9,10.4,111.7,10.6,111.4,10.6z M111.4,6.6
					c-0.3,0-0.5-0.2-0.5-0.5v-1c0-0.3,0.2-0.5,0.5-0.5s0.5,0.2,0.5,0.5v1C111.9,6.4,111.7,6.6,111.4,6.6z"/>
			</g>
			<g>
				<path d="M111.9,111.5l-1.2-0.8c-0.2-0.2-0.3-0.5-0.1-0.7c0.1-0.1,0.3-0.2,0.4-0.2c0.1-0.1,0.2-0.2,0.4-0.2
					c0.3,0,0.5,0.2,0.5,0.5V111.5z"/>
			</g>
			<g>
				<path d="M108.5,109c-0.1,0-0.2,0-0.3-0.1l-0.8-0.6c-0.2-0.2-0.3-0.5-0.1-0.7c0.2-0.2,0.5-0.3,0.7-0.1l0.8,0.6
					c0.2,0.2,0.3,0.5,0.1,0.7C108.8,109,108.7,109,108.5,109z M105.2,106.7c-0.1,0-0.2,0-0.3-0.1l-0.8-0.6c-0.2-0.2-0.3-0.5-0.1-0.7
					c0.2-0.2,0.5-0.3,0.7-0.1l0.8,0.6c0.2,0.2,0.3,0.5,0.1,0.7C105.5,106.7,105.3,106.7,105.2,106.7z M101.8,104.4
					c-0.1,0-0.2,0-0.3-0.1l-0.8-0.6c-0.2-0.2-0.3-0.5-0.1-0.7c0.2-0.2,0.5-0.3,0.7-0.1l0.8,0.6c0.2,0.2,0.3,0.5,0.1,0.7
					C102.2,104.4,102,104.4,101.8,104.4z M98.5,102.1c-0.1,0-0.2,0-0.3-0.1l-0.8-0.6c-0.2-0.2-0.3-0.5-0.1-0.7
					c0.2-0.2,0.5-0.3,0.7-0.1l0.8,0.6c0.2,0.2,0.3,0.5,0.1,0.7C98.8,102.1,98.7,102.1,98.5,102.1z M95.2,99.9c-0.1,0-0.2,0-0.3-0.1
					l-0.8-0.6c-0.2-0.2-0.3-0.5-0.1-0.7c0.2-0.2,0.5-0.3,0.7-0.1l0.8,0.6c0.2,0.2,0.3,0.5,0.1,0.7C95.5,99.8,95.3,99.9,95.2,99.9z
					 M91.8,97.6c-0.1,0-0.2,0-0.3-0.1l-0.8-0.6c-0.2-0.2-0.3-0.5-0.1-0.7c0.2-0.2,0.5-0.3,0.7-0.1l0.8,0.6c0.2,0.2,0.3,0.5,0.1,0.7
					C92.2,97.5,92,97.6,91.8,97.6z M88.5,95.3c-0.1,0-0.2,0-0.3-0.1l-0.8-0.6c-0.2-0.2-0.3-0.5-0.1-0.7c0.2-0.2,0.5-0.3,0.7-0.1
					l0.8,0.6c0.2,0.2,0.3,0.5,0.1,0.7C88.8,95.2,88.7,95.3,88.5,95.3z M85.2,93c-0.1,0-0.2,0-0.3-0.1l-0.8-0.6
					c-0.2-0.2-0.3-0.5-0.1-0.7c0.2-0.2,0.5-0.3,0.7-0.1l0.8,0.6c0.2,0.2,0.3,0.5,0.1,0.7C85.5,92.9,85.3,93,85.2,93z M81.8,90.7
					c-0.1,0-0.2,0-0.3-0.1L80.7,90c-0.2-0.2-0.3-0.5-0.1-0.7c0.2-0.2,0.5-0.3,0.7-0.1l0.8,0.6c0.2,0.2,0.3,0.5,0.1,0.7
					C82.2,90.6,82,90.7,81.8,90.7z M78.5,88.4c-0.1,0-0.2,0-0.3-0.1l-0.8-0.6c-0.2-0.2-0.3-0.5-0.1-0.7c0.2-0.2,0.5-0.3,0.7-0.1
					l0.8,0.6c0.2,0.2,0.3,0.5,0.1,0.7C78.8,88.3,78.7,88.4,78.5,88.4z M75.2,86.1c-0.1,0-0.2,0-0.3-0.1l-0.8-0.6
					c-0.2-0.2-0.3-0.5-0.1-0.7c0.2-0.2,0.5-0.3,0.7-0.1l0.8,0.6c0.2,0.2,0.3,0.5,0.1,0.7C75.5,86,75.3,86.1,75.2,86.1z M71.8,83.8
					c-0.1,0-0.2,0-0.3-0.1l-0.8-0.6c-0.2-0.2-0.3-0.5-0.1-0.7c0.2-0.2,0.5-0.3,0.7-0.1l0.8,0.6c0.2,0.2,0.3,0.5,0.1,0.7
					C72.2,83.7,72,83.8,71.8,83.8z M68.5,81.5c-0.1,0-0.2,0-0.3-0.1l-0.8-0.6c-0.2-0.2-0.3-0.5-0.1-0.7c0.2-0.2,0.5-0.3,0.7-0.1
					l0.8,0.6c0.2,0.2,0.3,0.5,0.1,0.7C68.8,81.4,68.7,81.5,68.5,81.5z M65.2,79.2c-0.1,0-0.2,0-0.3-0.1l-0.8-0.6
					c-0.2-0.2-0.3-0.5-0.1-0.7c0.2-0.2,0.5-0.3,0.7-0.1l0.8,0.6c0.2,0.2,0.3,0.5,0.1,0.7C65.5,79.1,65.3,79.2,65.2,79.2z M61.8,76.9
					c-0.1,0-0.2,0-0.3-0.1l-0.8-0.6c-0.2-0.2-0.3-0.5-0.1-0.7c0.2-0.2,0.5-0.3,0.7-0.1l0.8,0.6c0.2,0.2,0.3,0.5,0.1,0.7
					C62.2,76.8,62,76.9,61.8,76.9z M58.5,74.6c-0.1,0-0.2,0-0.3-0.1l-0.8-0.6c-0.2-0.2-0.3-0.5-0.1-0.7c0.2-0.2,0.5-0.3,0.7-0.1
					l0.8,0.6c0.2,0.2,0.3,0.5,0.1,0.7C58.8,74.5,58.7,74.6,58.5,74.6z M55.2,72.3c-0.1,0-0.2,0-0.3-0.1l-0.8-0.6
					c-0.2-0.2-0.3-0.5-0.1-0.7c0.2-0.2,0.5-0.3,0.7-0.1l0.8,0.6c0.2,0.2,0.3,0.5,0.1,0.7C55.5,72.2,55.3,72.3,55.2,72.3z M51.8,70
					c-0.1,0-0.2,0-0.3-0.1l-0.8-0.6c-0.2-0.2-0.3-0.5-0.1-0.7c0.2-0.2,0.5-0.3,0.7-0.1l0.8,0.6c0.2,0.2,0.3,0.5,0.1,0.7
					C52.2,69.9,52,70,51.8,70z M48.5,67.7c-0.1,0-0.2,0-0.3-0.1L47.4,67c-0.2-0.2-0.3-0.5-0.1-0.7c0.2-0.2,0.5-0.3,0.7-0.1l0.8,0.6
					c0.2,0.2,0.3,0.5,0.1,0.7C48.8,67.6,48.7,67.7,48.5,67.7z M45.2,65.4c-0.1,0-0.2,0-0.3-0.1l-0.8-0.6c-0.2-0.2-0.3-0.5-0.1-0.7
					c0.2-0.2,0.5-0.3,0.7-0.1l0.8,0.6c0.2,0.2,0.3,0.5,0.1,0.7C45.5,65.3,45.3,65.4,45.2,65.4z M41.8,63.1c-0.1,0-0.2,0-0.3-0.1
					l-0.8-0.6c-0.2-0.2-0.3-0.5-0.1-0.7c0.2-0.2,0.5-0.3,0.7-0.1l0.8,0.6c0.2,0.2,0.3,0.5,0.1,0.7C42.2,63,42,63.1,41.8,63.1z
					 M38.5,60.8c-0.1,0-0.2,0-0.3-0.1l-0.8-0.6c-0.2-0.2-0.3-0.5-0.1-0.7c0.2-0.2,0.5-0.3,0.7-0.1l0.8,0.6c0.2,0.2,0.3,0.5,0.1,0.7
					C38.8,60.7,38.7,60.8,38.5,60.8z M35.2,58.5c-0.1,0-0.2,0-0.3-0.1l-0.8-0.6c-0.2-0.2-0.3-0.5-0.1-0.7c0.2-0.2,0.5-0.3,0.7-0.1
					l0.8,0.6c0.2,0.2,0.3,0.5,0.1,0.7C35.5,58.4,35.3,58.5,35.2,58.5z M31.8,56.2c-0.1,0-0.2,0-0.3-0.1l-0.8-0.6
					c-0.2-0.2-0.3-0.5-0.1-0.7c0.2-0.2,0.5-0.3,0.7-0.1l0.8,0.6c0.2,0.2,0.3,0.5,0.1,0.7C32.2,56.1,32,56.2,31.8,56.2z M28.5,53.9
					c-0.1,0-0.2,0-0.3-0.1l-0.8-0.6c-0.2-0.2-0.3-0.5-0.1-0.7c0.2-0.2,0.5-0.3,0.7-0.1l0.8,0.6c0.2,0.2,0.3,0.5,0.1,0.7
					C28.8,53.8,28.7,53.9,28.5,53.9z M25.2,51.6c-0.1,0-0.2,0-0.3-0.1L24.1,51c-0.2-0.2-0.3-0.5-0.1-0.7c0.2-0.2,0.5-0.3,0.7-0.1
					l0.8,0.6c0.2,0.2,0.3,0.5,0.1,0.7C25.5,51.5,25.3,51.6,25.2,51.6z"/>
			</g>
			<g>
				<path d="M21.8,49.3c-0.1,0-0.2,0-0.3-0.1L21.1,49c-0.2-0.2-0.3-0.5-0.1-0.7c0.2-0.2,0.5-0.3,0.7-0.1l0.4,0.3
					c0.2,0.2,0.3,0.5,0.1,0.7C22.2,49.3,22,49.3,21.8,49.3z"/>
			</g>
		</g>
		<g>
			<g>
				<path d="M109.5,220.8c0,0-0.1,0-0.1,0l-1-0.3c-0.3-0.1-0.4-0.3-0.4-0.6s0.3-0.4,0.6-0.4l1,0.3c0.3,0.1,0.4,0.3,0.4,0.6
					C109.9,220.6,109.7,220.8,109.5,220.8z M112.4,220.5c-0.2,0-0.4-0.1-0.5-0.4c-0.1-0.3,0.1-0.5,0.4-0.6l1-0.3
					c0.3-0.1,0.5,0.1,0.6,0.4s-0.1,0.5-0.4,0.6l-1,0.3C112.4,220.5,112.4,220.5,112.4,220.5z M105.6,219.8c0,0-0.1,0-0.1,0l-1-0.3
					c-0.3-0.1-0.4-0.3-0.4-0.6c0.1-0.3,0.3-0.4,0.6-0.4l1,0.3c0.3,0.1,0.4,0.3,0.4,0.6C106,219.6,105.8,219.8,105.6,219.8z
					 M116.2,219.5c-0.2,0-0.4-0.1-0.5-0.4c-0.1-0.3,0.1-0.5,0.4-0.6l1-0.3c0.3-0.1,0.5,0.1,0.6,0.4s-0.1,0.5-0.4,0.6l-1,0.3
					C116.3,219.5,116.3,219.5,116.2,219.5z M101.7,218.7c0,0-0.1,0-0.1,0l-1-0.3c-0.3-0.1-0.4-0.3-0.4-0.6c0.1-0.3,0.3-0.4,0.6-0.4
					l1,0.3c0.3,0.1,0.4,0.3,0.4,0.6C102.2,218.6,102,218.7,101.7,218.7z M120.1,218.5c-0.2,0-0.4-0.1-0.5-0.4
					c-0.1-0.3,0.1-0.5,0.4-0.6l1-0.3c0.3-0.1,0.5,0.1,0.6,0.4c0.1,0.3-0.1,0.5-0.4,0.6l-1,0.3C120.2,218.5,120.1,218.5,120.1,218.5z
					 M97.9,217.7c0,0-0.1,0-0.1,0l-1-0.3c-0.3-0.1-0.4-0.3-0.4-0.6c0.1-0.3,0.3-0.4,0.6-0.4l1,0.3c0.3,0.1,0.4,0.3,0.4,0.6
					C98.3,217.5,98.1,217.7,97.9,217.7z M123.9,217.4c-0.2,0-0.4-0.1-0.5-0.4c-0.1-0.3,0.1-0.5,0.4-0.6l1-0.3
					c0.3-0.1,0.5,0.1,0.6,0.4c0.1,0.3-0.1,0.5-0.4,0.6l-1,0.3C124,217.4,124,217.4,123.9,217.4z M94,216.7c0,0-0.1,0-0.1,0l-1-0.3
					c-0.3-0.1-0.4-0.3-0.4-0.6c0.1-0.3,0.3-0.4,0.6-0.4l1,0.3c0.3,0.1,0.4,0.3,0.4,0.6C94.4,216.5,94.2,216.7,94,216.7z
					 M127.8,216.4c-0.2,0-0.4-0.1-0.5-0.4c-0.1-0.3,0.1-0.5,0.4-0.6l1-0.3c0.3-0.1,0.5,0.1,0.6,0.4c0.1,0.3-0.1,0.5-0.4,0.6l-1,0.3
					C127.9,216.4,127.8,216.4,127.8,216.4z M90.2,215.6c0,0-0.1,0-0.1,0l-1-0.3c-0.3-0.1-0.4-0.3-0.4-0.6c0.1-0.3,0.3-0.4,0.6-0.4
					l1,0.3c0.3,0.1,0.4,0.3,0.4,0.6C90.6,215.5,90.4,215.6,90.2,215.6z M131.7,215.4c-0.2,0-0.4-0.1-0.5-0.4
					c-0.1-0.3,0.1-0.5,0.4-0.6l1-0.3c0.3-0.1,0.5,0.1,0.6,0.4c0.1,0.3-0.1,0.5-0.4,0.6l-1,0.3C131.7,215.4,131.7,215.4,131.7,215.4z
					 M86.3,214.6c0,0-0.1,0-0.1,0l-1-0.3c-0.3-0.1-0.4-0.3-0.4-0.6c0.1-0.3,0.3-0.4,0.6-0.4l1,0.3c0.3,0.1,0.4,0.3,0.4,0.6
					C86.7,214.4,86.5,214.6,86.3,214.6z M135.5,214.3c-0.2,0-0.4-0.1-0.5-0.4c-0.1-0.3,0.1-0.5,0.4-0.6l1-0.3
					c0.3-0.1,0.5,0.1,0.6,0.4c0.1,0.3-0.1,0.5-0.4,0.6l-1,0.3C135.6,214.3,135.6,214.3,135.5,214.3z M82.4,213.6c0,0-0.1,0-0.1,0
					l-1-0.3c-0.3-0.1-0.4-0.3-0.4-0.6c0.1-0.3,0.3-0.4,0.6-0.4l1,0.3c0.3,0.1,0.4,0.3,0.4,0.6C82.9,213.4,82.7,213.6,82.4,213.6z
					 M139.4,213.3c-0.2,0-0.4-0.1-0.5-0.4c-0.1-0.3,0.1-0.5,0.4-0.6l1-0.3c0.3-0.1,0.5,0.1,0.6,0.4c0.1,0.3-0.1,0.5-0.4,0.6l-1,0.3
					C139.5,213.3,139.4,213.3,139.4,213.3z M78.6,212.5c0,0-0.1,0-0.1,0l-1-0.3c-0.3-0.1-0.4-0.3-0.4-0.6c0.1-0.3,0.3-0.4,0.6-0.4
					l1,0.3c0.3,0.1,0.4,0.3,0.4,0.6C79,212.4,78.8,212.5,78.6,212.5z M143.2,212.3c-0.2,0-0.4-0.1-0.5-0.4c-0.1-0.3,0.1-0.5,0.4-0.6
					l1-0.3c0.3-0.1,0.5,0.1,0.6,0.4c0.1,0.3-0.1,0.5-0.4,0.6l-1,0.3C143.3,212.3,143.3,212.3,143.2,212.3z M74.7,211.5
					c0,0-0.1,0-0.1,0l-1-0.3c-0.3-0.1-0.4-0.3-0.4-0.6c0.1-0.3,0.3-0.4,0.6-0.4l1,0.3c0.3,0.1,0.4,0.3,0.4,0.6
					C75.1,211.3,74.9,211.5,74.7,211.5z M147.1,211.2c-0.2,0-0.4-0.1-0.5-0.4c-0.1-0.3,0.1-0.5,0.4-0.6l1-0.3
					c0.3-0.1,0.5,0.1,0.6,0.4c0.1,0.3-0.1,0.5-0.4,0.6l-1,0.3C147.2,211.2,147.1,211.2,147.1,211.2z M70.9,210.4c0,0-0.1,0-0.1,0
					l-1-0.3c-0.3-0.1-0.4-0.3-0.4-0.6c0.1-0.3,0.3-0.4,0.6-0.4l1,0.3c0.3,0.1,0.4,0.3,0.4,0.6C71.3,210.3,71.1,210.4,70.9,210.4z
					 M151,210.2c-0.2,0-0.4-0.1-0.5-0.4c-0.1-0.3,0.1-0.5,0.4-0.6l1-0.3c0.3-0.1,0.5,0.1,0.6,0.4c0.1,0.3-0.1,0.5-0.4,0.6l-1,0.3
					C151,210.2,151,210.2,151,210.2z M67,209.4c0,0-0.1,0-0.1,0l-1-0.3c-0.3-0.1-0.4-0.3-0.4-0.6c0.1-0.3,0.3-0.4,0.6-0.4l1,0.3
					c0.3,0.1,0.4,0.3,0.4,0.6C67.4,209.3,67.2,209.4,67,209.4z M154.8,209.2c-0.2,0-0.4-0.1-0.5-0.4c-0.1-0.3,0.1-0.5,0.4-0.6l1-0.3
					c0.3-0.1,0.5,0.1,0.6,0.4c0.1,0.3-0.1,0.5-0.4,0.6l-1,0.3C154.9,209.1,154.9,209.2,154.8,209.2z M63.1,208.4c0,0-0.1,0-0.1,0
					l-1-0.3c-0.3-0.1-0.4-0.3-0.4-0.6c0.1-0.3,0.3-0.4,0.6-0.4l1,0.3c0.3,0.1,0.4,0.3,0.4,0.6C63.6,208.2,63.4,208.4,63.1,208.4z
					 M158.7,208.1c-0.2,0-0.4-0.1-0.5-0.4c-0.1-0.3,0.1-0.5,0.4-0.6l1-0.3c0.3-0.1,0.5,0.1,0.6,0.4c0.1,0.3-0.1,0.5-0.4,0.6l-1,0.3
					C158.8,208.1,158.7,208.1,158.7,208.1z M59.3,207.3c0,0-0.1,0-0.1,0l-1-0.3c-0.3-0.1-0.4-0.3-0.4-0.6c0.1-0.3,0.3-0.4,0.6-0.4
					l1,0.3c0.3,0.1,0.4,0.3,0.4,0.6C59.7,207.2,59.5,207.3,59.3,207.3z M162.5,207.1c-0.2,0-0.4-0.1-0.5-0.4
					c-0.1-0.3,0.1-0.5,0.4-0.6l1-0.3c0.3-0.1,0.5,0.1,0.6,0.4c0.1,0.3-0.1,0.5-0.4,0.6l-1,0.3C162.6,207.1,162.6,207.1,162.5,207.1z
					 M55.4,206.3c-0.1,0-0.3,0-0.4-0.1l-0.7-0.7c-0.2-0.2-0.2-0.5,0-0.7s0.5-0.2,0.7,0l0.7,0.7c0.2,0.2,0.2,0.5,0,0.7
					C55.7,206.3,55.6,206.3,55.4,206.3z M166.1,205.6c-0.1,0-0.3,0-0.4-0.1c-0.2-0.2-0.2-0.5,0-0.7l0.7-0.7c0.2-0.2,0.5-0.2,0.7,0
					s0.2,0.5,0,0.7l-0.7,0.7C166.4,205.6,166.3,205.6,166.1,205.6z M52.6,203.5c-0.1,0-0.3,0-0.4-0.1l-0.7-0.7
					c-0.2-0.2-0.2-0.5,0-0.7s0.5-0.2,0.7,0l0.7,0.7c0.2,0.2,0.2,0.5,0,0.7C52.9,203.4,52.7,203.5,52.6,203.5z M169,202.8
					c-0.1,0-0.3,0-0.4-0.1c-0.2-0.2-0.2-0.5,0-0.7l0.7-0.7c0.2-0.2,0.5-0.2,0.7,0s0.2,0.5,0,0.7l-0.7,0.7
					C169.2,202.7,169.1,202.8,169,202.8z M49.8,200.7c-0.1,0-0.3,0-0.4-0.1l-0.7-0.7c-0.2-0.2-0.2-0.5,0-0.7s0.5-0.2,0.7,0l0.7,0.7
					c0.2,0.2,0.2,0.5,0,0.7C50,200.6,49.9,200.7,49.8,200.7z M171.8,200c-0.1,0-0.3,0-0.4-0.1c-0.2-0.2-0.2-0.5,0-0.7l0.7-0.7
					c0.2-0.2,0.5-0.2,0.7,0s0.2,0.5,0,0.7l-0.7,0.7C172,199.9,171.9,200,171.8,200z M46.9,197.8c-0.1,0-0.3,0-0.4-0.1l-0.7-0.7
					c-0.2-0.2-0.2-0.5,0-0.7s0.5-0.2,0.7,0l0.7,0.7c0.2,0.2,0.2,0.5,0,0.7C47.2,197.8,47.1,197.8,46.9,197.8z M174.6,197.1
					c-0.1,0-0.3,0-0.4-0.1c-0.2-0.2-0.2-0.5,0-0.7l0.7-0.7c0.2-0.2,0.5-0.2,0.7,0s0.2,0.5,0,0.7L175,197
					C174.9,197.1,174.7,197.1,174.6,197.1z M44.1,195c-0.1,0-0.3,0-0.4-0.1l-0.7-0.7c-0.2-0.2-0.2-0.5,0-0.7s0.5-0.2,0.7,0l0.7,0.7
					c0.2,0.2,0.2,0.5,0,0.7C44.4,195,44.3,195,44.1,195z M177.4,194.3c-0.1,0-0.3,0-0.4-0.1c-0.2-0.2-0.2-0.5,0-0.7l0.7-0.7
					c0.2-0.2,0.5-0.2,0.7,0s0.2,0.5,0,0.7l-0.7,0.7C177.7,194.3,177.6,194.3,177.4,194.3z M41.3,192.2c-0.1,0-0.3,0-0.4-0.1
					l-0.7-0.7c-0.2-0.2-0.2-0.5,0-0.7s0.5-0.2,0.7,0l0.7,0.7c0.2,0.2,0.2,0.5,0,0.7C41.6,192.1,41.4,192.2,41.3,192.2z M180.3,191.5
					c-0.1,0-0.3,0-0.4-0.1c-0.2-0.2-0.2-0.5,0-0.7l0.7-0.7c0.2-0.2,0.5-0.2,0.7,0s0.2,0.5,0,0.7l-0.7,0.7
					C180.5,191.4,180.4,191.5,180.3,191.5z M38.5,189.4c-0.1,0-0.3,0-0.4-0.1l-0.7-0.7c-0.2-0.2-0.2-0.5,0-0.7s0.5-0.2,0.7,0
					l0.7,0.7c0.2,0.2,0.2,0.5,0,0.7C38.7,189.3,38.6,189.4,38.5,189.4z M183.1,188.7c-0.1,0-0.3,0-0.4-0.1c-0.2-0.2-0.2-0.5,0-0.7
					l0.7-0.7c0.2-0.2,0.5-0.2,0.7,0s0.2,0.5,0,0.7l-0.7,0.7C183.3,188.6,183.2,188.7,183.1,188.7z M35.6,186.5c-0.1,0-0.3,0-0.4-0.1
					l-0.7-0.7c-0.2-0.2-0.2-0.5,0-0.7s0.5-0.2,0.7,0l0.7,0.7c0.2,0.2,0.2,0.5,0,0.7C35.9,186.5,35.8,186.5,35.6,186.5z M185.9,185.8
					c-0.1,0-0.3,0-0.4-0.1c-0.2-0.2-0.2-0.5,0-0.7l0.7-0.7c0.2-0.2,0.5-0.2,0.7,0s0.2,0.5,0,0.7l-0.7,0.7
					C186.2,185.8,186,185.8,185.9,185.8z M32.8,183.7c-0.1,0-0.3,0-0.4-0.1l-0.7-0.7c-0.2-0.2-0.2-0.5,0-0.7s0.5-0.2,0.7,0l0.7,0.7
					c0.2,0.2,0.2,0.5,0,0.7C33.1,183.7,33,183.7,32.8,183.7z M188.7,183c-0.1,0-0.3,0-0.4-0.1c-0.2-0.2-0.2-0.5,0-0.7l0.7-0.7
					c0.2-0.2,0.5-0.2,0.7,0s0.2,0.5,0,0.7l-0.7,0.7C189,182.9,188.9,183,188.7,183z M30,180.9c-0.1,0-0.3,0-0.4-0.1l-0.7-0.7
					c-0.2-0.2-0.2-0.5,0-0.7s0.5-0.2,0.7,0l0.7,0.7c0.2,0.2,0.2,0.5,0,0.7C30.3,180.8,30.1,180.9,30,180.9z M191.6,180.2
					c-0.1,0-0.3,0-0.4-0.1c-0.2-0.2-0.2-0.5,0-0.7l0.7-0.7c0.2-0.2,0.5-0.2,0.7,0s0.2,0.5,0,0.7l-0.7,0.7
					C191.8,180.1,191.7,180.2,191.6,180.2z M27.2,178.1c-0.1,0-0.3,0-0.4-0.1l-0.7-0.7c-0.2-0.2-0.2-0.5,0-0.7s0.5-0.2,0.7,0
					l0.7,0.7c0.2,0.2,0.2,0.5,0,0.7C27.4,178,27.3,178.1,27.2,178.1z M194.4,177.3c-0.1,0-0.3,0-0.4-0.1c-0.2-0.2-0.2-0.5,0-0.7
					l0.7-0.7c0.2-0.2,0.5-0.2,0.7,0s0.2,0.5,0,0.7l-0.7,0.7C194.6,177.3,194.5,177.3,194.4,177.3z M24.3,175.2c-0.1,0-0.3,0-0.4-0.1
					l-0.7-0.7c-0.2-0.2-0.2-0.5,0-0.7s0.5-0.2,0.7,0l0.7,0.7c0.2,0.2,0.2,0.5,0,0.7C24.6,175.2,24.5,175.2,24.3,175.2z M197.2,174.5
					c-0.1,0-0.3,0-0.4-0.1c-0.2-0.2-0.2-0.5,0-0.7l0.7-0.7c0.2-0.2,0.5-0.2,0.7,0s0.2,0.5,0,0.7l-0.7,0.7
					C197.5,174.5,197.3,174.5,197.2,174.5z M21.5,172.4c-0.1,0-0.3,0-0.4-0.1l-0.7-0.7c-0.2-0.2-0.2-0.5,0-0.7s0.5-0.2,0.7,0
					l0.7,0.7c0.2,0.2,0.2,0.5,0,0.7C21.8,172.4,21.6,172.4,21.5,172.4z M200,171.7c-0.1,0-0.3,0-0.4-0.1c-0.2-0.2-0.2-0.5,0-0.7
					l0.7-0.7c0.2-0.2,0.5-0.2,0.7,0s0.2,0.5,0,0.7l-0.7,0.7C200.3,171.6,200.2,171.7,200,171.7z M18.7,169.6c-0.1,0-0.3,0-0.4-0.1
					l-0.7-0.7c-0.2-0.2-0.2-0.5,0-0.7s0.5-0.2,0.7,0l0.7,0.7c0.2,0.2,0.2,0.5,0,0.7C19,169.5,18.8,169.6,18.7,169.6z M202.9,168.9
					c-0.1,0-0.3,0-0.4-0.1c-0.2-0.2-0.2-0.5,0-0.7l0.7-0.7c0.2-0.2,0.5-0.2,0.7,0s0.2,0.5,0,0.7l-0.7,0.7
					C203.1,168.8,203,168.9,202.9,168.9z M15.9,166.8c-0.1,0-0.3,0-0.4-0.1l-0.8-0.8l0-0.1c-0.1-0.3,0.1-0.5,0.4-0.6
					c0.2,0,0.4,0,0.5,0.2l0.7,0.7c0.2,0.2,0.2,0.5,0,0.7C16.1,166.7,16,166.8,15.9,166.8z M205.7,166c0,0-0.1,0-0.1,0
					c-0.3-0.1-0.4-0.3-0.4-0.6l0.3-1c0.1-0.3,0.3-0.4,0.6-0.4c0.3,0.1,0.4,0.3,0.4,0.6l-0.3,1C206.1,165.9,205.9,166,205.7,166z
					 M14.4,163.2c-0.2,0-0.4-0.1-0.5-0.4l-0.3-1c-0.1-0.3,0.1-0.5,0.4-0.6c0.3-0.1,0.5,0.1,0.6,0.4l0.3,1c0.1,0.3-0.1,0.5-0.4,0.6
					C14.5,163.1,14.4,163.2,14.4,163.2z M206.7,162.2c0,0-0.1,0-0.1,0c-0.3-0.1-0.4-0.3-0.4-0.6l0.3-1c0.1-0.3,0.3-0.4,0.6-0.4
					c0.3,0.1,0.4,0.3,0.4,0.6l-0.3,1C207.1,162,206.9,162.2,206.7,162.2z M13.4,159.3c-0.2,0-0.4-0.1-0.5-0.4l-0.3-1
					c-0.1-0.3,0.1-0.5,0.4-0.6c0.3-0.1,0.5,0.1,0.6,0.4l0.3,1c0.1,0.3-0.1,0.5-0.4,0.6C13.4,159.3,13.4,159.3,13.4,159.3z
					 M207.8,158.3c0,0-0.1,0-0.1,0c-0.3-0.1-0.4-0.3-0.4-0.6l0.3-1c0.1-0.3,0.3-0.4,0.6-0.4c0.3,0.1,0.4,0.3,0.4,0.6l-0.3,1
					C208.2,158.2,208,158.3,207.8,158.3z M12.3,155.4c-0.2,0-0.4-0.1-0.5-0.4l-0.3-1c-0.1-0.3,0.1-0.5,0.4-0.6
					c0.3-0.1,0.5,0.1,0.6,0.4l0.3,1c0.1,0.3-0.1,0.5-0.4,0.6C12.4,155.4,12.4,155.4,12.3,155.4z M208.8,154.5c0,0-0.1,0-0.1,0
					c-0.3-0.1-0.4-0.3-0.4-0.6l0.3-1c0.1-0.3,0.3-0.4,0.6-0.4c0.3,0.1,0.4,0.3,0.4,0.6l-0.3,1C209.2,154.3,209,154.5,208.8,154.5z
					 M11.3,151.6c-0.2,0-0.4-0.1-0.5-0.4l-0.3-1c-0.1-0.3,0.1-0.5,0.4-0.6c0.3-0.1,0.5,0.1,0.6,0.4l0.3,1c0.1,0.3-0.1,0.5-0.4,0.6
					C11.4,151.6,11.3,151.6,11.3,151.6z M209.8,150.6c0,0-0.1,0-0.1,0c-0.3-0.1-0.4-0.3-0.4-0.6l0.3-1c0.1-0.3,0.3-0.4,0.6-0.4
					c0.3,0.1,0.4,0.3,0.4,0.6l-0.3,1C210.2,150.5,210,150.6,209.8,150.6z M10.3,147.7c-0.2,0-0.4-0.1-0.5-0.4l-0.3-1
					c-0.1-0.3,0.1-0.5,0.4-0.6c0.3-0.1,0.5,0.1,0.6,0.4l0.3,1c0.1,0.3-0.1,0.5-0.4,0.6C10.3,147.7,10.3,147.7,10.3,147.7z
					 M210.9,146.7c0,0-0.1,0-0.1,0c-0.3-0.1-0.4-0.3-0.4-0.6l0.3-1c0.1-0.3,0.3-0.4,0.6-0.4c0.3,0.1,0.4,0.3,0.4,0.6l-0.3,1
					C211.3,146.6,211.1,146.7,210.9,146.7z M9.2,143.9c-0.2,0-0.4-0.1-0.5-0.4l-0.3-1c-0.1-0.3,0.1-0.5,0.4-0.6
					c0.3-0.1,0.5,0.1,0.6,0.4l0.3,1c0.1,0.3-0.1,0.5-0.4,0.6C9.3,143.8,9.3,143.9,9.2,143.9z M211.9,142.9c0,0-0.1,0-0.1,0
					c-0.3-0.1-0.4-0.3-0.4-0.6l0.3-1c0.1-0.3,0.3-0.4,0.6-0.4c0.3,0.1,0.4,0.3,0.4,0.6l-0.3,1C212.3,142.7,212.1,142.9,211.9,142.9z
					 M8.2,140c-0.2,0-0.4-0.1-0.5-0.4l-0.3-1c-0.1-0.3,0.1-0.5,0.4-0.6c0.3-0.1,0.5,0.1,0.6,0.4l0.3,1c0.1,0.3-0.1,0.5-0.4,0.6
					C8.3,140,8.2,140,8.2,140z M212.9,139c0,0-0.1,0-0.1,0c-0.3-0.1-0.4-0.3-0.4-0.6l0.3-1c0.1-0.3,0.3-0.4,0.6-0.4
					c0.3,0.1,0.4,0.3,0.4,0.6l-0.3,1C213.3,138.9,213.1,139,212.9,139z M7.2,136.1c-0.2,0-0.4-0.1-0.5-0.4l-0.3-1
					c-0.1-0.3,0.1-0.5,0.4-0.6c0.3-0.1,0.5,0.1,0.6,0.4l0.3,1c0.1,0.3-0.1,0.5-0.4,0.6C7.2,136.1,7.2,136.1,7.2,136.1z M214,135.2
					c0,0-0.1,0-0.1,0c-0.3-0.1-0.4-0.3-0.4-0.6l0.3-1c0.1-0.3,0.3-0.4,0.6-0.4c0.3,0.1,0.4,0.3,0.4,0.6l-0.3,1
					C214.4,135,214.2,135.2,214,135.2z M6.1,132.3c-0.2,0-0.4-0.1-0.5-0.4l-0.3-1c-0.1-0.3,0.1-0.5,0.4-0.6c0.3-0.1,0.5,0.1,0.6,0.4
					l0.3,1c0.1,0.3-0.1,0.5-0.4,0.6C6.2,132.3,6.2,132.3,6.1,132.3z M215,131.3c0,0-0.1,0-0.1,0c-0.3-0.1-0.4-0.3-0.4-0.6l0.3-1
					c0.1-0.3,0.3-0.4,0.6-0.4c0.3,0.1,0.4,0.3,0.4,0.6l-0.3,1C215.4,131.2,215.2,131.3,215,131.3z M5.1,128.4
					c-0.2,0-0.4-0.1-0.5-0.4l-0.3-1c-0.1-0.3,0.1-0.5,0.4-0.6c0.3-0.1,0.5,0.1,0.6,0.4l0.3,1c0.1,0.3-0.1,0.5-0.4,0.6
					C5.2,128.4,5.1,128.4,5.1,128.4z M216,127.4c0,0-0.1,0-0.1,0c-0.3-0.1-0.4-0.3-0.4-0.6l0.3-1c0.1-0.3,0.3-0.4,0.6-0.4
					c0.3,0.1,0.4,0.3,0.4,0.6l-0.3,1C216.4,127.3,216.2,127.4,216,127.4z M4,124.6c-0.2,0-0.4-0.1-0.5-0.4l-0.3-1
					c-0.1-0.3,0.1-0.5,0.4-0.6c0.3-0.1,0.5,0.1,0.6,0.4l0.3,1c0.1,0.3-0.1,0.5-0.4,0.6C4.1,124.5,4.1,124.6,4,124.6z M217.1,123.6
					c0,0-0.1,0-0.1,0c-0.3-0.1-0.4-0.3-0.4-0.6l0.3-1c0.1-0.3,0.3-0.4,0.6-0.4c0.3,0.1,0.4,0.3,0.4,0.6l-0.3,1
					C217.5,123.4,217.3,123.6,217.1,123.6z M3,120.7c-0.2,0-0.4-0.1-0.5-0.4l-0.3-1c-0.1-0.3,0.1-0.5,0.4-0.6
					c0.3-0.1,0.5,0.1,0.6,0.4l0.3,1c0.1,0.3-0.1,0.5-0.4,0.6C3.1,120.7,3.1,120.7,3,120.7z M218.1,119.7c0,0-0.1,0-0.1,0
					c-0.3-0.1-0.4-0.3-0.4-0.6l0.3-1c0.1-0.3,0.3-0.4,0.6-0.4c0.3,0.1,0.4,0.3,0.4,0.6l-0.3,1C218.5,119.6,218.3,119.7,218.1,119.7z
					 M2,116.8c-0.2,0-0.4-0.1-0.5-0.4l-0.3-1c-0.1-0.3,0.1-0.5,0.4-0.6c0.3-0.1,0.5,0.1,0.6,0.4l0.3,1c0.1,0.3-0.1,0.5-0.4,0.6
					C2.1,116.8,2,116.8,2,116.8z M219.1,115.9c0,0-0.1,0-0.1,0c-0.3-0.1-0.4-0.3-0.4-0.6l0.3-1c0.1-0.3,0.3-0.4,0.6-0.4
					c0.3,0.1,0.4,0.3,0.4,0.6l-0.3,1C219.5,115.7,219.3,115.9,219.1,115.9z M0.9,113c-0.2,0-0.4-0.1-0.5-0.4l-0.3-1
					c-0.1-0.3,0.1-0.5,0.4-0.6c0.3-0.1,0.5,0.1,0.6,0.4l0.3,1c0.1,0.3-0.1,0.5-0.4,0.6C1,113,1,113,0.9,113z M220.2,112
					c0,0-0.1,0-0.1,0c-0.3-0.1-0.4-0.3-0.4-0.6l0.3-1c0.1-0.3,0.3-0.4,0.6-0.4c0.3,0.1,0.4,0.3,0.4,0.6l-0.3,1
					C220.6,111.9,220.4,112,220.2,112z M0.9,109.1c0,0-0.1,0-0.1,0c-0.3-0.1-0.4-0.3-0.4-0.6l0.3-1c0.1-0.3,0.3-0.4,0.6-0.4
					c0.3,0.1,0.4,0.3,0.4,0.6l-0.3,1C1.4,109,1.2,109.1,0.9,109.1z M219.6,108.2c-0.2,0-0.4-0.1-0.5-0.4l-0.3-1
					c-0.1-0.3,0.1-0.5,0.4-0.6c0.3-0.1,0.5,0.1,0.6,0.4l0.3,1c0.1,0.3-0.1,0.5-0.4,0.6C219.7,108.1,219.7,108.2,219.6,108.2z
					 M2,105.3c0,0-0.1,0-0.1,0c-0.3-0.1-0.4-0.3-0.4-0.6l0.3-1c0.1-0.3,0.3-0.4,0.6-0.4c0.3,0.1,0.4,0.3,0.4,0.6l-0.3,1
					C2.4,105.1,2.2,105.3,2,105.3z M218.6,104.3c-0.2,0-0.4-0.1-0.5-0.4l-0.3-1c-0.1-0.3,0.1-0.5,0.4-0.6c0.3-0.1,0.5,0.1,0.6,0.4
					l0.3,1c0.1,0.3-0.1,0.5-0.4,0.6C218.7,104.3,218.7,104.3,218.6,104.3z M3,101.4c0,0-0.1,0-0.1,0c-0.3-0.1-0.4-0.3-0.4-0.6l0.3-1
					c0.1-0.3,0.3-0.4,0.6-0.4c0.3,0.1,0.4,0.3,0.4,0.6l-0.3,1C3.4,101.2,3.2,101.4,3,101.4z M217.6,100.4c-0.2,0-0.4-0.1-0.5-0.4
					l-0.3-1c-0.1-0.3,0.1-0.5,0.4-0.6c0.3-0.1,0.5,0.1,0.6,0.4l0.3,1c0.1,0.3-0.1,0.5-0.4,0.6C217.7,100.4,217.6,100.4,217.6,100.4z
					 M4,97.5c0,0-0.1,0-0.1,0c-0.3-0.1-0.4-0.3-0.4-0.6l0.3-1c0.1-0.3,0.3-0.4,0.6-0.4c0.3,0.1,0.4,0.3,0.4,0.6l-0.3,1
					C4.5,97.4,4.3,97.5,4,97.5z M216.5,96.6c-0.2,0-0.4-0.1-0.5-0.4l-0.3-1c-0.1-0.3,0.1-0.5,0.4-0.6c0.3-0.1,0.5,0.1,0.6,0.4l0.3,1
					c0.1,0.3-0.1,0.5-0.4,0.6C216.6,96.6,216.6,96.6,216.5,96.6z M5.1,93.7c0,0-0.1,0-0.1,0c-0.3-0.1-0.4-0.3-0.4-0.6l0.3-1
					c0.1-0.3,0.3-0.4,0.6-0.4c0.3,0.1,0.4,0.3,0.4,0.6l-0.3,1C5.5,93.5,5.3,93.7,5.1,93.7z M215.5,92.7c-0.2,0-0.4-0.1-0.5-0.4
					l-0.3-1c-0.1-0.3,0.1-0.5,0.4-0.6c0.3-0.1,0.5,0.1,0.6,0.4l0.3,1c0.1,0.3-0.1,0.5-0.4,0.6C215.6,92.7,215.5,92.7,215.5,92.7z
					 M6.1,89.8c0,0-0.1,0-0.1,0c-0.3-0.1-0.4-0.3-0.4-0.6l0.3-1C6,88,6.2,87.8,6.5,87.9c0.3,0.1,0.4,0.3,0.4,0.6l-0.3,1
					C6.5,89.7,6.3,89.8,6.1,89.8z M214.5,88.9c-0.2,0-0.4-0.1-0.5-0.4l-0.3-1c-0.1-0.3,0.1-0.5,0.4-0.6c0.3-0.1,0.5,0.1,0.6,0.4
					l0.3,1c0.1,0.3-0.1,0.5-0.4,0.6C214.6,88.8,214.5,88.9,214.5,88.9z M7.2,86c0,0-0.1,0-0.1,0c-0.3-0.1-0.4-0.3-0.4-0.6l0.3-1
					C7,84.1,7.3,83.9,7.5,84c0.3,0.1,0.4,0.3,0.4,0.6l-0.3,1C7.6,85.8,7.4,86,7.2,86z M213.4,85c-0.2,0-0.4-0.1-0.5-0.4l-0.3-1
					c-0.1-0.3,0.1-0.5,0.4-0.6c0.3-0.1,0.5,0.1,0.6,0.4l0.3,1c0.1,0.3-0.1,0.5-0.4,0.6C213.5,85,213.5,85,213.4,85z M8.2,82.1
					c0,0-0.1,0-0.1,0c-0.3-0.1-0.4-0.3-0.4-0.6l0.3-1c0.1-0.3,0.3-0.4,0.6-0.4c0.3,0.1,0.4,0.3,0.4,0.6l-0.3,1
					C8.6,82,8.4,82.1,8.2,82.1z M212.4,81.1c-0.2,0-0.4-0.1-0.5-0.4l-0.3-1c-0.1-0.3,0.1-0.5,0.4-0.6c0.3-0.1,0.5,0.1,0.6,0.4l0.3,1
					c0.1,0.3-0.1,0.5-0.4,0.6C212.5,81.1,212.4,81.1,212.4,81.1z M9.2,78.2c0,0-0.1,0-0.1,0c-0.3-0.1-0.4-0.3-0.4-0.6l0.3-1
					c0.1-0.3,0.3-0.4,0.6-0.4c0.3,0.1,0.4,0.3,0.4,0.6l-0.3,1C9.6,78.1,9.4,78.2,9.2,78.2z M211.4,77.3c-0.2,0-0.4-0.1-0.5-0.4
					l-0.3-1c-0.1-0.3,0.1-0.5,0.4-0.6c0.3-0.1,0.5,0.1,0.6,0.4l0.3,1c0.1,0.3-0.1,0.5-0.4,0.6C211.5,77.3,211.4,77.3,211.4,77.3z
					 M10.3,74.4c0,0-0.1,0-0.1,0c-0.3-0.1-0.4-0.3-0.4-0.6l0.3-1c0.1-0.3,0.3-0.4,0.6-0.4c0.3,0.1,0.4,0.3,0.4,0.6l-0.3,1
					C10.7,74.2,10.5,74.4,10.3,74.4z M210.3,73.4c-0.2,0-0.4-0.1-0.5-0.4l-0.3-1c-0.1-0.3,0.1-0.5,0.4-0.6c0.3-0.1,0.5,0.1,0.6,0.4
					l0.3,1c0.1,0.3-0.1,0.5-0.4,0.6C210.4,73.4,210.4,73.4,210.3,73.4z M11.3,70.5c0,0-0.1,0-0.1,0c-0.3-0.1-0.4-0.3-0.4-0.6l0.3-1
					c0.1-0.3,0.3-0.4,0.6-0.4c0.3,0.1,0.4,0.3,0.4,0.6l-0.3,1C11.7,70.4,11.5,70.5,11.3,70.5z M209.3,69.6c-0.2,0-0.4-0.1-0.5-0.4
					l-0.3-1c-0.1-0.3,0.1-0.5,0.4-0.6c0.3-0.1,0.5,0.1,0.6,0.4l0.3,1c0.1,0.3-0.1,0.5-0.4,0.6C209.4,69.5,209.3,69.6,209.3,69.6z
					 M12.3,66.7c0,0-0.1,0-0.1,0c-0.3-0.1-0.4-0.3-0.4-0.6l0.3-1c0.1-0.3,0.3-0.4,0.6-0.4c0.3,0.1,0.4,0.3,0.4,0.6l-0.3,1
					C12.7,66.5,12.5,66.7,12.3,66.7z M208.3,65.7c-0.2,0-0.4-0.1-0.5-0.4l-0.3-1c-0.1-0.3,0.1-0.5,0.4-0.6c0.3-0.1,0.5,0.1,0.6,0.4
					l0.3,1c0.1,0.3-0.1,0.5-0.4,0.6C208.4,65.7,208.3,65.7,208.3,65.7z M13.4,62.8c0,0-0.1,0-0.1,0c-0.3-0.1-0.4-0.3-0.4-0.6l0.3-1
					c0.1-0.3,0.3-0.4,0.6-0.4c0.3,0.1,0.4,0.3,0.4,0.6l-0.3,1C13.8,62.7,13.6,62.8,13.4,62.8z M207.2,61.8c-0.2,0-0.4-0.1-0.5-0.4
					l-0.3-1c-0.1-0.3,0.1-0.5,0.4-0.6c0.3-0.1,0.5,0.1,0.6,0.4l0.3,1c0.1,0.3-0.1,0.5-0.4,0.6C207.3,61.8,207.3,61.8,207.2,61.8z
					 M14.4,58.9c0,0-0.1,0-0.1,0c-0.3-0.1-0.4-0.3-0.4-0.6l0.3-1c0.1-0.3,0.3-0.4,0.6-0.4c0.3,0.1,0.4,0.3,0.4,0.6l-0.3,1
					C14.8,58.8,14.6,58.9,14.4,58.9z M206.2,58c-0.2,0-0.4-0.1-0.5-0.4l-0.3-1c-0.1-0.3,0.1-0.5,0.4-0.6c0.3-0.1,0.5,0.1,0.6,0.4
					l0.3,1c0.1,0.3-0.1,0.5-0.4,0.6C206.3,58,206.2,58,206.2,58z M15.9,55.3c-0.1,0-0.3,0-0.4-0.1c-0.2-0.2-0.2-0.5,0-0.7l0.7-0.7
					c0.2-0.2,0.5-0.2,0.7,0c0.2,0.2,0.2,0.5,0,0.7l-0.7,0.7C16.1,55.3,16,55.3,15.9,55.3z M204.3,54.6c-0.1,0-0.3,0-0.4-0.1
					l-0.7-0.7c-0.2-0.2-0.2-0.5,0-0.7c0.2-0.2,0.5-0.2,0.7,0l0.7,0.7c0.2,0.2,0.2,0.5,0,0.7C204.5,54.6,204.4,54.6,204.3,54.6z
					 M18.7,52.5c-0.1,0-0.3,0-0.4-0.1c-0.2-0.2-0.2-0.5,0-0.7L19,51c0.2-0.2,0.5-0.2,0.7,0s0.2,0.5,0,0.7L19,52.4
					C19,52.5,18.8,52.5,18.7,52.5z M201.4,51.8c-0.1,0-0.3,0-0.4-0.1l-0.7-0.7c-0.2-0.2-0.2-0.5,0-0.7s0.5-0.2,0.7,0l0.7,0.7
					c0.2,0.2,0.2,0.5,0,0.7C201.7,51.8,201.6,51.8,201.4,51.8z M21.5,49.7c-0.1,0-0.3,0-0.4-0.1c-0.2-0.2-0.2-0.5,0-0.7l0.7-0.7
					c0.2-0.2,0.5-0.2,0.7,0s0.2,0.5,0,0.7l-0.7,0.7C21.8,49.6,21.6,49.7,21.5,49.7z M198.6,49c-0.1,0-0.3,0-0.4-0.1l-0.7-0.7
					c-0.2-0.2-0.2-0.5,0-0.7s0.5-0.2,0.7,0l0.7,0.7c0.2,0.2,0.2,0.5,0,0.7C198.9,48.9,198.8,49,198.6,49z M24.3,46.9
					c-0.1,0-0.3,0-0.4-0.1c-0.2-0.2-0.2-0.5,0-0.7l0.7-0.7c0.2-0.2,0.5-0.2,0.7,0c0.2,0.2,0.2,0.5,0,0.7l-0.7,0.7
					C24.6,46.8,24.5,46.9,24.3,46.9z M195.8,46.2c-0.1,0-0.3,0-0.4-0.1l-0.7-0.7c-0.2-0.2-0.2-0.5,0-0.7s0.5-0.2,0.7,0l0.7,0.7
					c0.2,0.2,0.2,0.5,0,0.7C196.1,46.1,195.9,46.2,195.8,46.2z M27.2,44c-0.1,0-0.3,0-0.4-0.1c-0.2-0.2-0.2-0.5,0-0.7l0.7-0.7
					c0.2-0.2,0.5-0.2,0.7,0s0.2,0.5,0,0.7l-0.7,0.7C27.4,44,27.3,44,27.2,44z M193,43.3c-0.1,0-0.3,0-0.4-0.1l-0.7-0.7
					c-0.2-0.2-0.2-0.5,0-0.7c0.2-0.2,0.5-0.2,0.7,0l0.7,0.7c0.2,0.2,0.2,0.5,0,0.7C193.2,43.3,193.1,43.3,193,43.3z M30,41.2
					c-0.1,0-0.3,0-0.4-0.1c-0.2-0.2-0.2-0.5,0-0.7l0.7-0.7c0.2-0.2,0.5-0.2,0.7,0s0.2,0.5,0,0.7l-0.7,0.7
					C30.3,41.2,30.1,41.2,30,41.2z M190.1,40.5c-0.1,0-0.3,0-0.4-0.1l-0.7-0.7c-0.2-0.2-0.2-0.5,0-0.7s0.5-0.2,0.7,0l0.7,0.7
					c0.2,0.2,0.2,0.5,0,0.7C190.4,40.5,190.3,40.5,190.1,40.5z M32.8,38.4c-0.1,0-0.3,0-0.4-0.1c-0.2-0.2-0.2-0.5,0-0.7l0.7-0.7
					c0.2-0.2,0.5-0.2,0.7,0c0.2,0.2,0.2,0.5,0,0.7l-0.7,0.7C33.1,38.3,33,38.4,32.8,38.4z M187.3,37.7c-0.1,0-0.3,0-0.4-0.1
					l-0.7-0.7c-0.2-0.2-0.2-0.5,0-0.7c0.2-0.2,0.5-0.2,0.7,0l0.7,0.7c0.2,0.2,0.2,0.5,0,0.7C187.6,37.6,187.4,37.7,187.3,37.7z
					 M35.6,35.6c-0.1,0-0.3,0-0.4-0.1c-0.2-0.2-0.2-0.5,0-0.7L36,34c0.2-0.2,0.5-0.2,0.7,0s0.2,0.5,0,0.7L36,35.4
					C35.9,35.5,35.8,35.6,35.6,35.6z M184.5,34.9c-0.1,0-0.3,0-0.4-0.1l-0.7-0.7c-0.2-0.2-0.2-0.5,0-0.7c0.2-0.2,0.5-0.2,0.7,0
					l0.7,0.7c0.2,0.2,0.2,0.5,0,0.7C184.8,34.8,184.6,34.9,184.5,34.9z M38.5,32.7c-0.1,0-0.3,0-0.4-0.1c-0.2-0.2-0.2-0.5,0-0.7
					l0.7-0.7c0.2-0.2,0.5-0.2,0.7,0s0.2,0.5,0,0.7l-0.7,0.7C38.7,32.7,38.6,32.7,38.5,32.7z M181.7,32c-0.1,0-0.3,0-0.4-0.1
					l-0.7-0.7c-0.2-0.2-0.2-0.5,0-0.7c0.2-0.2,0.5-0.2,0.7,0l0.7,0.7c0.2,0.2,0.2,0.5,0,0.7C181.9,32,181.8,32,181.7,32z M41.3,29.9
					c-0.1,0-0.3,0-0.4-0.1c-0.2-0.2-0.2-0.5,0-0.7l0.7-0.7c0.2-0.2,0.5-0.2,0.7,0c0.2,0.2,0.2,0.5,0,0.7l-0.7,0.7
					C41.6,29.9,41.4,29.9,41.3,29.9z M178.8,29.2c-0.1,0-0.3,0-0.4-0.1l-0.7-0.7c-0.2-0.2-0.2-0.5,0-0.7c0.2-0.2,0.5-0.2,0.7,0
					l0.7,0.7c0.2,0.2,0.2,0.5,0,0.7C179.1,29.2,179,29.2,178.8,29.2z M44.1,27.1c-0.1,0-0.3,0-0.4-0.1c-0.2-0.2-0.2-0.5,0-0.7
					l0.7-0.7c0.2-0.2,0.5-0.2,0.7,0c0.2,0.2,0.2,0.5,0,0.7l-0.7,0.7C44.4,27,44.3,27.1,44.1,27.1z M176,26.4c-0.1,0-0.3,0-0.4-0.1
					l-0.7-0.7c-0.2-0.2-0.2-0.5,0-0.7s0.5-0.2,0.7,0l0.7,0.7c0.2,0.2,0.2,0.5,0,0.7C176.3,26.3,176.1,26.4,176,26.4z M46.9,24.3
					c-0.1,0-0.3,0-0.4-0.1c-0.2-0.2-0.2-0.5,0-0.7l0.7-0.7c0.2-0.2,0.5-0.2,0.7,0s0.2,0.5,0,0.7l-0.7,0.7
					C47.2,24.2,47.1,24.3,46.9,24.3z M173.2,23.6c-0.1,0-0.3,0-0.4-0.1l-0.7-0.7c-0.2-0.2-0.2-0.5,0-0.7c0.2-0.2,0.5-0.2,0.7,0
					l0.7,0.7c0.2,0.2,0.2,0.5,0,0.7C173.4,23.5,173.3,23.6,173.2,23.6z M49.8,21.4c-0.1,0-0.3,0-0.4-0.1c-0.2-0.2-0.2-0.5,0-0.7
					l0.7-0.7c0.2-0.2,0.5-0.2,0.7,0s0.2,0.5,0,0.7l-0.7,0.7C50,21.4,49.9,21.4,49.8,21.4z M170.4,20.7c-0.1,0-0.3,0-0.4-0.1
					l-0.7-0.7c-0.2-0.2-0.2-0.5,0-0.7s0.5-0.2,0.7,0l0.7,0.7c0.2,0.2,0.2,0.5,0,0.7C170.6,20.7,170.5,20.7,170.4,20.7z M52.6,18.6
					c-0.1,0-0.3,0-0.4-0.1c-0.2-0.2-0.2-0.5,0-0.7L53,17c0.2-0.2,0.5-0.2,0.7,0c0.2,0.2,0.2,0.5,0,0.7L53,18.5
					C52.9,18.6,52.7,18.6,52.6,18.6z M167.5,17.9c-0.1,0-0.3,0-0.4-0.1l-0.7-0.7c-0.2-0.2-0.2-0.5,0-0.7c0.2-0.2,0.5-0.2,0.7,0
					l0.7,0.7c0.2,0.2,0.2,0.5,0,0.7C167.8,17.9,167.7,17.9,167.5,17.9z M55.4,15.8c-0.2,0-0.4-0.1-0.5-0.4c-0.1-0.3,0.1-0.5,0.4-0.6
					l1-0.3l0.3,1l-1,0.3C55.5,15.8,55.5,15.8,55.4,15.8z M164.5,15.5c0,0-0.1,0-0.1,0l-1-0.3c-0.3-0.1-0.4-0.3-0.4-0.6
					c0.1-0.3,0.4-0.4,0.6-0.4l1,0.3c0.3,0.1,0.4,0.3,0.4,0.6C164.9,15.4,164.7,15.5,164.5,15.5z M59.3,14.7c-0.2,0-0.4-0.1-0.5-0.4
					c-0.1-0.3,0.1-0.5,0.4-0.6l1-0.3c0.3-0.1,0.5,0.1,0.6,0.4c0.1,0.3-0.1,0.5-0.4,0.6l-1,0.3C59.4,14.7,59.3,14.7,59.3,14.7z
					 M160.6,14.5c0,0-0.1,0-0.1,0l-1-0.3c-0.3-0.1-0.4-0.3-0.4-0.6c0.1-0.3,0.3-0.4,0.6-0.4l1,0.3c0.3,0.1,0.4,0.3,0.4,0.6
					C161,14.3,160.8,14.5,160.6,14.5z M63.1,13.7c-0.2,0-0.4-0.1-0.5-0.4c-0.1-0.3,0.1-0.5,0.4-0.6l1-0.3c0.3-0.1,0.5,0.1,0.6,0.4
					c0.1,0.3-0.1,0.5-0.4,0.6l-1,0.3C63.2,13.7,63.2,13.7,63.1,13.7z M156.7,13.5c0,0-0.1,0-0.1,0l-1-0.3c-0.3-0.1-0.4-0.3-0.4-0.6
					c0.1-0.3,0.3-0.4,0.6-0.4l1,0.3c0.3,0.1,0.4,0.3,0.4,0.6C157.2,13.3,157,13.5,156.7,13.5z M67,12.7c-0.2,0-0.4-0.1-0.5-0.4
					c-0.1-0.3,0.1-0.5,0.4-0.6l1-0.3c0.3-0.1,0.5,0.1,0.6,0.4c0.1,0.3-0.1,0.5-0.4,0.6l-1,0.3C67.1,12.7,67,12.7,67,12.7z
					 M152.9,12.4c0,0-0.1,0-0.1,0l-1-0.3c-0.3-0.1-0.4-0.3-0.4-0.6c0.1-0.3,0.3-0.4,0.6-0.4l1,0.3c0.3,0.1,0.4,0.3,0.4,0.6
					C153.3,12.3,153.1,12.4,152.9,12.4z M70.9,11.6c-0.2,0-0.4-0.1-0.5-0.4c-0.1-0.3,0.1-0.5,0.4-0.6l1-0.3c0.3-0.1,0.5,0.1,0.6,0.4
					c0.1,0.3-0.1,0.5-0.4,0.6l-1,0.3C70.9,11.6,70.9,11.6,70.9,11.6z M149,11.4c0,0-0.1,0-0.1,0l-1-0.3c-0.3-0.1-0.4-0.3-0.4-0.6
					c0.1-0.3,0.3-0.4,0.6-0.4l1,0.3c0.3,0.1,0.4,0.3,0.4,0.6C149.4,11.2,149.2,11.4,149,11.4z M74.7,10.6c-0.2,0-0.4-0.1-0.5-0.4
					c-0.1-0.3,0.1-0.5,0.4-0.6l1-0.3c0.3-0.1,0.5,0.1,0.6,0.4c0.1,0.3-0.1,0.5-0.4,0.6l-1,0.3C74.8,10.6,74.8,10.6,74.7,10.6z
					 M145.2,10.4c0,0-0.1,0-0.1,0l-1-0.3c-0.3-0.1-0.4-0.3-0.4-0.6c0.1-0.3,0.3-0.4,0.6-0.4l1,0.3c0.3,0.1,0.4,0.3,0.4,0.6
					C145.6,10.2,145.4,10.4,145.2,10.4z M78.6,9.6c-0.2,0-0.4-0.1-0.5-0.4c-0.1-0.3,0.1-0.5,0.4-0.6l1-0.3C79.7,8.3,80,8.4,80,8.7
					c0.1,0.3-0.1,0.5-0.4,0.6l-1,0.3C78.7,9.6,78.6,9.6,78.6,9.6z M141.3,9.3c0,0-0.1,0-0.1,0l-1-0.3c-0.3-0.1-0.4-0.3-0.4-0.6
					c0.1-0.3,0.3-0.4,0.6-0.4l1,0.3c0.3,0.1,0.4,0.3,0.4,0.6C141.7,9.2,141.5,9.3,141.3,9.3z M82.4,8.5c-0.2,0-0.4-0.1-0.5-0.4
					c-0.1-0.3,0.1-0.5,0.4-0.6l1-0.3c0.3-0.1,0.5,0.1,0.6,0.4c0.1,0.3-0.1,0.5-0.4,0.6l-1,0.3C82.5,8.5,82.5,8.5,82.4,8.5z
					 M137.4,8.3c0,0-0.1,0-0.1,0l-1-0.3c-0.3-0.1-0.4-0.3-0.4-0.6c0.1-0.3,0.4-0.4,0.6-0.4l1,0.3c0.3,0.1,0.4,0.3,0.4,0.6
					C137.9,8.1,137.7,8.3,137.4,8.3z M86.3,7.5c-0.2,0-0.4-0.1-0.5-0.4c-0.1-0.3,0.1-0.5,0.4-0.6l1-0.3c0.3-0.1,0.5,0.1,0.6,0.4
					s-0.1,0.5-0.4,0.6l-1,0.3C86.4,7.5,86.3,7.5,86.3,7.5z M133.6,7.2c0,0-0.1,0-0.1,0l-1-0.3c-0.3-0.1-0.4-0.3-0.4-0.6
					c0.1-0.3,0.3-0.4,0.6-0.4l1,0.3c0.3,0.1,0.4,0.3,0.4,0.6C134,7.1,133.8,7.2,133.6,7.2z M90.2,6.5c-0.2,0-0.4-0.1-0.5-0.4
					c-0.1-0.3,0.1-0.5,0.4-0.6l1-0.3c0.3-0.1,0.5,0.1,0.6,0.4c0.1,0.3-0.1,0.5-0.4,0.6l-1,0.3C90.2,6.5,90.2,6.5,90.2,6.5z
					 M129.7,6.2c0,0-0.1,0-0.1,0l-1-0.3c-0.3-0.1-0.4-0.3-0.4-0.6c0.1-0.3,0.3-0.4,0.6-0.4l1,0.3c0.3,0.1,0.4,0.3,0.4,0.6
					C130.1,6.1,129.9,6.2,129.7,6.2z M94,5.4c-0.2,0-0.4-0.1-0.5-0.4c-0.1-0.3,0.1-0.5,0.4-0.6l1-0.3c0.3-0.1,0.5,0.1,0.6,0.4
					c0.1,0.3-0.1,0.5-0.4,0.6l-1,0.3C94.1,5.4,94.1,5.4,94,5.4z M125.9,5.2c0,0-0.1,0-0.1,0l-1-0.3c-0.3-0.1-0.4-0.3-0.4-0.6
					c0.1-0.3,0.3-0.4,0.6-0.4l1,0.3c0.3,0.1,0.4,0.3,0.4,0.6C126.3,5,126.1,5.2,125.9,5.2z M97.9,4.4c-0.2,0-0.4-0.1-0.5-0.4
					c-0.1-0.3,0.1-0.5,0.4-0.6l1-0.3c0.3-0.1,0.5,0.1,0.6,0.4c0.1,0.3-0.1,0.5-0.4,0.6l-1,0.3C98,4.4,97.9,4.4,97.9,4.4z M122,4.1
					c0,0-0.1,0-0.1,0l-1-0.3c-0.3-0.1-0.4-0.3-0.4-0.6c0.1-0.3,0.3-0.4,0.6-0.4l1,0.3c0.3,0.1,0.4,0.3,0.4,0.6
					C122.4,4,122.2,4.1,122,4.1z M101.7,3.4c-0.2,0-0.4-0.1-0.5-0.4c-0.1-0.3,0.1-0.5,0.4-0.6l1-0.3c0.3-0.1,0.5,0.1,0.6,0.4
					c0.1,0.3-0.1,0.5-0.4,0.6l-1,0.3C101.8,3.4,101.8,3.4,101.7,3.4z M118.1,3.1c0,0-0.1,0-0.1,0l-1-0.3c-0.3-0.1-0.4-0.3-0.4-0.6
					c0.1-0.3,0.4-0.4,0.6-0.4l1,0.3c0.3,0.1,0.4,0.3,0.4,0.6C118.6,3,118.4,3.1,118.1,3.1z M105.6,2.3c-0.2,0-0.4-0.1-0.5-0.4
					c-0.1-0.3,0.1-0.5,0.4-0.6l1-0.3c0.3-0.1,0.5,0.1,0.6,0.4c0.1,0.3-0.1,0.5-0.4,0.6l-1,0.3C105.7,2.3,105.6,2.3,105.6,2.3z
					 M114.3,2.1c0,0-0.1,0-0.1,0l-1-0.3c-0.3-0.1-0.4-0.3-0.4-0.6c0.1-0.3,0.4-0.4,0.6-0.4l1,0.3c0.3,0.1,0.4,0.3,0.4,0.6
					C114.7,1.9,114.5,2.1,114.3,2.1z M109.5,1.3c-0.2,0-0.4-0.1-0.5-0.4c-0.1-0.3,0.1-0.5,0.4-0.6l1-0.3c0.3-0.1,0.5,0.1,0.6,0.4
					c0.1,0.3-0.1,0.5-0.4,0.6l-1,0.3C109.5,1.3,109.5,1.3,109.5,1.3z"/>
			</g>
		</g>
	</g>
</g>
<g id="Layer_9" class="st0">
</g>
<g id="Layer_7">
	<g class="st2">
		<g>
			<g>
				<rect x="192.1" y="44.2" transform="matrix(0.7747 -0.6323 0.6323 0.7747 15.0727 131.6642)" width="0.5" height="1"/>
			</g>
			<g>
				<path d="M114.6,108.7l-0.6-0.8l0.8-0.6l0.6,0.8L114.6,108.7z M117.7,106.2l-0.6-0.8l0.8-0.6l0.6,0.8L117.7,106.2z M120.8,103.6
					l-0.6-0.8l0.8-0.6l0.6,0.8L120.8,103.6z M123.9,101.1l-0.6-0.8l0.8-0.6l0.6,0.8L123.9,101.1z M127,98.5l-0.6-0.8l0.8-0.6
					l0.6,0.8L127,98.5z M130.1,96l-0.6-0.8l0.8-0.6l0.6,0.8L130.1,96z M133.2,93.5l-0.6-0.8l0.8-0.6l0.6,0.8L133.2,93.5z
					 M136.4,90.9l-0.6-0.8l0.8-0.6l0.6,0.8L136.4,90.9z M139.5,88.4l-0.6-0.8l0.8-0.6l0.6,0.8L139.5,88.4z M142.6,85.8l-0.6-0.8
					l0.8-0.6l0.6,0.8L142.6,85.8z M145.7,83.3l-0.6-0.8l0.8-0.6l0.6,0.8L145.7,83.3z M148.8,80.8l-0.6-0.8l0.8-0.6l0.6,0.8
					L148.8,80.8z M151.9,78.2l-0.6-0.8l0.8-0.6l0.6,0.8L151.9,78.2z M155.1,75.7l-0.6-0.8l0.8-0.6l0.6,0.8L155.1,75.7z M158.2,73.1
					l-0.6-0.8l0.8-0.6l0.6,0.8L158.2,73.1z M161.3,70.6l-0.6-0.8l0.8-0.6l0.6,0.8L161.3,70.6z M164.4,68.1l-0.6-0.8l0.8-0.6l0.6,0.8
					L164.4,68.1z M167.5,65.5l-0.6-0.8l0.8-0.6l0.6,0.8L167.5,65.5z M170.6,63l-0.6-0.8l0.8-0.6l0.6,0.8L170.6,63z M173.7,60.5
					l-0.6-0.8l0.8-0.6l0.6,0.8L173.7,60.5z M176.9,57.9l-0.6-0.8l0.8-0.6l0.6,0.8L176.9,57.9z M180,55.4l-0.6-0.8l0.8-0.6l0.6,0.8
					L180,55.4z M183.1,52.8l-0.6-0.8l0.8-0.6l0.6,0.8L183.1,52.8z M186.2,50.3l-0.6-0.8l0.8-0.6l0.6,0.8L186.2,50.3z M189.3,47.8
					l-0.6-0.8l0.8-0.6l0.6,0.8L189.3,47.8z"/>
			</g>
			<g>
				<polygon points="111.5,111.2 110.8,110.5 111.6,109.8 112.2,110.6 112.2,110.6 112.2,110.6 				"/>
			</g>
			<g>
				<path d="M178.8,186.2l-0.7-0.8l0.7-0.7l0.7,0.8L178.8,186.2z M176.1,183.2l-0.7-0.8l0.7-0.7l0.7,0.8L176.1,183.2z M173.4,180.2
					l-0.7-0.8l0.7-0.7l0.7,0.8L173.4,180.2z M170.7,177.2l-0.7-0.8l0.7-0.7l0.7,0.8L170.7,177.2z M168,174.2l-0.7-0.8l0.7-0.7
					l0.7,0.8L168,174.2z M165.3,171.2l-0.7-0.8l0.7-0.7l0.7,0.8L165.3,171.2z M162.6,168.2l-0.7-0.8l0.7-0.7l0.7,0.8L162.6,168.2z
					 M159.9,165.2l-0.7-0.8l0.7-0.7l0.7,0.8L159.9,165.2z M157.2,162.2l-0.7-0.8l0.7-0.7l0.7,0.8L157.2,162.2z M154.6,159.2
					l-0.7-0.8l0.7-0.7l0.7,0.8L154.6,159.2z M151.9,156.2l-0.7-0.8l0.7-0.7l0.7,0.8L151.9,156.2z M149.2,153.2l-0.7-0.8l0.7-0.7
					l0.7,0.8L149.2,153.2z M146.5,150.2l-0.7-0.8l0.7-0.7l0.7,0.8L146.5,150.2z M143.8,147.2l-0.7-0.8l0.7-0.7l0.7,0.8L143.8,147.2z
					 M141.1,144.2l-0.7-0.8l0.7-0.7l0.7,0.8L141.1,144.2z M138.4,141.2l-0.7-0.8l0.7-0.7l0.7,0.8L138.4,141.2z M135.7,138.2
					l-0.7-0.8l0.7-0.7l0.7,0.8L135.7,138.2z M133,135.2l-0.7-0.8l0.7-0.7l0.7,0.8L133,135.2z M130.3,132.2l-0.7-0.8l0.7-0.7l0.7,0.8
					L130.3,132.2z M127.6,129.2l-0.7-0.8l0.7-0.7l0.7,0.8L127.6,129.2z M124.9,126.2l-0.7-0.8l0.7-0.7l0.7,0.8L124.9,126.2z
					 M122.2,123.2l-0.7-0.8l0.7-0.7l0.7,0.8L122.2,123.2z M119.6,120.2l-0.7-0.8l0.7-0.7l0.7,0.8L119.6,120.2z M116.9,117.2
					l-0.7-0.8l0.7-0.7l0.7,0.8L116.9,117.2z M114.2,114.2l-0.7-0.8l0.7-0.7l0.7,0.8L114.2,114.2z"/>
			</g>
			<g>
				<polygon points="181.1,188.9 180.8,188.5 181.6,187.8 181.9,188.2 				"/>
			</g>
		</g>
		<g>
			<g>
				<rect x="111" y="1.5" width="1" height="0.5"/>
			</g>
			<g>
				<path d="M112,107h-1v-1h1V107z M112,103h-1v-1h1V103z M112,98.9h-1v-1h1V98.9z M112,94.9h-1v-1h1V94.9z M112,90.8h-1v-1h1V90.8z
					 M112,86.8h-1v-1h1V86.8z M112,82.8h-1v-1h1V82.8z M112,78.7h-1v-1h1V78.7z M112,74.7h-1v-1h1V74.7z M112,70.7h-1v-1h1V70.7z
					 M112,66.6h-1v-1h1V66.6z M112,62.6h-1v-1h1V62.6z M112,58.5h-1v-1h1V58.5z M112,54.5h-1v-1h1V54.5z M112,50.5h-1v-1h1V50.5z
					 M112,46.4h-1v-1h1V46.4z M112,42.4h-1v-1h1V42.4z M112,38.4h-1v-1h1V38.4z M112,34.3h-1v-1h1V34.3z M112,30.3h-1v-1h1V30.3z
					 M112,26.2h-1v-1h1V26.2z M112,22.2h-1v-1h1V22.2z M112,18.2h-1v-1h1V18.2z M112,14.1h-1v-1h1V14.1z M112,10.1h-1v-1h1V10.1z
					 M112,6.1h-1V5h1V6.1z"/>
			</g>
			<g>
				<polygon points="111.3,111.2 110.8,110.3 111,110.2 111,110 112,110 112,110.8 				"/>
			</g>
			<g>
				<path d="M17.9,154.5l-0.4-0.9l0.9-0.4l0.4,0.9L17.9,154.5z M21.5,152.8l-0.4-0.9l0.9-0.4l0.4,0.9L21.5,152.8z M25.1,151.2
					l-0.4-0.9l0.9-0.4l0.4,0.9L25.1,151.2z M28.6,149.5l-0.4-0.9l0.9-0.4l0.4,0.9L28.6,149.5z M32.2,147.8l-0.4-0.9l0.9-0.4l0.4,0.9
					L32.2,147.8z M35.8,146.2l-0.4-0.9l0.9-0.4l0.4,0.9L35.8,146.2z M39.4,144.5l-0.4-0.9l0.9-0.4l0.4,0.9L39.4,144.5z M43,142.8
					l-0.4-0.9l0.9-0.4l0.4,0.9L43,142.8z M46.6,141.2l-0.4-0.9l0.9-0.4l0.4,0.9L46.6,141.2z M50.2,139.5l-0.4-0.9l0.9-0.4l0.4,0.9
					L50.2,139.5z M53.8,137.8l-0.4-0.9l0.9-0.4l0.4,0.9L53.8,137.8z M57.4,136.2l-0.4-0.9l0.9-0.4l0.4,0.9L57.4,136.2z M61,134.5
					l-0.4-0.9l0.9-0.4l0.4,0.9L61,134.5z M64.6,132.8l-0.4-0.9l0.9-0.4l0.4,0.9L64.6,132.8z M68.2,131.2l-0.4-0.9l0.9-0.4l0.4,0.9
					L68.2,131.2z M71.8,129.5l-0.4-0.9l0.9-0.4l0.4,0.9L71.8,129.5z M75.3,127.9l-0.4-0.9l0.9-0.4l0.4,0.9L75.3,127.9z M78.9,126.2
					l-0.4-0.9l0.9-0.4l0.4,0.9L78.9,126.2z M82.5,124.5l-0.4-0.9l0.9-0.4l0.4,0.9L82.5,124.5z M86.1,122.9l-0.4-0.9l0.9-0.4l0.4,0.9
					L86.1,122.9z M89.7,121.2l-0.4-0.9l0.9-0.4l0.4,0.9L89.7,121.2z M93.3,119.5l-0.4-0.9l0.9-0.4l0.4,0.9L93.3,119.5z M96.9,117.9
					l-0.4-0.9l0.9-0.4l0.4,0.9L96.9,117.9z M100.5,116.2l-0.4-0.9l0.9-0.4l0.4,0.9L100.5,116.2z M104.1,114.5l-0.4-0.9l0.9-0.4
					l0.4,0.9L104.1,114.5z M107.7,112.9l-0.4-0.9l0.9-0.4l0.4,0.9L107.7,112.9z"/>
			</g>
			<g>
				<rect x="14.5" y="154.9" transform="matrix(0.9077 -0.4197 0.4197 0.9077 -63.8637 20.5351)" width="0.5" height="1"/>
			</g>
		</g>
		<g>
			<g>
				<path d="M109.4,220.7l-1-0.3l0.3-1l1,0.3L109.4,220.7z M112.6,220.5l-0.3-1l1-0.3l0.3,1L112.6,220.5z M105.6,219.7l-1-0.3l0.3-1
					l1,0.3L105.6,219.7z M116.4,219.5l-0.3-1l1-0.3l0.3,1L116.4,219.5z M101.7,218.7l-1-0.3l0.3-1l1,0.3L101.7,218.7z M120.3,218.4
					l-0.3-1l1-0.3l0.3,1L120.3,218.4z M97.8,217.6l-1-0.3l0.3-1l1,0.3L97.8,217.6z M124.2,217.4l-0.3-1l1-0.3l0.3,1L124.2,217.4z
					 M94,216.6l-1-0.3l0.3-1l1,0.3L94,216.6z M128,216.4l-0.3-1l1-0.3l0.3,1L128,216.4z M90.1,215.6l-1-0.3l0.3-1l1,0.3L90.1,215.6z
					 M131.9,215.3l-0.3-1l1-0.3l0.3,1L131.9,215.3z M86.3,214.5l-1-0.3l0.3-1l1,0.3L86.3,214.5z M135.7,214.3l-0.3-1l1-0.3l0.3,1
					L135.7,214.3z M82.4,213.5l-1-0.3l0.3-1l1,0.3L82.4,213.5z M139.6,213.3l-0.3-1l1-0.3l0.3,1L139.6,213.3z M78.5,212.5l-1-0.3
					l0.3-1l1,0.3L78.5,212.5z M143.5,212.2l-0.3-1l1-0.3l0.3,1L143.5,212.2z M74.7,211.4l-1-0.3l0.3-1l1,0.3L74.7,211.4z
					 M147.3,211.2l-0.3-1l1-0.3l0.3,1L147.3,211.2z M70.8,210.4l-1-0.3l0.3-1l1,0.3L70.8,210.4z M151.2,210.1l-0.3-1l1-0.3l0.3,1
					L151.2,210.1z M67,209.4l-1-0.3l0.3-1l1,0.3L67,209.4z M155,209.1l-0.3-1l1-0.3l0.3,1L155,209.1z M63.1,208.3l-1-0.3l0.3-1
					l1,0.3L63.1,208.3z M158.9,208.1l-0.3-1l1-0.3l0.3,1L158.9,208.1z M59.2,207.3l-1-0.3l0.3-1l1,0.3L59.2,207.3z M162.7,207
					l-0.3-1l1-0.3l0.3,1L162.7,207z M55.2,206.1l-0.7-0.7l0.7-0.7l0.7,0.7L55.2,206.1z M166.6,205.4l-0.7-0.7l0.7-0.7l0.7,0.7
					L166.6,205.4z M52.3,203.3l-0.7-0.7l0.7-0.7l0.7,0.7L52.3,203.3z M169.4,202.6l-0.7-0.7l0.7-0.7l0.7,0.7L169.4,202.6z
					 M49.5,200.5l-0.7-0.7l0.7-0.7l0.7,0.7L49.5,200.5z M172.2,199.8l-0.7-0.7l0.7-0.7l0.7,0.7L172.2,199.8z M46.7,197.7L46,197
					l0.7-0.7l0.7,0.7L46.7,197.7z M175,197l-0.7-0.7l0.7-0.7l0.7,0.7L175,197z M43.9,194.8l-0.7-0.7l0.7-0.7l0.7,0.7L43.9,194.8z
					 M177.9,194.1l-0.7-0.7l0.7-0.7l0.7,0.7L177.9,194.1z M41,192l-0.7-0.7l0.7-0.7l0.7,0.7L41,192z M180.7,191.3l-0.7-0.7l0.7-0.7
					l0.7,0.7L180.7,191.3z M38.2,189.2l-0.7-0.7l0.7-0.7l0.7,0.7L38.2,189.2z M183.5,188.5l-0.7-0.7l0.7-0.7l0.7,0.7L183.5,188.5z
					 M35.4,186.4l-0.7-0.7l0.7-0.7l0.7,0.7L35.4,186.4z M186.3,185.7l-0.7-0.7l0.7-0.7l0.7,0.7L186.3,185.7z M32.6,183.5l-0.7-0.7
					l0.7-0.7l0.7,0.7L32.6,183.5z M189.2,182.8l-0.7-0.7l0.7-0.7l0.7,0.7L189.2,182.8z M29.7,180.7L29,180l0.7-0.7l0.7,0.7
					L29.7,180.7z M192,180l-0.7-0.7l0.7-0.7l0.7,0.7L192,180z M26.9,177.9l-0.7-0.7l0.7-0.7l0.7,0.7L26.9,177.9z M194.8,177.2
					l-0.7-0.7l0.7-0.7l0.7,0.7L194.8,177.2z M24.1,175.1l-0.7-0.7l0.7-0.7l0.7,0.7L24.1,175.1z M197.7,174.4l-0.7-0.7l0.7-0.7
					l0.7,0.7L197.7,174.4z M21.3,172.2l-0.7-0.7l0.7-0.7l0.7,0.7L21.3,172.2z M200.5,171.5l-0.7-0.7l0.7-0.7l0.7,0.7L200.5,171.5z
					 M18.4,169.4l-0.7-0.7l0.7-0.7l0.7,0.7L18.4,169.4z M203.3,168.7l-0.7-0.7l0.7-0.7l0.7,0.7L203.3,168.7z M15.6,166.6l-0.8-0.8
					l0-0.1l0.5-0.1l0.4-0.4l0.7,0.7L15.6,166.6z M206.3,165.7l-1-0.3l0.3-1l1,0.3L206.3,165.7z M14,162.8l-0.3-1l1-0.3l0.3,1
					L14,162.8z M207.3,161.8l-1-0.3l0.3-1l1,0.3L207.3,161.8z M13,158.9l-0.3-1l1-0.3l0.3,1L13,158.9z M208.3,157.9l-1-0.3l0.3-1
					l1,0.3L208.3,157.9z M11.9,155l-0.3-1l1-0.3l0.3,1L11.9,155z M209.4,154.1l-1-0.3l0.3-1l1,0.3L209.4,154.1z M10.9,151.2l-0.3-1
					l1-0.3l0.3,1L10.9,151.2z M210.4,150.2l-1-0.3l0.3-1l1,0.3L210.4,150.2z M9.9,147.3l-0.3-1l1-0.3l0.3,1L9.9,147.3z M211.4,146.4
					l-1-0.3l0.3-1l1,0.3L211.4,146.4z M8.8,143.5l-0.3-1l1-0.3l0.3,1L8.8,143.5z M212.5,142.5l-1-0.3l0.3-1l1,0.3L212.5,142.5z
					 M7.8,139.6l-0.3-1l1-0.3l0.3,1L7.8,139.6z M213.5,138.6l-1-0.3l0.3-1l1,0.3L213.5,138.6z M6.8,135.7l-0.3-1l1-0.3l0.3,1
					L6.8,135.7z M214.5,134.8l-1-0.3l0.3-1l1,0.3L214.5,134.8z M5.7,131.9l-0.3-1l1-0.3l0.3,1L5.7,131.9z M215.6,130.9l-1-0.3l0.3-1
					l1,0.3L215.6,130.9z M4.7,128l-0.3-1l1-0.3l0.3,1L4.7,128z M216.6,127.1l-1-0.3l0.3-1l1,0.3L216.6,127.1z M3.7,124.2l-0.3-1
					l1-0.3l0.3,1L3.7,124.2z M217.6,123.2l-1-0.3l0.3-1l1,0.3L217.6,123.2z M2.6,120.3l-0.3-1l1-0.3l0.3,1L2.6,120.3z M218.7,119.3
					l-1-0.3l0.3-1l1,0.3L218.7,119.3z M1.6,116.4l-0.3-1l1-0.3l0.3,1L1.6,116.4z M219.7,115.5l-1-0.3l0.3-1l1,0.3L219.7,115.5z
					 M0.6,112.6l-0.3-1l1-0.3l0.3,1L0.6,112.6z M220.7,111.6l-1-0.3l0.3-1l1,0.3L220.7,111.6z M1.5,108.7l-1-0.3l0.3-1l1,0.3
					L1.5,108.7z M219.3,107.8l-0.3-1l1-0.3l0.3,1L219.3,107.8z M2.6,104.9l-1-0.3l0.3-1l1,0.3L2.6,104.9z M218.2,103.9l-0.3-1l1-0.3
					l0.3,1L218.2,103.9z M3.6,101l-1-0.3l0.3-1l1,0.3L3.6,101z M217.2,100l-0.3-1l1-0.3l0.3,1L217.2,100z M4.6,97.1l-1-0.3l0.3-1
					l1,0.3L4.6,97.1z M216.1,96.2l-0.3-1l1-0.3l0.3,1L216.1,96.2z M5.7,93.3l-1-0.3l0.3-1l1,0.3L5.7,93.3z M215.1,92.3l-0.3-1l1-0.3
					l0.3,1L215.1,92.3z M6.7,89.4l-1-0.3l0.3-1l1,0.3L6.7,89.4z M214.1,88.5l-0.3-1l1-0.3l0.3,1L214.1,88.5z M7.7,85.6l-1-0.3l0.3-1
					l1,0.3L7.7,85.6z M213,84.6l-0.3-1l1-0.3l0.3,1L213,84.6z M8.8,81.7l-1-0.3l0.3-1l1,0.3L8.8,81.7z M212,80.7l-0.3-1l1-0.3l0.3,1
					L212,80.7z M9.8,77.8l-1-0.3l0.3-1l1,0.3L9.8,77.8z M211,76.9l-0.3-1l1-0.3l0.3,1L211,76.9z M10.8,74l-1-0.3l0.3-1l1,0.3
					L10.8,74z M209.9,73l-0.3-1l1-0.3l0.3,1L209.9,73z M11.9,70.1l-1-0.3l0.3-1l1,0.3L11.9,70.1z M208.9,69.2l-0.3-1l1-0.3l0.3,1
					L208.9,69.2z M12.9,66.3l-1-0.3l0.3-1l1,0.3L12.9,66.3z M207.9,65.3l-0.3-1l1-0.3l0.3,1L207.9,65.3z M13.9,62.4l-1-0.3l0.3-1
					l1,0.3L13.9,62.4z M206.8,61.4l-0.3-1l1-0.3l0.3,1L206.8,61.4z M15,58.5l-1-0.3l0.3-1l1,0.3L15,58.5z M205.8,57.6l-0.3-1l1-0.3
					l0.3,1L205.8,57.6z M16.3,55.2l-0.7-0.7l0.7-0.7l0.7,0.7L16.3,55.2z M204,54.5l-0.7-0.7L204,53l0.7,0.7L204,54.5z M19.1,52.3
					l-0.7-0.7l0.7-0.7l0.7,0.7L19.1,52.3z M201.2,51.6l-0.7-0.7l0.7-0.7l0.7,0.7L201.2,51.6z M22,49.5l-0.7-0.7l0.7-0.7l0.7,0.7
					L22,49.5z M198.4,48.8l-0.7-0.7l0.7-0.7l0.7,0.7L198.4,48.8z M24.8,46.7L24.1,46l0.7-0.7l0.7,0.7L24.8,46.7z M195.5,46l-0.7-0.7
					l0.7-0.7l0.7,0.7L195.5,46z M27.6,43.9l-0.7-0.7l0.7-0.7l0.7,0.7L27.6,43.9z M192.7,43.2l-0.7-0.7l0.7-0.7l0.7,0.7L192.7,43.2z
					 M30.4,41l-0.7-0.7l0.7-0.7l0.7,0.7L30.4,41z M189.9,40.3l-0.7-0.7l0.7-0.7l0.7,0.7L189.9,40.3z M33.3,38.2l-0.7-0.7l0.7-0.7
					l0.7,0.7L33.3,38.2z M187.1,37.5l-0.7-0.7l0.7-0.7l0.7,0.7L187.1,37.5z M36.1,35.4l-0.7-0.7l0.7-0.7l0.7,0.7L36.1,35.4z
					 M184.2,34.7l-0.7-0.7l0.7-0.7l0.7,0.7L184.2,34.7z M38.9,32.6l-0.7-0.7l0.7-0.7l0.7,0.7L38.9,32.6z M181.4,31.9l-0.7-0.7
					l0.7-0.7l0.7,0.7L181.4,31.9z M41.7,29.7L41,29l0.7-0.7l0.7,0.7L41.7,29.7z M178.6,29l-0.7-0.7l0.7-0.7l0.7,0.7L178.6,29z
					 M44.6,26.9l-0.7-0.7l0.7-0.7l0.7,0.7L44.6,26.9z M175.8,26.2l-0.7-0.7l0.7-0.7l0.7,0.7L175.8,26.2z M47.4,24.1l-0.7-0.7
					l0.7-0.7l0.7,0.7L47.4,24.1z M172.9,23.4l-0.7-0.7l0.7-0.7l0.7,0.7L172.9,23.4z M50.2,21.3l-0.7-0.7l0.7-0.7l0.7,0.7L50.2,21.3z
					 M170.1,20.6l-0.7-0.7l0.7-0.7l0.7,0.7L170.1,20.6z M53,18.4l-0.7-0.7L53,17l0.7,0.7L53,18.4z M167.3,17.7l-0.7-0.7l0.7-0.7
					L168,17L167.3,17.7z M55.6,15.7l-0.1-0.5l-0.4-0.4l0.1-0.1l1.1-0.3l0.3,1L55.6,15.7z M164.4,15.5l-1-0.3l0.3-1l1,0.3L164.4,15.5
					z M59.5,14.7l-0.3-1l1-0.3l0.3,1L59.5,14.7z M160.6,14.4l-1-0.3l0.3-1l1,0.3L160.6,14.4z M63.4,13.7l-0.3-1l1-0.3l0.3,1
					L63.4,13.7z M156.7,13.4l-1-0.3l0.3-1l1,0.3L156.7,13.4z M67.2,12.6l-0.3-1l1-0.3l0.3,1L67.2,12.6z M152.8,12.4l-1-0.3l0.3-1
					l1,0.3L152.8,12.4z M71.1,11.6l-0.3-1l1-0.3l0.3,1L71.1,11.6z M149,11.3l-1-0.3l0.3-1l1,0.3L149,11.3z M74.9,10.6l-0.3-1l1-0.3
					l0.3,1L74.9,10.6z M145.1,10.3l-1-0.3l0.3-1l1,0.3L145.1,10.3z M78.8,9.5l-0.3-1l1-0.3l0.3,1L78.8,9.5z M141.3,9.3l-1-0.3l0.3-1
					l1,0.3L141.3,9.3z M82.7,8.5l-0.3-1l1-0.3l0.3,1L82.7,8.5z M137.4,8.2l-1-0.3l0.3-1l1,0.3L137.4,8.2z M86.5,7.5l-0.3-1l1-0.3
					l0.3,1L86.5,7.5z M133.5,7.2l-1-0.3l0.3-1l1,0.3L133.5,7.2z M90.4,6.4l-0.3-1l1-0.3l0.3,1L90.4,6.4z M129.7,6.2l-1-0.3l0.3-1
					l1,0.3L129.7,6.2z M94.2,5.4l-0.3-1l1-0.3l0.3,1L94.2,5.4z M125.8,5.1l-1-0.3l0.3-1l1,0.3L125.8,5.1z M98.1,4.4l-0.3-1l1-0.3
					l0.3,1L98.1,4.4z M122,4.1l-1-0.3l0.3-1l1,0.3L122,4.1z M102,3.3l-0.3-1l1-0.3l0.3,1L102,3.3z M118.1,3.1l-1-0.3l0.3-1l1,0.3
					L118.1,3.1z M105.8,2.3l-0.3-1l1-0.3l0.3,1L105.8,2.3z M114.2,2l-1-0.3l0.3-1l1,0.3L114.2,2z M109.7,1.3l-0.3-1l1-0.3l0.3,1
					L109.7,1.3z"/>
			</g>
		</g>
	</g>
</g>
<g id="Layer_2" class="st0">
	<polygon class="st3" points="111.8,21.5 156.3,33.5 188.9,66 200.8,110.5 188.9,155 156.3,187.6 111.8,199.5 67.3,187.6 34.7,155 
		22.8,110.5 34.7,66 67.3,33.5 	"/>
</g>
<g id="Layer_11" class="st0">
	<polygon class="st3" points="111.8,21.6 111.5,21.5 67,33.5 34.4,66 22.5,110.5 32.3,147.2 111.5,110.5 	"/>
</g>
<g id="Layer_10" class="st0">
	<polygon class="st3" points="168.9,174.6 111.5,110.5 32.3,147.3 34.3,155 66.9,187.6 111.4,199.5 155.9,187.6 	"/>
</g>
<g id="Layer_6" class="st0">
	<polygon class="st3" points="178.5,55.9 111.4,110.5 169,174.6 188.6,155 200.5,110.5 188.6,66 	"/>
</g>
<g id="Layer_8" class="st0">
	<polygon class="st3" points="156.3,33.5 111.8,21.5 111.4,21.7 111.4,110.5 178.7,55.8 	"/>
</g>
</svg>
