<?xml version="1.0" encoding="utf-8"?>
<!-- Generator: Adobe Illustrator 19.2.1, SVG Export Plug-In . SVG Version: 6.00 Build 0)  -->
<svg version="1.1" xmlns="http://www.w3.org/2000/svg" xmlns:xlink="http://www.w3.org/1999/xlink" x="0px" y="0px" width="221px"
	 height="221px" viewBox="0 0 221 221" style="enable-background:new 0 0 221 221;" xml:space="preserve">
<style type="text/css">
	.st0{opacity:0.5;}
	.st1{display:none;}
	.st2{display:inline;fill:#EF0957;}
</style>
<g id="Layer_1">
	<g class="st0">
		<g>
			<g>
				<path d="M111.8,111.5c-0.2,0-0.3-0.1-0.4-0.3l-0.2-0.4c-0.1-0.2-0.1-0.5,0.2-0.7c0.2-0.1,0.5-0.1,0.7,0.2l0.2,0.4
					c0.1,0.2,0.1,0.5-0.2,0.7C111.9,111.4,111.8,111.5,111.8,111.5z"/>
			</g>
			<g>
				<path d="M163.8,202c-0.2,0-0.3-0.1-0.4-0.3l-0.5-0.9c-0.1-0.2-0.1-0.5,0.2-0.7c0.2-0.1,0.5-0.1,0.7,0.2l0.5,0.9
					c0.1,0.2,0.1,0.5-0.2,0.7C163.9,202,163.8,202,163.8,202z M161.8,198.5c-0.2,0-0.3-0.1-0.4-0.3l-0.5-0.9
					c-0.1-0.2-0.1-0.5,0.2-0.7c0.2-0.1,0.5-0.1,0.7,0.2l0.5,0.9c0.1,0.2,0.1,0.5-0.2,0.7C161.9,198.5,161.8,198.5,161.8,198.5z
					 M159.8,195c-0.2,0-0.3-0.1-0.4-0.3l-0.5-0.9c-0.1-0.2-0.1-0.5,0.2-0.7c0.2-0.1,0.5-0.1,0.7,0.2l0.5,0.9
					c0.1,0.2,0.1,0.5-0.2,0.7C159.9,195,159.8,195,159.8,195z M157.8,191.5c-0.2,0-0.3-0.1-0.4-0.3l-0.5-0.9
					c-0.1-0.2-0.1-0.5,0.2-0.7c0.2-0.1,0.5-0.1,0.7,0.2l0.5,0.9c0.1,0.2,0.1,0.5-0.2,0.7C157.9,191.5,157.8,191.5,157.8,191.5z
					 M155.8,188c-0.2,0-0.3-0.1-0.4-0.3l-0.5-0.9c-0.1-0.2-0.1-0.5,0.2-0.7c0.2-0.1,0.5-0.1,0.7,0.2l0.5,0.9
					c0.1,0.2,0.1,0.5-0.2,0.7C155.9,188,155.8,188,155.8,188z M153.8,184.6c-0.2,0-0.3-0.1-0.4-0.3l-0.5-0.9
					c-0.1-0.2-0.1-0.5,0.2-0.7c0.2-0.1,0.5-0.1,0.7,0.2l0.5,0.9c0.1,0.2,0.1,0.5-0.2,0.7C153.9,184.5,153.8,184.6,153.8,184.6z
					 M151.8,181.1c-0.2,0-0.3-0.1-0.4-0.3l-0.5-0.9c-0.1-0.2-0.1-0.5,0.2-0.7c0.2-0.1,0.5-0.1,0.7,0.2l0.5,0.9
					c0.1,0.2,0.1,0.5-0.2,0.7C151.9,181.1,151.8,181.1,151.8,181.1z M149.8,177.6c-0.2,0-0.3-0.1-0.4-0.3l-0.5-0.9
					c-0.1-0.2-0.1-0.5,0.2-0.7c0.2-0.1,0.5-0.1,0.7,0.2l0.5,0.9c0.1,0.2,0.1,0.5-0.2,0.7C149.9,177.6,149.8,177.6,149.8,177.6z
					 M147.8,174.1c-0.2,0-0.3-0.1-0.4-0.3l-0.5-0.9c-0.1-0.2-0.1-0.5,0.2-0.7c0.2-0.1,0.5-0.1,0.7,0.2l0.5,0.9
					c0.1,0.2,0.1,0.5-0.2,0.7C147.9,174.1,147.8,174.1,147.8,174.1z M145.8,170.6c-0.2,0-0.3-0.1-0.4-0.3l-0.5-0.9
					c-0.1-0.2-0.1-0.5,0.2-0.7c0.2-0.1,0.5-0.1,0.7,0.2l0.5,0.9c0.1,0.2,0.1,0.5-0.2,0.7C145.9,170.6,145.8,170.6,145.8,170.6z
					 M143.8,167.2c-0.2,0-0.3-0.1-0.4-0.3l-0.5-0.9c-0.1-0.2-0.1-0.5,0.2-0.7c0.2-0.1,0.5-0.1,0.7,0.2l0.5,0.9
					c0.1,0.2,0.1,0.5-0.2,0.7C143.9,167.1,143.8,167.2,143.8,167.2z M141.8,163.7c-0.2,0-0.3-0.1-0.4-0.3l-0.5-0.9
					c-0.1-0.2-0.1-0.5,0.2-0.7c0.2-0.1,0.5-0.1,0.7,0.2l0.5,0.9c0.1,0.2,0.1,0.5-0.2,0.7C141.9,163.7,141.8,163.7,141.8,163.7z
					 M139.8,160.2c-0.2,0-0.3-0.1-0.4-0.3l-0.5-0.9c-0.1-0.2-0.1-0.5,0.2-0.7c0.2-0.1,0.5-0.1,0.7,0.2l0.5,0.9
					c0.1,0.2,0.1,0.5-0.2,0.7C139.9,160.2,139.8,160.2,139.8,160.2z M137.8,156.7c-0.2,0-0.3-0.1-0.4-0.3l-0.5-0.9
					c-0.1-0.2-0.1-0.5,0.2-0.7c0.2-0.1,0.5-0.1,0.7,0.2l0.5,0.9c0.1,0.2,0.1,0.5-0.2,0.7C137.9,156.7,137.8,156.7,137.8,156.7z
					 M135.8,153.2c-0.2,0-0.3-0.1-0.4-0.3l-0.5-0.9c-0.1-0.2-0.1-0.5,0.2-0.7c0.2-0.1,0.5-0.1,0.7,0.2l0.5,0.9
					c0.1,0.2,0.1,0.5-0.2,0.7C135.9,153.2,135.8,153.2,135.8,153.2z M133.8,149.8c-0.2,0-0.3-0.1-0.4-0.3l-0.5-0.9
					c-0.1-0.2-0.1-0.5,0.2-0.7c0.2-0.1,0.5-0.1,0.7,0.2l0.5,0.9c0.1,0.2,0.1,0.5-0.2,0.7C133.9,149.7,133.8,149.8,133.8,149.8z
					 M131.8,146.3c-0.2,0-0.3-0.1-0.4-0.3l-0.5-0.9c-0.1-0.2-0.1-0.5,0.2-0.7c0.2-0.1,0.5-0.1,0.7,0.2l0.5,0.9
					c0.1,0.2,0.1,0.5-0.2,0.7C131.9,146.2,131.8,146.3,131.8,146.3z M129.8,142.8c-0.2,0-0.3-0.1-0.4-0.3l-0.5-0.9
					c-0.1-0.2-0.1-0.5,0.2-0.7c0.2-0.1,0.5-0.1,0.7,0.2l0.5,0.9c0.1,0.2,0.1,0.5-0.2,0.7C129.9,142.8,129.8,142.8,129.8,142.8z
					 M127.8,139.3c-0.2,0-0.3-0.1-0.4-0.3l-0.5-0.9c-0.1-0.2-0.1-0.5,0.2-0.7c0.2-0.1,0.5-0.1,0.7,0.2l0.5,0.9
					c0.1,0.2,0.1,0.5-0.2,0.7C127.9,139.3,127.8,139.3,127.8,139.3z M125.8,135.8c-0.2,0-0.3-0.1-0.4-0.3l-0.5-0.9
					c-0.1-0.2-0.1-0.5,0.2-0.7c0.2-0.1,0.5-0.1,0.7,0.2l0.5,0.9c0.1,0.2,0.1,0.5-0.2,0.7C125.9,135.8,125.8,135.8,125.8,135.8z
					 M123.8,132.3c-0.2,0-0.3-0.1-0.4-0.3l-0.5-0.9c-0.1-0.2-0.1-0.5,0.2-0.7c0.2-0.1,0.5-0.1,0.7,0.2l0.5,0.9
					c0.1,0.2,0.1,0.5-0.2,0.7C123.9,132.3,123.8,132.3,123.8,132.3z M121.8,128.9c-0.2,0-0.3-0.1-0.4-0.3l-0.5-0.9
					c-0.1-0.2-0.1-0.5,0.2-0.7c0.2-0.1,0.5-0.1,0.7,0.2l0.5,0.9c0.1,0.2,0.1,0.5-0.2,0.7C121.9,128.8,121.8,128.9,121.8,128.9z
					 M119.8,125.4c-0.2,0-0.3-0.1-0.4-0.3l-0.5-0.9c-0.1-0.2-0.1-0.5,0.2-0.7c0.2-0.1,0.5-0.1,0.7,0.2l0.5,0.9
					c0.1,0.2,0.1,0.5-0.2,0.7C119.9,125.4,119.8,125.4,119.8,125.4z M117.8,121.9c-0.2,0-0.3-0.1-0.4-0.3l-0.5-0.9
					c-0.1-0.2-0.1-0.5,0.2-0.7c0.2-0.1,0.5-0.1,0.7,0.2l0.5,0.9c0.1,0.2,0.1,0.5-0.2,0.7C117.9,121.9,117.8,121.9,117.8,121.9z
					 M115.8,118.4c-0.2,0-0.3-0.1-0.4-0.3l-0.5-0.9c-0.1-0.2-0.1-0.5,0.2-0.7c0.2-0.1,0.5-0.1,0.7,0.2l0.5,0.9
					c0.1,0.2,0.1,0.5-0.2,0.7C115.9,118.4,115.8,118.4,115.8,118.4z M113.8,114.9c-0.2,0-0.3-0.1-0.4-0.3l-0.5-0.9
					c-0.1-0.2-0.1-0.5,0.2-0.7c0.2-0.1,0.5-0.1,0.7,0.2l0.5,0.9c0.1,0.2,0.1,0.5-0.2,0.7C113.9,114.9,113.8,114.9,113.8,114.9z"/>
			</g>
			<g>
				<path d="M165.5,205c-0.2,0-0.3-0.1-0.4-0.3l-0.2-0.4c-0.1-0.2-0.1-0.5,0.2-0.7c0.2-0.1,0.5-0.1,0.7,0.2l0.2,0.4
					c0.1,0.2,0.1,0.5-0.2,0.7C165.7,205,165.6,205,165.5,205z"/>
			</g>
		</g>
		<g>
			<g>
				<path d="M111,111.2c-0.2,0-0.4-0.1-0.5-0.4c-0.1-0.3,0.1-0.5,0.3-0.6l0.5-0.1c0.3-0.1,0.5,0.1,0.6,0.3c0.1,0.3-0.1,0.5-0.3,0.6
					l-0.5,0.1C111.1,111.2,111.1,111.2,111,111.2z"/>
			</g>
			<g>
				<path d="M11.9,141c-0.2,0-0.4-0.1-0.5-0.4c-0.1-0.3,0.1-0.5,0.3-0.6l1-0.3c0.3-0.1,0.5,0.1,0.6,0.3c0.1,0.3-0.1,0.5-0.3,0.6
					l-1,0.3C11.9,141,11.9,141,11.9,141z M15.7,139.9c-0.2,0-0.4-0.1-0.5-0.4c-0.1-0.3,0.1-0.5,0.3-0.6l1-0.3
					c0.3-0.1,0.5,0.1,0.6,0.3c0.1,0.3-0.1,0.5-0.3,0.6l-1,0.3C15.8,139.9,15.7,139.9,15.7,139.9z M19.5,138.7
					c-0.2,0-0.4-0.1-0.5-0.4c-0.1-0.3,0.1-0.5,0.3-0.6l1-0.3c0.3-0.1,0.5,0.1,0.6,0.3c0.1,0.3-0.1,0.5-0.3,0.6l-1,0.3
					C19.6,138.7,19.5,138.7,19.5,138.7z M23.3,137.6c-0.2,0-0.4-0.1-0.5-0.4c-0.1-0.3,0.1-0.5,0.3-0.6l1-0.3
					c0.3-0.1,0.5,0.1,0.6,0.3c0.1,0.3-0.1,0.5-0.3,0.6l-1,0.3C23.4,137.6,23.3,137.6,23.3,137.6z M27.1,136.4
					c-0.2,0-0.4-0.1-0.5-0.4c-0.1-0.3,0.1-0.5,0.3-0.6l1-0.3c0.3-0.1,0.5,0.1,0.6,0.3c0.1,0.3-0.1,0.5-0.3,0.6l-1,0.3
					C27.2,136.4,27.2,136.4,27.1,136.4z M30.9,135.3c-0.2,0-0.4-0.1-0.5-0.4c-0.1-0.3,0.1-0.5,0.3-0.6l1-0.3
					c0.3-0.1,0.5,0.1,0.6,0.3c0.1,0.3-0.1,0.5-0.3,0.6l-1,0.3C31,135.3,31,135.3,30.9,135.3z M34.7,134.1c-0.2,0-0.4-0.1-0.5-0.4
					c-0.1-0.3,0.1-0.5,0.3-0.6l1-0.3c0.3-0.1,0.5,0.1,0.6,0.3c0.1,0.3-0.1,0.5-0.3,0.6l-1,0.3C34.8,134.1,34.8,134.1,34.7,134.1z
					 M38.6,133c-0.2,0-0.4-0.1-0.5-0.4c-0.1-0.3,0.1-0.5,0.3-0.6l1-0.3c0.3-0.1,0.5,0.1,0.6,0.3c0.1,0.3-0.1,0.5-0.3,0.6l-1,0.3
					C38.7,133,38.6,133,38.6,133z M42.4,131.8c-0.2,0-0.4-0.1-0.5-0.4c-0.1-0.3,0.1-0.5,0.3-0.6l1-0.3c0.3-0.1,0.5,0.1,0.6,0.3
					c0.1,0.3-0.1,0.5-0.3,0.6l-1,0.3C42.5,131.8,42.4,131.8,42.4,131.8z M46.2,130.7c-0.2,0-0.4-0.1-0.5-0.4
					c-0.1-0.3,0.1-0.5,0.3-0.6l1-0.3c0.3-0.1,0.5,0.1,0.6,0.3c0.1,0.3-0.1,0.5-0.3,0.6l-1,0.3C46.3,130.7,46.2,130.7,46.2,130.7z
					 M50,129.5c-0.2,0-0.4-0.1-0.5-0.4c-0.1-0.3,0.1-0.5,0.3-0.6l1-0.3c0.3-0.1,0.5,0.1,0.6,0.3c0.1,0.3-0.1,0.5-0.3,0.6l-1,0.3
					C50.1,129.5,50,129.5,50,129.5z M53.8,128.4c-0.2,0-0.4-0.1-0.5-0.4c-0.1-0.3,0.1-0.5,0.3-0.6l1-0.3c0.3-0.1,0.5,0.1,0.6,0.3
					c0.1,0.3-0.1,0.5-0.3,0.6l-1,0.3C53.9,128.4,53.9,128.4,53.8,128.4z M57.6,127.2c-0.2,0-0.4-0.1-0.5-0.4
					c-0.1-0.3,0.1-0.5,0.3-0.6l1-0.3c0.3-0.1,0.5,0.1,0.6,0.3c0.1,0.3-0.1,0.5-0.3,0.6l-1,0.3C57.7,127.2,57.7,127.2,57.6,127.2z
					 M61.4,126.1c-0.2,0-0.4-0.1-0.5-0.4c-0.1-0.3,0.1-0.5,0.3-0.6l1-0.3c0.3-0.1,0.5,0.1,0.6,0.3c0.1,0.3-0.1,0.5-0.3,0.6l-1,0.3
					C61.5,126.1,61.5,126.1,61.4,126.1z M65.3,124.9c-0.2,0-0.4-0.1-0.5-0.4c-0.1-0.3,0.1-0.5,0.3-0.6l1-0.3
					c0.3-0.1,0.5,0.1,0.6,0.3c0.1,0.3-0.1,0.5-0.3,0.6l-1,0.3C65.4,124.9,65.3,124.9,65.3,124.9z M69.1,123.8
					c-0.2,0-0.4-0.1-0.5-0.4c-0.1-0.3,0.1-0.5,0.3-0.6l1-0.3c0.3-0.1,0.5,0.1,0.6,0.3c0.1,0.3-0.1,0.5-0.3,0.6l-1,0.3
					C69.2,123.8,69.1,123.8,69.1,123.8z M72.9,122.6c-0.2,0-0.4-0.1-0.5-0.4c-0.1-0.3,0.1-0.5,0.3-0.6l1-0.3
					c0.3-0.1,0.5,0.1,0.6,0.3c0.1,0.3-0.1,0.5-0.3,0.6l-1,0.3C73,122.6,72.9,122.6,72.9,122.6z M76.7,121.5c-0.2,0-0.4-0.1-0.5-0.4
					c-0.1-0.3,0.1-0.5,0.3-0.6l1-0.3c0.3-0.1,0.5,0.1,0.6,0.3c0.1,0.3-0.1,0.5-0.3,0.6l-1,0.3C76.8,121.5,76.7,121.5,76.7,121.5z
					 M80.5,120.4c-0.2,0-0.4-0.1-0.5-0.4c-0.1-0.3,0.1-0.5,0.3-0.6l1-0.3c0.3-0.1,0.5,0.1,0.6,0.3c0.1,0.3-0.1,0.5-0.3,0.6l-1,0.3
					C80.6,120.3,80.6,120.4,80.5,120.4z M84.3,119.2c-0.2,0-0.4-0.1-0.5-0.4c-0.1-0.3,0.1-0.5,0.3-0.6l1-0.3
					c0.3-0.1,0.5,0.1,0.6,0.3c0.1,0.3-0.1,0.5-0.3,0.6l-1,0.3C84.4,119.2,84.4,119.2,84.3,119.2z M88.1,118.1
					c-0.2,0-0.4-0.1-0.5-0.4c-0.1-0.3,0.1-0.5,0.3-0.6l1-0.3c0.3-0.1,0.5,0.1,0.6,0.3c0.1,0.3-0.1,0.5-0.3,0.6l-1,0.3
					C88.2,118,88.2,118.1,88.1,118.1z M92,116.9c-0.2,0-0.4-0.1-0.5-0.4c-0.1-0.3,0.1-0.5,0.3-0.6l1-0.3c0.3-0.1,0.5,0.1,0.6,0.3
					c0.1,0.3-0.1,0.5-0.3,0.6l-1,0.3C92.1,116.9,92,116.9,92,116.9z M95.8,115.8c-0.2,0-0.4-0.1-0.5-0.4c-0.1-0.3,0.1-0.5,0.3-0.6
					l1-0.3c0.3-0.1,0.5,0.1,0.6,0.3c0.1,0.3-0.1,0.5-0.3,0.6l-1,0.3C95.9,115.8,95.8,115.8,95.8,115.8z M99.6,114.6
					c-0.2,0-0.4-0.1-0.5-0.4c-0.1-0.3,0.1-0.5,0.3-0.6l1-0.3c0.3-0.1,0.5,0.1,0.6,0.3c0.1,0.3-0.1,0.5-0.3,0.6l-1,0.3
					C99.7,114.6,99.6,114.6,99.6,114.6z M103.4,113.5c-0.2,0-0.4-0.1-0.5-0.4c-0.1-0.3,0.1-0.5,0.3-0.6l1-0.3
					c0.3-0.1,0.5,0.1,0.6,0.3c0.1,0.3-0.1,0.5-0.3,0.6l-1,0.3C103.5,113.5,103.5,113.5,103.4,113.5z M107.2,112.3
					c-0.2,0-0.4-0.1-0.5-0.4c-0.1-0.3,0.1-0.5,0.3-0.6l1-0.3c0.3-0.1,0.5,0.1,0.6,0.3c0.1,0.3-0.1,0.5-0.3,0.6l-1,0.3
					C107.3,112.3,107.3,112.3,107.2,112.3z"/>
			</g>
			<g>
				<path d="M8.5,142c-0.2,0-0.4-0.1-0.5-0.4c-0.1-0.3,0.1-0.5,0.3-0.6l0.5-0.1c0.3-0.1,0.5,0.1,0.6,0.3c0.1,0.3-0.1,0.5-0.3,0.6
					L8.7,142C8.6,142,8.6,142,8.5,142z"/>
			</g>
		</g>
		<g>
			<g>
				<path d="M111.5,2.5c-0.3,0-0.5-0.2-0.5-0.5V1.5c0-0.3,0.2-0.5,0.5-0.5s0.5,0.2,0.5,0.5V2C112,2.3,111.8,2.5,111.5,2.5z"/>
			</g>
			<g>
				<path d="M111.5,107.5c-0.3,0-0.5-0.2-0.5-0.5v-1c0-0.3,0.2-0.5,0.5-0.5s0.5,0.2,0.5,0.5v1C112,107.3,111.8,107.5,111.5,107.5z
					 M111.5,103.5c-0.3,0-0.5-0.2-0.5-0.5v-1c0-0.3,0.2-0.5,0.5-0.5s0.5,0.2,0.5,0.5v1C112,103.2,111.8,103.5,111.5,103.5z
					 M111.5,99.4c-0.3,0-0.5-0.2-0.5-0.5v-1c0-0.3,0.2-0.5,0.5-0.5s0.5,0.2,0.5,0.5v1C112,99.2,111.8,99.4,111.5,99.4z M111.5,95.4
					c-0.3,0-0.5-0.2-0.5-0.5v-1c0-0.3,0.2-0.5,0.5-0.5s0.5,0.2,0.5,0.5v1C112,95.2,111.8,95.4,111.5,95.4z M111.5,91.3
					c-0.3,0-0.5-0.2-0.5-0.5v-1c0-0.3,0.2-0.5,0.5-0.5s0.5,0.2,0.5,0.5v1C112,91.1,111.8,91.3,111.5,91.3z M111.5,87.3
					c-0.3,0-0.5-0.2-0.5-0.5v-1c0-0.3,0.2-0.5,0.5-0.5s0.5,0.2,0.5,0.5v1C112,87.1,111.8,87.3,111.5,87.3z M111.5,83.3
					c-0.3,0-0.5-0.2-0.5-0.5v-1c0-0.3,0.2-0.5,0.5-0.5s0.5,0.2,0.5,0.5v1C112,83,111.8,83.3,111.5,83.3z M111.5,79.2
					c-0.3,0-0.5-0.2-0.5-0.5v-1c0-0.3,0.2-0.5,0.5-0.5s0.5,0.2,0.5,0.5v1C112,79,111.8,79.2,111.5,79.2z M111.5,75.2
					c-0.3,0-0.5-0.2-0.5-0.5v-1c0-0.3,0.2-0.5,0.5-0.5s0.5,0.2,0.5,0.5v1C112,75,111.8,75.2,111.5,75.2z M111.5,71.2
					c-0.3,0-0.5-0.2-0.5-0.5v-1c0-0.3,0.2-0.5,0.5-0.5s0.5,0.2,0.5,0.5v1C112,70.9,111.8,71.2,111.5,71.2z M111.5,67.1
					c-0.3,0-0.5-0.2-0.5-0.5v-1c0-0.3,0.2-0.5,0.5-0.5s0.5,0.2,0.5,0.5v1C112,66.9,111.8,67.1,111.5,67.1z M111.5,63.1
					c-0.3,0-0.5-0.2-0.5-0.5v-1c0-0.3,0.2-0.5,0.5-0.5s0.5,0.2,0.5,0.5v1C112,62.9,111.8,63.1,111.5,63.1z M111.5,59
					c-0.3,0-0.5-0.2-0.5-0.5v-1c0-0.3,0.2-0.5,0.5-0.5s0.5,0.2,0.5,0.5v1C112,58.8,111.8,59,111.5,59z M111.5,55
					c-0.3,0-0.5-0.2-0.5-0.5v-1c0-0.3,0.2-0.5,0.5-0.5s0.5,0.2,0.5,0.5v1C112,54.8,111.8,55,111.5,55z M111.5,51
					c-0.3,0-0.5-0.2-0.5-0.5v-1c0-0.3,0.2-0.5,0.5-0.5s0.5,0.2,0.5,0.5v1C112,50.7,111.8,51,111.5,51z M111.5,46.9
					c-0.3,0-0.5-0.2-0.5-0.5v-1c0-0.3,0.2-0.5,0.5-0.5s0.5,0.2,0.5,0.5v1C112,46.7,111.8,46.9,111.5,46.9z M111.5,42.9
					c-0.3,0-0.5-0.2-0.5-0.5v-1c0-0.3,0.2-0.5,0.5-0.5s0.5,0.2,0.5,0.5v1C112,42.7,111.8,42.9,111.5,42.9z M111.5,38.9
					c-0.3,0-0.5-0.2-0.5-0.5v-1c0-0.3,0.2-0.5,0.5-0.5s0.5,0.2,0.5,0.5v1C112,38.6,111.8,38.9,111.5,38.9z M111.5,34.8
					c-0.3,0-0.5-0.2-0.5-0.5v-1c0-0.3,0.2-0.5,0.5-0.5s0.5,0.2,0.5,0.5v1C112,34.6,111.8,34.8,111.5,34.8z M111.5,30.8
					c-0.3,0-0.5-0.2-0.5-0.5v-1c0-0.3,0.2-0.5,0.5-0.5s0.5,0.2,0.5,0.5v1C112,30.6,111.8,30.8,111.5,30.8z M111.5,26.7
					c-0.3,0-0.5-0.2-0.5-0.5v-1c0-0.3,0.2-0.5,0.5-0.5s0.5,0.2,0.5,0.5v1C112,26.5,111.8,26.7,111.5,26.7z M111.5,22.7
					c-0.3,0-0.5-0.2-0.5-0.5v-1c0-0.3,0.2-0.5,0.5-0.5s0.5,0.2,0.5,0.5v1C112,22.5,111.8,22.7,111.5,22.7z M111.5,18.7
					c-0.3,0-0.5-0.2-0.5-0.5v-1c0-0.3,0.2-0.5,0.5-0.5s0.5,0.2,0.5,0.5v1C112,18.4,111.8,18.7,111.5,18.7z M111.5,14.6
					c-0.3,0-0.5-0.2-0.5-0.5v-1c0-0.3,0.2-0.5,0.5-0.5s0.5,0.2,0.5,0.5v1C112,14.4,111.8,14.6,111.5,14.6z M111.5,10.6
					c-0.3,0-0.5-0.2-0.5-0.5v-1c0-0.3,0.2-0.5,0.5-0.5s0.5,0.2,0.5,0.5v1C112,10.4,111.8,10.6,111.5,10.6z M111.5,6.6
					c-0.3,0-0.5-0.2-0.5-0.5V5c0-0.3,0.2-0.5,0.5-0.5S112,4.8,112,5v1C112,6.3,111.8,6.6,111.5,6.6z"/>
			</g>
			<g>
				<path d="M112,111.5l-1.2-0.8c-0.2-0.2-0.3-0.5-0.1-0.7c0.1-0.1,0.3-0.2,0.4-0.2c0.1-0.1,0.2-0.2,0.4-0.2c0.3,0,0.5,0.2,0.5,0.5
					V111.5z"/>
			</g>
			<g>
				<path d="M108.6,109c-0.1,0-0.2,0-0.3-0.1l-0.8-0.6c-0.2-0.2-0.3-0.5-0.1-0.7c0.2-0.2,0.5-0.3,0.7-0.1l0.8,0.6
					c0.2,0.2,0.3,0.5,0.1,0.7C108.9,108.9,108.8,109,108.6,109z M105.3,106.7c-0.1,0-0.2,0-0.3-0.1l-0.8-0.6
					c-0.2-0.2-0.3-0.5-0.1-0.7c0.2-0.2,0.5-0.3,0.7-0.1l0.8,0.6c0.2,0.2,0.3,0.5,0.1,0.7C105.6,106.6,105.4,106.7,105.3,106.7z
					 M101.9,104.4c-0.1,0-0.2,0-0.3-0.1l-0.8-0.6c-0.2-0.2-0.3-0.5-0.1-0.7c0.2-0.2,0.5-0.3,0.7-0.1l0.8,0.6
					c0.2,0.2,0.3,0.5,0.1,0.7C102.2,104.3,102.1,104.4,101.9,104.4z M98.6,102.1c-0.1,0-0.2,0-0.3-0.1l-0.8-0.6
					c-0.2-0.2-0.3-0.5-0.1-0.7c0.2-0.2,0.5-0.3,0.7-0.1l0.8,0.6c0.2,0.2,0.3,0.5,0.1,0.7C98.9,102,98.8,102.1,98.6,102.1z
					 M95.3,99.8c-0.1,0-0.2,0-0.3-0.1l-0.8-0.6c-0.2-0.2-0.3-0.5-0.1-0.7c0.2-0.2,0.5-0.3,0.7-0.1l0.8,0.6c0.2,0.2,0.3,0.5,0.1,0.7
					C95.6,99.8,95.4,99.8,95.3,99.8z M91.9,97.5c-0.1,0-0.2,0-0.3-0.1l-0.8-0.6c-0.2-0.2-0.3-0.5-0.1-0.7c0.2-0.2,0.5-0.3,0.7-0.1
					l0.8,0.6c0.2,0.2,0.3,0.5,0.1,0.7C92.2,97.5,92.1,97.5,91.9,97.5z M88.6,95.2c-0.1,0-0.2,0-0.3-0.1l-0.8-0.6
					c-0.2-0.2-0.3-0.5-0.1-0.7c0.2-0.2,0.5-0.3,0.7-0.1l0.8,0.6c0.2,0.2,0.3,0.5,0.1,0.7C88.9,95.2,88.8,95.2,88.6,95.2z M85.3,92.9
					c-0.1,0-0.2,0-0.3-0.1l-0.8-0.6c-0.2-0.2-0.3-0.5-0.1-0.7c0.2-0.2,0.5-0.3,0.7-0.1l0.8,0.6c0.2,0.2,0.3,0.5,0.1,0.7
					C85.6,92.9,85.4,92.9,85.3,92.9z M81.9,90.6c-0.1,0-0.2,0-0.3-0.1L80.8,90c-0.2-0.2-0.3-0.5-0.1-0.7c0.2-0.2,0.5-0.3,0.7-0.1
					l0.8,0.6c0.2,0.2,0.3,0.5,0.1,0.7C82.2,90.6,82.1,90.6,81.9,90.6z M78.6,88.3c-0.1,0-0.2,0-0.3-0.1l-0.8-0.6
					c-0.2-0.2-0.3-0.5-0.1-0.7c0.2-0.2,0.5-0.3,0.7-0.1l0.8,0.6c0.2,0.2,0.3,0.5,0.1,0.7C78.9,88.3,78.8,88.3,78.6,88.3z M75.3,86
					c-0.1,0-0.2,0-0.3-0.1l-0.8-0.6c-0.2-0.2-0.3-0.5-0.1-0.7c0.2-0.2,0.5-0.3,0.7-0.1l0.8,0.6c0.2,0.2,0.3,0.5,0.1,0.7
					C75.6,86,75.4,86,75.3,86z M71.9,83.8c-0.1,0-0.2,0-0.3-0.1l-0.8-0.6c-0.2-0.2-0.3-0.5-0.1-0.7c0.2-0.2,0.5-0.3,0.7-0.1l0.8,0.6
					c0.2,0.2,0.3,0.5,0.1,0.7C72.2,83.7,72.1,83.8,71.9,83.8z M68.6,81.5c-0.1,0-0.2,0-0.3-0.1l-0.8-0.6c-0.2-0.2-0.3-0.5-0.1-0.7
					c0.2-0.2,0.5-0.3,0.7-0.1l0.8,0.6c0.2,0.2,0.3,0.5,0.1,0.7C68.9,81.4,68.8,81.5,68.6,81.5z M65.3,79.2c-0.1,0-0.2,0-0.3-0.1
					l-0.8-0.6c-0.2-0.2-0.3-0.5-0.1-0.7c0.2-0.2,0.5-0.3,0.7-0.1l0.8,0.6c0.2,0.2,0.3,0.5,0.1,0.7C65.6,79.1,65.4,79.2,65.3,79.2z
					 M61.9,76.9c-0.1,0-0.2,0-0.3-0.1l-0.8-0.6c-0.2-0.2-0.3-0.5-0.1-0.7c0.2-0.2,0.5-0.3,0.7-0.1l0.8,0.6c0.2,0.2,0.3,0.5,0.1,0.7
					C62.2,76.8,62.1,76.9,61.9,76.9z M58.6,74.6c-0.1,0-0.2,0-0.3-0.1l-0.8-0.6c-0.2-0.2-0.3-0.5-0.1-0.7c0.2-0.2,0.5-0.3,0.7-0.1
					l0.8,0.6c0.2,0.2,0.3,0.5,0.1,0.7C58.9,74.5,58.8,74.6,58.6,74.6z M55.3,72.3c-0.1,0-0.2,0-0.3-0.1l-0.8-0.6
					c-0.2-0.2-0.3-0.5-0.1-0.7c0.2-0.2,0.5-0.3,0.7-0.1l0.8,0.6c0.2,0.2,0.3,0.5,0.1,0.7C55.6,72.2,55.4,72.3,55.3,72.3z M51.9,70
					c-0.1,0-0.2,0-0.3-0.1l-0.8-0.6c-0.2-0.2-0.3-0.5-0.1-0.7c0.2-0.2,0.5-0.3,0.7-0.1l0.8,0.6c0.2,0.2,0.3,0.5,0.1,0.7
					C52.2,69.9,52.1,70,51.9,70z M48.6,67.7c-0.1,0-0.2,0-0.3-0.1L47.5,67c-0.2-0.2-0.3-0.5-0.1-0.7c0.2-0.2,0.5-0.3,0.7-0.1
					l0.8,0.6c0.2,0.2,0.3,0.5,0.1,0.7C48.9,67.6,48.8,67.7,48.6,67.7z M45.3,65.4c-0.1,0-0.2,0-0.3-0.1l-0.8-0.6
					c-0.2-0.2-0.3-0.5-0.1-0.7c0.2-0.2,0.5-0.3,0.7-0.1l0.8,0.6c0.2,0.2,0.3,0.5,0.1,0.7C45.6,65.3,45.4,65.4,45.3,65.4z M41.9,63.1
					c-0.1,0-0.2,0-0.3-0.1l-0.8-0.6c-0.2-0.2-0.3-0.5-0.1-0.7c0.2-0.2,0.5-0.3,0.7-0.1l0.8,0.6c0.2,0.2,0.3,0.5,0.1,0.7
					C42.2,63,42.1,63.1,41.9,63.1z M38.6,60.8c-0.1,0-0.2,0-0.3-0.1l-0.8-0.6c-0.2-0.2-0.3-0.5-0.1-0.7c0.2-0.2,0.5-0.3,0.7-0.1
					l0.8,0.6c0.2,0.2,0.3,0.5,0.1,0.7C38.9,60.7,38.8,60.8,38.6,60.8z M35.3,58.5c-0.1,0-0.2,0-0.3-0.1l-0.8-0.6
					c-0.2-0.2-0.3-0.5-0.1-0.7c0.2-0.2,0.5-0.3,0.7-0.1l0.8,0.6c0.2,0.2,0.3,0.5,0.1,0.7C35.6,58.4,35.4,58.5,35.3,58.5z M31.9,56.2
					c-0.1,0-0.2,0-0.3-0.1l-0.8-0.6c-0.2-0.2-0.3-0.5-0.1-0.7c0.2-0.2,0.5-0.3,0.7-0.1l0.8,0.6c0.2,0.2,0.3,0.5,0.1,0.7
					C32.2,56.1,32.1,56.2,31.9,56.2z M28.6,53.9c-0.1,0-0.2,0-0.3-0.1l-0.8-0.6c-0.2-0.2-0.3-0.5-0.1-0.7c0.2-0.2,0.5-0.3,0.7-0.1
					l0.8,0.6c0.2,0.2,0.3,0.5,0.1,0.7C28.9,53.8,28.8,53.9,28.6,53.9z M25.3,51.6c-0.1,0-0.2,0-0.3-0.1l-0.8-0.6
					c-0.2-0.2-0.3-0.5-0.1-0.7c0.2-0.2,0.5-0.3,0.7-0.1l0.8,0.6c0.2,0.2,0.3,0.5,0.1,0.7C25.6,51.5,25.4,51.6,25.3,51.6z"/>
			</g>
			<g>
				<path d="M21.9,49.3c-0.1,0-0.2,0-0.3-0.1l-0.4-0.3c-0.2-0.2-0.3-0.5-0.1-0.7c0.2-0.2,0.5-0.3,0.7-0.1l0.4,0.3
					c0.2,0.2,0.3,0.5,0.1,0.7C22.2,49.2,22.1,49.3,21.9,49.3z"/>
			</g>
		</g>
		<g>
			<g>
				<path d="M109.5,220.8c0,0-0.1,0-0.1,0l-1-0.3c-0.3-0.1-0.4-0.3-0.4-0.6s0.3-0.4,0.6-0.4l1,0.3c0.3,0.1,0.4,0.3,0.4,0.6
					C110,220.6,109.8,220.8,109.5,220.8z M112.4,220.5c-0.2,0-0.4-0.1-0.5-0.4c-0.1-0.3,0.1-0.5,0.4-0.6l1-0.3
					c0.3-0.1,0.5,0.1,0.6,0.4s-0.1,0.5-0.4,0.6l-1,0.3C112.5,220.5,112.5,220.5,112.4,220.5z M105.7,219.7c0,0-0.1,0-0.1,0l-1-0.3
					c-0.3-0.1-0.4-0.3-0.4-0.6c0.1-0.3,0.3-0.4,0.6-0.4l1,0.3c0.3,0.1,0.4,0.3,0.4,0.6C106.1,219.6,105.9,219.7,105.7,219.7z
					 M116.3,219.5c-0.2,0-0.4-0.1-0.5-0.4c-0.1-0.3,0.1-0.5,0.4-0.6l1-0.3c0.3-0.1,0.5,0.1,0.6,0.4s-0.1,0.5-0.4,0.6l-1,0.3
					C116.4,219.5,116.3,219.5,116.3,219.5z M101.8,218.7c0,0-0.1,0-0.1,0l-1-0.3c-0.3-0.1-0.4-0.3-0.4-0.6c0.1-0.3,0.3-0.4,0.6-0.4
					l1,0.3c0.3,0.1,0.4,0.3,0.4,0.6C102.3,218.5,102.1,218.7,101.8,218.7z M120.2,218.4c-0.2,0-0.4-0.1-0.5-0.4
					c-0.1-0.3,0.1-0.5,0.4-0.6l1-0.3c0.3-0.1,0.5,0.1,0.6,0.4c0.1,0.3-0.1,0.5-0.4,0.6l-1,0.3C120.2,218.4,120.2,218.4,120.2,218.4z
					 M98,217.7c0,0-0.1,0-0.1,0l-1-0.3c-0.3-0.1-0.4-0.3-0.4-0.6c0.1-0.3,0.3-0.4,0.6-0.4l1,0.3c0.3,0.1,0.4,0.3,0.4,0.6
					C98.4,217.5,98.2,217.7,98,217.7z M124,217.4c-0.2,0-0.4-0.1-0.5-0.4c-0.1-0.3,0.1-0.5,0.4-0.6l1-0.3c0.3-0.1,0.5,0.1,0.6,0.4
					c0.1,0.3-0.1,0.5-0.4,0.6l-1,0.3C124.1,217.4,124.1,217.4,124,217.4z M94.1,216.6c0,0-0.1,0-0.1,0l-1-0.3
					c-0.3-0.1-0.4-0.3-0.4-0.6c0.1-0.3,0.3-0.4,0.6-0.4l1,0.3c0.3,0.1,0.4,0.3,0.4,0.6C94.5,216.5,94.3,216.6,94.1,216.6z
					 M127.9,216.4c-0.2,0-0.4-0.1-0.5-0.4c-0.1-0.3,0.1-0.5,0.4-0.6l1-0.3c0.3-0.1,0.5,0.1,0.6,0.4c0.1,0.3-0.1,0.5-0.4,0.6l-1,0.3
					C128,216.4,127.9,216.4,127.9,216.4z M90.3,215.6c0,0-0.1,0-0.1,0l-1-0.3c-0.3-0.1-0.4-0.3-0.4-0.6c0.1-0.3,0.3-0.4,0.6-0.4
					l1,0.3c0.3,0.1,0.4,0.3,0.4,0.6C90.7,215.4,90.5,215.6,90.3,215.6z M131.7,215.3c-0.2,0-0.4-0.1-0.5-0.4
					c-0.1-0.3,0.1-0.5,0.4-0.6l1-0.3c0.3-0.1,0.5,0.1,0.6,0.4c0.1,0.3-0.1,0.5-0.4,0.6l-1,0.3C131.8,215.3,131.8,215.3,131.7,215.3z
					 M86.4,214.6c0,0-0.1,0-0.1,0l-1-0.3c-0.3-0.1-0.4-0.3-0.4-0.6c0.1-0.3,0.3-0.4,0.6-0.4l1,0.3c0.3,0.1,0.4,0.3,0.4,0.6
					C86.8,214.4,86.6,214.6,86.4,214.6z M135.6,214.3c-0.2,0-0.4-0.1-0.5-0.4c-0.1-0.3,0.1-0.5,0.4-0.6l1-0.3
					c0.3-0.1,0.5,0.1,0.6,0.4c0.1,0.3-0.1,0.5-0.4,0.6l-1,0.3C135.7,214.3,135.6,214.3,135.6,214.3z M82.5,213.5c0,0-0.1,0-0.1,0
					l-1-0.3c-0.3-0.1-0.4-0.3-0.4-0.6c0.1-0.3,0.3-0.4,0.6-0.4l1,0.3c0.3,0.1,0.4,0.3,0.4,0.6C83,213.4,82.8,213.5,82.5,213.5z
					 M139.5,213.3c-0.2,0-0.4-0.1-0.5-0.4c-0.1-0.3,0.1-0.5,0.4-0.6l1-0.3c0.3-0.1,0.5,0.1,0.6,0.4c0.1,0.3-0.1,0.5-0.4,0.6l-1,0.3
					C139.5,213.3,139.5,213.3,139.5,213.3z M78.7,212.5c0,0-0.1,0-0.1,0l-1-0.3c-0.3-0.1-0.4-0.3-0.4-0.6c0.1-0.3,0.3-0.4,0.6-0.4
					l1,0.3c0.3,0.1,0.4,0.3,0.4,0.6C79.1,212.3,78.9,212.5,78.7,212.5z M143.3,212.2c-0.2,0-0.4-0.1-0.5-0.4
					c-0.1-0.3,0.1-0.5,0.4-0.6l1-0.3c0.3-0.1,0.5,0.1,0.6,0.4c0.1,0.3-0.1,0.5-0.4,0.6l-1,0.3C143.4,212.2,143.4,212.2,143.3,212.2z
					 M74.8,211.5c0,0-0.1,0-0.1,0l-1-0.3c-0.3-0.1-0.4-0.3-0.4-0.6c0.1-0.3,0.3-0.4,0.6-0.4l1,0.3c0.3,0.1,0.4,0.3,0.4,0.6
					C75.2,211.3,75,211.5,74.8,211.5z M147.2,211.2c-0.2,0-0.4-0.1-0.5-0.4c-0.1-0.3,0.1-0.5,0.4-0.6l1-0.3c0.3-0.1,0.5,0.1,0.6,0.4
					c0.1,0.3-0.1,0.5-0.4,0.6l-1,0.3C147.3,211.2,147.2,211.2,147.2,211.2z M71,210.4c0,0-0.1,0-0.1,0l-1-0.3
					c-0.3-0.1-0.4-0.3-0.4-0.6c0.1-0.3,0.3-0.4,0.6-0.4l1,0.3c0.3,0.1,0.4,0.3,0.4,0.6C71.4,210.3,71.2,210.4,71,210.4z M151,210.2
					c-0.2,0-0.4-0.1-0.5-0.4c-0.1-0.3,0.1-0.5,0.4-0.6l1-0.3c0.3-0.1,0.5,0.1,0.6,0.4c0.1,0.3-0.1,0.5-0.4,0.6l-1,0.3
					C151.1,210.2,151.1,210.2,151,210.2z M67.1,209.4c0,0-0.1,0-0.1,0l-1-0.3c-0.3-0.1-0.4-0.3-0.4-0.6c0.1-0.3,0.3-0.4,0.6-0.4
					l1,0.3c0.3,0.1,0.4,0.3,0.4,0.6C67.5,209.2,67.3,209.4,67.1,209.4z M154.9,209.1c-0.2,0-0.4-0.1-0.5-0.4
					c-0.1-0.3,0.1-0.5,0.4-0.6l1-0.3c0.3-0.1,0.5,0.1,0.6,0.4c0.1,0.3-0.1,0.5-0.4,0.6l-1,0.3C155,209.1,154.9,209.1,154.9,209.1z
					 M63.2,208.4c0,0-0.1,0-0.1,0l-1-0.3c-0.3-0.1-0.4-0.3-0.4-0.6c0.1-0.3,0.3-0.4,0.6-0.4l1,0.3c0.3,0.1,0.4,0.3,0.4,0.6
					C63.7,208.2,63.5,208.4,63.2,208.4z M158.8,208.1c-0.2,0-0.4-0.1-0.5-0.4c-0.1-0.3,0.1-0.5,0.4-0.6l1-0.3
					c0.3-0.1,0.5,0.1,0.6,0.4c0.1,0.3-0.1,0.5-0.4,0.6l-1,0.3C158.8,208.1,158.8,208.1,158.8,208.1z M59.4,207.3c0,0-0.1,0-0.1,0
					l-1-0.3c-0.3-0.1-0.4-0.3-0.4-0.6c0.1-0.3,0.3-0.4,0.6-0.4l1,0.3c0.3,0.1,0.4,0.3,0.4,0.6C59.8,207.2,59.6,207.3,59.4,207.3z
					 M162.6,207.1c-0.2,0-0.4-0.1-0.5-0.4c-0.1-0.3,0.1-0.5,0.4-0.6l1-0.3c0.3-0.1,0.5,0.1,0.6,0.4c0.1,0.3-0.1,0.5-0.4,0.6l-1,0.3
					C162.7,207.1,162.7,207.1,162.6,207.1z M55.5,206.3c-0.1,0-0.3,0-0.4-0.1l-0.7-0.7c-0.2-0.2-0.2-0.5,0-0.7s0.5-0.2,0.7,0
					l0.7,0.7c0.2,0.2,0.2,0.5,0,0.7C55.8,206.2,55.6,206.3,55.5,206.3z M166.2,205.6c-0.1,0-0.3,0-0.4-0.1c-0.2-0.2-0.2-0.5,0-0.7
					l0.7-0.7c0.2-0.2,0.5-0.2,0.7,0s0.2,0.5,0,0.7l-0.7,0.7C166.5,205.5,166.3,205.6,166.2,205.6z M52.7,203.5c-0.1,0-0.3,0-0.4-0.1
					l-0.7-0.7c-0.2-0.2-0.2-0.5,0-0.7s0.5-0.2,0.7,0l0.7,0.7c0.2,0.2,0.2,0.5,0,0.7C52.9,203.4,52.8,203.5,52.7,203.5z M169,202.8
					c-0.1,0-0.3,0-0.4-0.1c-0.2-0.2-0.2-0.5,0-0.7l0.7-0.7c0.2-0.2,0.5-0.2,0.7,0s0.2,0.5,0,0.7l-0.7,0.7
					C169.3,202.7,169.2,202.8,169,202.8z M49.9,200.6c-0.1,0-0.3,0-0.4-0.1l-0.7-0.7c-0.2-0.2-0.2-0.5,0-0.7s0.5-0.2,0.7,0l0.7,0.7
					c0.2,0.2,0.2,0.5,0,0.7C50.1,200.6,50,200.6,49.9,200.6z M171.9,199.9c-0.1,0-0.3,0-0.4-0.1c-0.2-0.2-0.2-0.5,0-0.7l0.7-0.7
					c0.2-0.2,0.5-0.2,0.7,0s0.2,0.5,0,0.7l-0.7,0.7C172.1,199.9,172,199.9,171.9,199.9z M47,197.8c-0.1,0-0.3,0-0.4-0.1L46,197
					c-0.2-0.2-0.2-0.5,0-0.7s0.5-0.2,0.7,0l0.7,0.7c0.2,0.2,0.2,0.5,0,0.7C47.3,197.8,47.2,197.8,47,197.8z M174.7,197.1
					c-0.1,0-0.3,0-0.4-0.1c-0.2-0.2-0.2-0.5,0-0.7l0.7-0.7c0.2-0.2,0.5-0.2,0.7,0s0.2,0.5,0,0.7L175,197
					C175,197.1,174.8,197.1,174.7,197.1z M44.2,195c-0.1,0-0.3,0-0.4-0.1l-0.7-0.7c-0.2-0.2-0.2-0.5,0-0.7s0.5-0.2,0.7,0l0.7,0.7
					c0.2,0.2,0.2,0.5,0,0.7C44.5,194.9,44.3,195,44.2,195z M177.5,194.3c-0.1,0-0.3,0-0.4-0.1c-0.2-0.2-0.2-0.5,0-0.7l0.7-0.7
					c0.2-0.2,0.5-0.2,0.7,0s0.2,0.5,0,0.7l-0.7,0.7C177.8,194.2,177.6,194.3,177.5,194.3z M41.4,192.2c-0.1,0-0.3,0-0.4-0.1
					l-0.7-0.7c-0.2-0.2-0.2-0.5,0-0.7s0.5-0.2,0.7,0l0.7,0.7c0.2,0.2,0.2,0.5,0,0.7C41.6,192.1,41.5,192.2,41.4,192.2z M180.3,191.5
					c-0.1,0-0.3,0-0.4-0.1c-0.2-0.2-0.2-0.5,0-0.7l0.7-0.7c0.2-0.2,0.5-0.2,0.7,0s0.2,0.5,0,0.7l-0.7,0.7
					C180.6,191.4,180.5,191.5,180.3,191.5z M38.6,189.3c-0.1,0-0.3,0-0.4-0.1l-0.7-0.7c-0.2-0.2-0.2-0.5,0-0.7s0.5-0.2,0.7,0
					l0.7,0.7c0.2,0.2,0.2,0.5,0,0.7C38.8,189.3,38.7,189.3,38.6,189.3z M183.2,188.6c-0.1,0-0.3,0-0.4-0.1c-0.2-0.2-0.2-0.5,0-0.7
					l0.7-0.7c0.2-0.2,0.5-0.2,0.7,0s0.2,0.5,0,0.7l-0.7,0.7C183.4,188.6,183.3,188.6,183.2,188.6z M35.7,186.5c-0.1,0-0.3,0-0.4-0.1
					l-0.7-0.7c-0.2-0.2-0.2-0.5,0-0.7s0.5-0.2,0.7,0l0.7,0.7c0.2,0.2,0.2,0.5,0,0.7C36,186.5,35.9,186.5,35.7,186.5z M186,185.8
					c-0.1,0-0.3,0-0.4-0.1c-0.2-0.2-0.2-0.5,0-0.7l0.7-0.7c0.2-0.2,0.5-0.2,0.7,0s0.2,0.5,0,0.7l-0.7,0.7
					C186.3,185.8,186.1,185.8,186,185.8z M32.9,183.7c-0.1,0-0.3,0-0.4-0.1l-0.7-0.7c-0.2-0.2-0.2-0.5,0-0.7s0.5-0.2,0.7,0l0.7,0.7
					c0.2,0.2,0.2,0.5,0,0.7C33.2,183.6,33,183.7,32.9,183.7z M188.8,183c-0.1,0-0.3,0-0.4-0.1c-0.2-0.2-0.2-0.5,0-0.7l0.7-0.7
					c0.2-0.2,0.5-0.2,0.7,0s0.2,0.5,0,0.7l-0.7,0.7C189.1,182.9,188.9,183,188.8,183z M30.1,180.9c-0.1,0-0.3,0-0.4-0.1L29,180
					c-0.2-0.2-0.2-0.5,0-0.7s0.5-0.2,0.7,0l0.7,0.7c0.2,0.2,0.2,0.5,0,0.7C30.3,180.8,30.2,180.9,30.1,180.9z M191.6,180.1
					c-0.1,0-0.3,0-0.4-0.1c-0.2-0.2-0.2-0.5,0-0.7l0.7-0.7c0.2-0.2,0.5-0.2,0.7,0s0.2,0.5,0,0.7L192,180
					C191.9,180.1,191.8,180.1,191.6,180.1z M27.3,178c-0.1,0-0.3,0-0.4-0.1l-0.7-0.7c-0.2-0.2-0.2-0.5,0-0.7s0.5-0.2,0.7,0l0.7,0.7
					c0.2,0.2,0.2,0.5,0,0.7C27.5,178,27.4,178,27.3,178z M194.5,177.3c-0.1,0-0.3,0-0.4-0.1c-0.2-0.2-0.2-0.5,0-0.7l0.7-0.7
					c0.2-0.2,0.5-0.2,0.7,0s0.2,0.5,0,0.7l-0.7,0.7C194.7,177.3,194.6,177.3,194.5,177.3z M24.4,175.2c-0.1,0-0.3,0-0.4-0.1
					l-0.7-0.7c-0.2-0.2-0.2-0.5,0-0.7s0.5-0.2,0.7,0l0.7,0.7c0.2,0.2,0.2,0.5,0,0.7C24.7,175.2,24.6,175.2,24.4,175.2z M197.3,174.5
					c-0.1,0-0.3,0-0.4-0.1c-0.2-0.2-0.2-0.5,0-0.7l0.7-0.7c0.2-0.2,0.5-0.2,0.7,0s0.2,0.5,0,0.7l-0.7,0.7
					C197.6,174.4,197.4,174.5,197.3,174.5z M21.6,172.4c-0.1,0-0.3,0-0.4-0.1l-0.7-0.7c-0.2-0.2-0.2-0.5,0-0.7s0.5-0.2,0.7,0
					l0.7,0.7c0.2,0.2,0.2,0.5,0,0.7C21.9,172.3,21.7,172.4,21.6,172.4z M200.1,171.7c-0.1,0-0.3,0-0.4-0.1c-0.2-0.2-0.2-0.5,0-0.7
					l0.7-0.7c0.2-0.2,0.5-0.2,0.7,0s0.2,0.5,0,0.7l-0.7,0.7C200.4,171.6,200.3,171.7,200.1,171.7z M18.8,169.6c-0.1,0-0.3,0-0.4-0.1
					l-0.7-0.7c-0.2-0.2-0.2-0.5,0-0.7s0.5-0.2,0.7,0l0.7,0.7c0.2,0.2,0.2,0.5,0,0.7C19,169.5,18.9,169.6,18.8,169.6z M202.9,168.8
					c-0.1,0-0.3,0-0.4-0.1c-0.2-0.2-0.2-0.5,0-0.7l0.7-0.7c0.2-0.2,0.5-0.2,0.7,0s0.2,0.5,0,0.7l-0.7,0.7
					C203.2,168.8,203.1,168.8,202.9,168.8z M16,166.7c-0.1,0-0.3,0-0.4-0.1l-0.8-0.8l0-0.1c-0.1-0.3,0.1-0.5,0.4-0.6
					c0.2,0,0.4,0,0.5,0.2l0.7,0.7c0.2,0.2,0.2,0.5,0,0.7C16.2,166.7,16.1,166.7,16,166.7z M205.8,166c0,0-0.1,0-0.1,0
					c-0.3-0.1-0.4-0.3-0.4-0.6l0.3-1c0.1-0.3,0.3-0.4,0.6-0.4c0.3,0.1,0.4,0.3,0.4,0.6l-0.3,1C206.2,165.9,206,166,205.8,166z
					 M14.5,163.1c-0.2,0-0.4-0.1-0.5-0.4l-0.3-1c-0.1-0.3,0.1-0.5,0.4-0.6c0.3-0.1,0.5,0.1,0.6,0.4l0.3,1c0.1,0.3-0.1,0.5-0.4,0.6
					C14.6,163.1,14.5,163.1,14.5,163.1z M206.8,162.2c0,0-0.1,0-0.1,0c-0.3-0.1-0.4-0.3-0.4-0.6l0.3-1c0.1-0.3,0.3-0.4,0.6-0.4
					c0.3,0.1,0.4,0.3,0.4,0.6l-0.3,1C207.2,162,207,162.2,206.8,162.2z M13.4,159.3c-0.2,0-0.4-0.1-0.5-0.4l-0.3-1
					c-0.1-0.3,0.1-0.5,0.4-0.6c0.3-0.1,0.5,0.1,0.6,0.4l0.3,1c0.1,0.3-0.1,0.5-0.4,0.6C13.5,159.3,13.5,159.3,13.4,159.3z
					 M207.8,158.3c0,0-0.1,0-0.1,0c-0.3-0.1-0.4-0.3-0.4-0.6l0.3-1c0.1-0.3,0.3-0.4,0.6-0.4c0.3,0.1,0.4,0.3,0.4,0.6l-0.3,1
					C208.3,158.2,208.1,158.3,207.8,158.3z M12.4,155.4c-0.2,0-0.4-0.1-0.5-0.4l-0.3-1c-0.1-0.3,0.1-0.5,0.4-0.6
					c0.3-0.1,0.5,0.1,0.6,0.4l0.3,1c0.1,0.3-0.1,0.5-0.4,0.6C12.5,155.4,12.5,155.4,12.4,155.4z M208.9,154.4c0,0-0.1,0-0.1,0
					c-0.3-0.1-0.4-0.3-0.4-0.6l0.3-1c0.1-0.3,0.3-0.4,0.6-0.4c0.3,0.1,0.4,0.3,0.4,0.6l-0.3,1C209.3,154.3,209.1,154.4,208.9,154.4z
					 M11.4,151.5c-0.2,0-0.4-0.1-0.5-0.4l-0.3-1c-0.1-0.3,0.1-0.5,0.4-0.6c0.3-0.1,0.5,0.1,0.6,0.4l0.3,1c0.1,0.3-0.1,0.5-0.4,0.6
					C11.5,151.5,11.4,151.5,11.4,151.5z M209.9,150.6c0,0-0.1,0-0.1,0c-0.3-0.1-0.4-0.3-0.4-0.6l0.3-1c0.1-0.3,0.3-0.4,0.6-0.4
					c0.3,0.1,0.4,0.3,0.4,0.6l-0.3,1C210.3,150.4,210.1,150.6,209.9,150.6z M10.3,147.7c-0.2,0-0.4-0.1-0.5-0.4l-0.3-1
					c-0.1-0.3,0.1-0.5,0.4-0.6c0.3-0.1,0.5,0.1,0.6,0.4l0.3,1c0.1,0.3-0.1,0.5-0.4,0.6C10.4,147.7,10.4,147.7,10.3,147.7z
					 M210.9,146.7c0,0-0.1,0-0.1,0c-0.3-0.1-0.4-0.3-0.4-0.6l0.3-1c0.1-0.3,0.3-0.4,0.6-0.4c0.3,0.1,0.4,0.3,0.4,0.6l-0.3,1
					C211.4,146.6,211.2,146.7,210.9,146.7z M9.3,143.8c-0.2,0-0.4-0.1-0.5-0.4l-0.3-1c-0.1-0.3,0.1-0.5,0.4-0.6
					c0.3-0.1,0.5,0.1,0.6,0.4l0.3,1c0.1,0.3-0.1,0.5-0.4,0.6C9.4,143.8,9.4,143.8,9.3,143.8z M212,142.9c0,0-0.1,0-0.1,0
					c-0.3-0.1-0.4-0.3-0.4-0.6l0.3-1c0.1-0.3,0.3-0.4,0.6-0.4c0.3,0.1,0.4,0.3,0.4,0.6l-0.3,1C212.4,142.7,212.2,142.9,212,142.9z
					 M8.3,140c-0.2,0-0.4-0.1-0.5-0.4l-0.3-1c-0.1-0.3,0.1-0.5,0.4-0.6c0.3-0.1,0.5,0.1,0.6,0.4l0.3,1c0.1,0.3-0.1,0.5-0.4,0.6
					C8.4,140,8.3,140,8.3,140z M213,139c0,0-0.1,0-0.1,0c-0.3-0.1-0.4-0.3-0.4-0.6l0.3-1c0.1-0.3,0.3-0.4,0.6-0.4
					c0.3,0.1,0.4,0.3,0.4,0.6l-0.3,1C213.4,138.9,213.2,139,213,139z M7.2,136.1c-0.2,0-0.4-0.1-0.5-0.4l-0.3-1
					c-0.1-0.3,0.1-0.5,0.4-0.6c0.3-0.1,0.5,0.1,0.6,0.4l0.3,1c0.1,0.3-0.1,0.5-0.4,0.6C7.3,136.1,7.3,136.1,7.2,136.1z M214,135.1
					c0,0-0.1,0-0.1,0c-0.3-0.1-0.4-0.3-0.4-0.6l0.3-1c0.1-0.3,0.3-0.4,0.6-0.4c0.3,0.1,0.4,0.3,0.4,0.6l-0.3,1
					C214.5,135,214.3,135.1,214,135.1z M6.2,132.2c-0.2,0-0.4-0.1-0.5-0.4l-0.3-1c-0.1-0.3,0.1-0.5,0.4-0.6c0.3-0.1,0.5,0.1,0.6,0.4
					l0.3,1c0.1,0.3-0.1,0.5-0.4,0.6C6.3,132.2,6.2,132.2,6.2,132.2z M215.1,131.3c0,0-0.1,0-0.1,0c-0.3-0.1-0.4-0.3-0.4-0.6l0.3-1
					c0.1-0.3,0.3-0.4,0.6-0.4c0.3,0.1,0.4,0.3,0.4,0.6l-0.3,1C215.5,131.1,215.3,131.3,215.1,131.3z M5.2,128.4
					c-0.2,0-0.4-0.1-0.5-0.4l-0.3-1c-0.1-0.3,0.1-0.5,0.4-0.6c0.3-0.1,0.5,0.1,0.6,0.4l0.3,1c0.1,0.3-0.1,0.5-0.4,0.6
					C5.3,128.4,5.2,128.4,5.2,128.4z M216.1,127.4c0,0-0.1,0-0.1,0c-0.3-0.1-0.4-0.3-0.4-0.6l0.3-1c0.1-0.3,0.3-0.4,0.6-0.4
					c0.3,0.1,0.4,0.3,0.4,0.6l-0.3,1C216.5,127.3,216.3,127.4,216.1,127.4z M4.1,124.5c-0.2,0-0.4-0.1-0.5-0.4l-0.3-1
					c-0.1-0.3,0.1-0.5,0.4-0.6c0.3-0.1,0.5,0.1,0.6,0.4l0.3,1c0.1,0.3-0.1,0.5-0.4,0.6C4.2,124.5,4.2,124.5,4.1,124.5z M217.1,123.6
					c0,0-0.1,0-0.1,0c-0.3-0.1-0.4-0.3-0.4-0.6l0.3-1c0.1-0.3,0.3-0.4,0.6-0.4c0.3,0.1,0.4,0.3,0.4,0.6l-0.3,1
					C217.6,123.4,217.4,123.6,217.1,123.6z M3.1,120.7c-0.2,0-0.4-0.1-0.5-0.4l-0.3-1c-0.1-0.3,0.1-0.5,0.4-0.6
					c0.3-0.1,0.5,0.1,0.6,0.4l0.3,1c0.1,0.3-0.1,0.5-0.4,0.6C3.2,120.7,3.1,120.7,3.1,120.7z M218.2,119.7c0,0-0.1,0-0.1,0
					c-0.3-0.1-0.4-0.3-0.4-0.6l0.3-1c0.1-0.3,0.3-0.4,0.6-0.4c0.3,0.1,0.4,0.3,0.4,0.6l-0.3,1C218.6,119.6,218.4,119.7,218.2,119.7z
					 M2.1,116.8c-0.2,0-0.4-0.1-0.5-0.4l-0.3-1c-0.1-0.3,0.1-0.5,0.4-0.6c0.3-0.1,0.5,0.1,0.6,0.4l0.3,1c0.1,0.3-0.1,0.5-0.4,0.6
					C2.2,116.8,2.1,116.8,2.1,116.8z M219.2,115.8c0,0-0.1,0-0.1,0c-0.3-0.1-0.4-0.3-0.4-0.6l0.3-1c0.1-0.3,0.3-0.4,0.6-0.4
					c0.3,0.1,0.4,0.3,0.4,0.6l-0.3,1C219.6,115.7,219.4,115.8,219.2,115.8z M1,113c-0.2,0-0.4-0.1-0.5-0.4l-0.3-1
					c-0.1-0.3,0.1-0.5,0.4-0.6c0.3-0.1,0.5,0.1,0.6,0.4l0.3,1c0.1,0.3-0.1,0.5-0.4,0.6C1.1,112.9,1.1,113,1,113z M220.2,112
					c0,0-0.1,0-0.1,0c-0.3-0.1-0.4-0.3-0.4-0.6l0.3-1c0.1-0.3,0.3-0.4,0.6-0.4c0.3,0.1,0.4,0.3,0.4,0.6l-0.3,1
					C220.7,111.8,220.5,112,220.2,112z M1,109.1c0,0-0.1,0-0.1,0c-0.3-0.1-0.4-0.3-0.4-0.6l0.3-1c0.1-0.3,0.3-0.4,0.6-0.4
					c0.3,0.1,0.4,0.3,0.4,0.6l-0.3,1C1.5,108.9,1.3,109.1,1,109.1z M219.7,108.1c-0.2,0-0.4-0.1-0.5-0.4l-0.3-1
					c-0.1-0.3,0.1-0.5,0.4-0.6c0.3-0.1,0.5,0.1,0.6,0.4l0.3,1c0.1,0.3-0.1,0.5-0.4,0.6C219.8,108.1,219.8,108.1,219.7,108.1z
					 M2.1,105.2c0,0-0.1,0-0.1,0c-0.3-0.1-0.4-0.3-0.4-0.6l0.3-1c0.1-0.3,0.3-0.4,0.6-0.4c0.3,0.1,0.4,0.3,0.4,0.6l-0.3,1
					C2.5,105.1,2.3,105.2,2.1,105.2z M218.7,104.3c-0.2,0-0.4-0.1-0.5-0.4l-0.3-1c-0.1-0.3,0.1-0.5,0.4-0.6c0.3-0.1,0.5,0.1,0.6,0.4
					l0.3,1c0.1,0.3-0.1,0.5-0.4,0.6C218.8,104.3,218.7,104.3,218.7,104.3z M3.1,101.4c0,0-0.1,0-0.1,0c-0.3-0.1-0.4-0.3-0.4-0.6
					l0.3-1c0.1-0.3,0.3-0.4,0.6-0.4c0.3,0.1,0.4,0.3,0.4,0.6l-0.3,1C3.5,101.2,3.3,101.4,3.1,101.4z M217.7,100.4
					c-0.2,0-0.4-0.1-0.5-0.4l-0.3-1c-0.1-0.3,0.1-0.5,0.4-0.6c0.3-0.1,0.5,0.1,0.6,0.4l0.3,1c0.1,0.3-0.1,0.5-0.4,0.6
					C217.8,100.4,217.7,100.4,217.7,100.4z M4.1,97.5c0,0-0.1,0-0.1,0c-0.3-0.1-0.4-0.3-0.4-0.6l0.3-1c0.1-0.3,0.3-0.4,0.6-0.4
					c0.3,0.1,0.4,0.3,0.4,0.6l-0.3,1C4.6,97.4,4.4,97.5,4.1,97.5z M216.6,96.5c-0.2,0-0.4-0.1-0.5-0.4l-0.3-1
					c-0.1-0.3,0.1-0.5,0.4-0.6c0.3-0.1,0.5,0.1,0.6,0.4l0.3,1c0.1,0.3-0.1,0.5-0.4,0.6C216.7,96.5,216.7,96.5,216.6,96.5z M5.2,93.7
					c0,0-0.1,0-0.1,0c-0.3-0.1-0.4-0.3-0.4-0.6l0.3-1c0.1-0.3,0.3-0.4,0.6-0.4c0.3,0.1,0.4,0.3,0.4,0.6l-0.3,1
					C5.6,93.5,5.4,93.7,5.2,93.7z M215.6,92.7c-0.2,0-0.4-0.1-0.5-0.4l-0.3-1c-0.1-0.3,0.1-0.5,0.4-0.6c0.3-0.1,0.5,0.1,0.6,0.4
					l0.3,1c0.1,0.3-0.1,0.5-0.4,0.6C215.7,92.7,215.6,92.7,215.6,92.7z M6.2,89.8c0,0-0.1,0-0.1,0c-0.3-0.1-0.4-0.3-0.4-0.6l0.3-1
					c0.1-0.3,0.3-0.4,0.6-0.4c0.3,0.1,0.4,0.3,0.4,0.6l-0.3,1C6.6,89.6,6.4,89.8,6.2,89.8z M214.6,88.8c-0.2,0-0.4-0.1-0.5-0.4
					l-0.3-1c-0.1-0.3,0.1-0.5,0.4-0.6c0.3-0.1,0.5,0.1,0.6,0.4l0.3,1c0.1,0.3-0.1,0.5-0.4,0.6C214.6,88.8,214.6,88.8,214.6,88.8z
					 M7.2,85.9c0,0-0.1,0-0.1,0c-0.3-0.1-0.4-0.3-0.4-0.6l0.3-1c0.1-0.3,0.3-0.4,0.6-0.4c0.3,0.1,0.4,0.3,0.4,0.6l-0.3,1
					C7.7,85.8,7.5,85.9,7.2,85.9z M213.5,85c-0.2,0-0.4-0.1-0.5-0.4l-0.3-1c-0.1-0.3,0.1-0.5,0.4-0.6c0.3-0.1,0.5,0.1,0.6,0.4l0.3,1
					c0.1,0.3-0.1,0.5-0.4,0.6C213.6,85,213.6,85,213.5,85z M8.3,82.1c0,0-0.1,0-0.1,0c-0.3-0.1-0.4-0.3-0.4-0.6l0.3-1
					c0.1-0.3,0.3-0.4,0.6-0.4c0.3,0.1,0.4,0.3,0.4,0.6l-0.3,1C8.7,81.9,8.5,82.1,8.3,82.1z M212.5,81.1c-0.2,0-0.4-0.1-0.5-0.4
					l-0.3-1c-0.1-0.3,0.1-0.5,0.4-0.6c0.3-0.1,0.5,0.1,0.6,0.4l0.3,1c0.1,0.3-0.1,0.5-0.4,0.6C212.6,81.1,212.5,81.1,212.5,81.1z
					 M9.3,78.2c0,0-0.1,0-0.1,0c-0.3-0.1-0.4-0.3-0.4-0.6l0.3-1c0.1-0.3,0.3-0.4,0.6-0.4c0.3,0.1,0.4,0.3,0.4,0.6l-0.3,1
					C9.7,78.1,9.5,78.2,9.3,78.2z M211.5,77.2c-0.2,0-0.4-0.1-0.5-0.4l-0.3-1c-0.1-0.3,0.1-0.5,0.4-0.6c0.3-0.1,0.5,0.1,0.6,0.4
					l0.3,1c0.1,0.3-0.1,0.5-0.4,0.6C211.5,77.2,211.5,77.2,211.5,77.2z M10.3,74.4c0,0-0.1,0-0.1,0c-0.3-0.1-0.4-0.3-0.4-0.6l0.3-1
					c0.1-0.3,0.3-0.4,0.6-0.4c0.3,0.1,0.4,0.3,0.4,0.6l-0.3,1C10.8,74.2,10.6,74.4,10.3,74.4z M210.4,73.4c-0.2,0-0.4-0.1-0.5-0.4
					l-0.3-1c-0.1-0.3,0.1-0.5,0.4-0.6c0.3-0.1,0.5,0.1,0.6,0.4l0.3,1c0.1,0.3-0.1,0.5-0.4,0.6C210.5,73.4,210.5,73.4,210.4,73.4z
					 M11.4,70.5c0,0-0.1,0-0.1,0c-0.3-0.1-0.4-0.3-0.4-0.6l0.3-1c0.1-0.3,0.3-0.4,0.6-0.4c0.3,0.1,0.4,0.3,0.4,0.6l-0.3,1
					C11.8,70.3,11.6,70.5,11.4,70.5z M209.4,69.5c-0.2,0-0.4-0.1-0.5-0.4l-0.3-1c-0.1-0.3,0.1-0.5,0.4-0.6c0.3-0.1,0.5,0.1,0.6,0.4
					l0.3,1c0.1,0.3-0.1,0.5-0.4,0.6C209.5,69.5,209.4,69.5,209.4,69.5z M12.4,66.6c0,0-0.1,0-0.1,0c-0.3-0.1-0.4-0.3-0.4-0.6l0.3-1
					c0.1-0.3,0.3-0.4,0.6-0.4c0.3,0.1,0.4,0.3,0.4,0.6l-0.3,1C12.8,66.5,12.6,66.6,12.4,66.6z M208.4,65.7c-0.2,0-0.4-0.1-0.5-0.4
					l-0.3-1c-0.1-0.3,0.1-0.5,0.4-0.6c0.3-0.1,0.5,0.1,0.6,0.4l0.3,1c0.1,0.3-0.1,0.5-0.4,0.6C208.4,65.7,208.4,65.7,208.4,65.7z
					 M13.4,62.8c0,0-0.1,0-0.1,0c-0.3-0.1-0.4-0.3-0.4-0.6l0.3-1c0.1-0.3,0.3-0.4,0.6-0.4c0.3,0.1,0.4,0.3,0.4,0.6l-0.3,1
					C13.9,62.6,13.7,62.8,13.4,62.8z M207.3,61.8c-0.2,0-0.4-0.1-0.5-0.4l-0.3-1c-0.1-0.3,0.1-0.5,0.4-0.6c0.3-0.1,0.5,0.1,0.6,0.4
					l0.3,1c0.1,0.3-0.1,0.5-0.4,0.6C207.4,61.8,207.4,61.8,207.3,61.8z M14.5,58.9c0,0-0.1,0-0.1,0c-0.3-0.1-0.4-0.3-0.4-0.6l0.3-1
					c0.1-0.3,0.3-0.4,0.6-0.4c0.3,0.1,0.4,0.3,0.4,0.6l-0.3,1C14.9,58.8,14.7,58.9,14.5,58.9z M206.3,58c-0.2,0-0.4-0.1-0.5-0.4
					l-0.3-1c-0.1-0.3,0.1-0.5,0.4-0.6c0.3-0.1,0.5,0.1,0.6,0.4l0.3,1c0.1,0.3-0.1,0.5-0.4,0.6C206.4,57.9,206.3,58,206.3,58z
					 M16,55.3c-0.1,0-0.3,0-0.4-0.1c-0.2-0.2-0.2-0.5,0-0.7l0.7-0.7c0.2-0.2,0.5-0.2,0.7,0c0.2,0.2,0.2,0.5,0,0.7l-0.7,0.7
					C16.2,55.3,16.1,55.3,16,55.3z M204.4,54.6c-0.1,0-0.3,0-0.4-0.1l-0.7-0.7c-0.2-0.2-0.2-0.5,0-0.7c0.2-0.2,0.5-0.2,0.7,0
					l0.7,0.7c0.2,0.2,0.2,0.5,0,0.7C204.6,54.6,204.5,54.6,204.4,54.6z M18.8,52.5c-0.1,0-0.3,0-0.4-0.1c-0.2-0.2-0.2-0.5,0-0.7
					l0.7-0.7c0.2-0.2,0.5-0.2,0.7,0s0.2,0.5,0,0.7l-0.7,0.7C19,52.4,18.9,52.5,18.8,52.5z M201.5,51.8c-0.1,0-0.3,0-0.4-0.1
					l-0.7-0.7c-0.2-0.2-0.2-0.5,0-0.7s0.5-0.2,0.7,0l0.7,0.7c0.2,0.2,0.2,0.5,0,0.7C201.8,51.7,201.7,51.8,201.5,51.8z M21.6,49.7
					c-0.1,0-0.3,0-0.4-0.1c-0.2-0.2-0.2-0.5,0-0.7l0.7-0.7c0.2-0.2,0.5-0.2,0.7,0s0.2,0.5,0,0.7L22,49.5
					C21.9,49.6,21.7,49.7,21.6,49.7z M198.7,49c-0.1,0-0.3,0-0.4-0.1l-0.7-0.7c-0.2-0.2-0.2-0.5,0-0.7s0.5-0.2,0.7,0l0.7,0.7
					c0.2,0.2,0.2,0.5,0,0.7C199,48.9,198.8,49,198.7,49z M24.4,46.8c-0.1,0-0.3,0-0.4-0.1c-0.2-0.2-0.2-0.5,0-0.7l0.7-0.7
					c0.2-0.2,0.5-0.2,0.7,0c0.2,0.2,0.2,0.5,0,0.7l-0.7,0.7C24.7,46.8,24.6,46.8,24.4,46.8z M195.9,46.1c-0.1,0-0.3,0-0.4-0.1
					l-0.7-0.7c-0.2-0.2-0.2-0.5,0-0.7s0.5-0.2,0.7,0l0.7,0.7c0.2,0.2,0.2,0.5,0,0.7C196.1,46.1,196,46.1,195.9,46.1z M27.3,44
					c-0.1,0-0.3,0-0.4-0.1c-0.2-0.2-0.2-0.5,0-0.7l0.7-0.7c0.2-0.2,0.5-0.2,0.7,0s0.2,0.5,0,0.7l-0.7,0.7C27.5,44,27.4,44,27.3,44z
					 M193.1,43.3c-0.1,0-0.3,0-0.4-0.1l-0.7-0.7c-0.2-0.2-0.2-0.5,0-0.7c0.2-0.2,0.5-0.2,0.7,0l0.7,0.7c0.2,0.2,0.2,0.5,0,0.7
					C193.3,43.3,193.2,43.3,193.1,43.3z M30.1,41.2c-0.1,0-0.3,0-0.4-0.1c-0.2-0.2-0.2-0.5,0-0.7l0.7-0.7c0.2-0.2,0.5-0.2,0.7,0
					s0.2,0.5,0,0.7L30.4,41C30.3,41.1,30.2,41.2,30.1,41.2z M190.2,40.5c-0.1,0-0.3,0-0.4-0.1l-0.7-0.7c-0.2-0.2-0.2-0.5,0-0.7
					s0.5-0.2,0.7,0l0.7,0.7c0.2,0.2,0.2,0.5,0,0.7C190.5,40.4,190.4,40.5,190.2,40.5z M32.9,38.4c-0.1,0-0.3,0-0.4-0.1
					c-0.2-0.2-0.2-0.5,0-0.7l0.7-0.7c0.2-0.2,0.5-0.2,0.7,0c0.2,0.2,0.2,0.5,0,0.7l-0.7,0.7C33.2,38.3,33,38.4,32.9,38.4z
					 M187.4,37.7c-0.1,0-0.3,0-0.4-0.1l-0.7-0.7c-0.2-0.2-0.2-0.5,0-0.7c0.2-0.2,0.5-0.2,0.7,0l0.7,0.7c0.2,0.2,0.2,0.5,0,0.7
					C187.7,37.6,187.5,37.7,187.4,37.7z M35.7,35.5c-0.1,0-0.3,0-0.4-0.1c-0.2-0.2-0.2-0.5,0-0.7l0.7-0.7c0.2-0.2,0.5-0.2,0.7,0
					s0.2,0.5,0,0.7l-0.7,0.7C36,35.5,35.9,35.5,35.7,35.5z M184.6,34.8c-0.1,0-0.3,0-0.4-0.1l-0.7-0.7c-0.2-0.2-0.2-0.5,0-0.7
					c0.2-0.2,0.5-0.2,0.7,0l0.7,0.7c0.2,0.2,0.2,0.5,0,0.7C184.8,34.8,184.7,34.8,184.6,34.8z M38.6,32.7c-0.1,0-0.3,0-0.4-0.1
					c-0.2-0.2-0.2-0.5,0-0.7l0.7-0.7c0.2-0.2,0.5-0.2,0.7,0s0.2,0.5,0,0.7l-0.7,0.7C38.8,32.7,38.7,32.7,38.6,32.7z M181.8,32
					c-0.1,0-0.3,0-0.4-0.1l-0.7-0.7c-0.2-0.2-0.2-0.5,0-0.7c0.2-0.2,0.5-0.2,0.7,0l0.7,0.7c0.2,0.2,0.2,0.5,0,0.7
					C182,32,181.9,32,181.8,32z M41.4,29.9c-0.1,0-0.3,0-0.4-0.1c-0.2-0.2-0.2-0.5,0-0.7l0.7-0.7c0.2-0.2,0.5-0.2,0.7,0
					c0.2,0.2,0.2,0.5,0,0.7l-0.7,0.7C41.6,29.8,41.5,29.9,41.4,29.9z M178.9,29.2c-0.1,0-0.3,0-0.4-0.1l-0.7-0.7
					c-0.2-0.2-0.2-0.5,0-0.7c0.2-0.2,0.5-0.2,0.7,0l0.7,0.7c0.2,0.2,0.2,0.5,0,0.7C179.2,29.1,179.1,29.2,178.9,29.2z M44.2,27.1
					c-0.1,0-0.3,0-0.4-0.1c-0.2-0.2-0.2-0.5,0-0.7l0.7-0.7c0.2-0.2,0.5-0.2,0.7,0c0.2,0.2,0.2,0.5,0,0.7l-0.7,0.7
					C44.5,27,44.3,27.1,44.2,27.1z M176.1,26.4c-0.1,0-0.3,0-0.4-0.1l-0.7-0.7c-0.2-0.2-0.2-0.5,0-0.7s0.5-0.2,0.7,0l0.7,0.7
					c0.2,0.2,0.2,0.5,0,0.7C176.4,26.3,176.2,26.4,176.1,26.4z M47,24.2c-0.1,0-0.3,0-0.4-0.1c-0.2-0.2-0.2-0.5,0-0.7l0.7-0.7
					c0.2-0.2,0.5-0.2,0.7,0s0.2,0.5,0,0.7l-0.7,0.7C47.3,24.2,47.2,24.2,47,24.2z M173.3,23.5c-0.1,0-0.3,0-0.4-0.1l-0.7-0.7
					c-0.2-0.2-0.2-0.5,0-0.7c0.2-0.2,0.5-0.2,0.7,0l0.7,0.7c0.2,0.2,0.2,0.5,0,0.7C173.5,23.5,173.4,23.5,173.3,23.5z M49.9,21.4
					c-0.1,0-0.3,0-0.4-0.1c-0.2-0.2-0.2-0.5,0-0.7l0.7-0.7c0.2-0.2,0.5-0.2,0.7,0s0.2,0.5,0,0.7l-0.7,0.7
					C50.1,21.4,50,21.4,49.9,21.4z M170.5,20.7c-0.1,0-0.3,0-0.4-0.1l-0.7-0.7c-0.2-0.2-0.2-0.5,0-0.7s0.5-0.2,0.7,0l0.7,0.7
					c0.2,0.2,0.2,0.5,0,0.7C170.7,20.7,170.6,20.7,170.5,20.7z M52.7,18.6c-0.1,0-0.3,0-0.4-0.1c-0.2-0.2-0.2-0.5,0-0.7L53,17
					c0.2-0.2,0.5-0.2,0.7,0c0.2,0.2,0.2,0.5,0,0.7L53,18.4C52.9,18.5,52.8,18.6,52.7,18.6z M167.6,17.9c-0.1,0-0.3,0-0.4-0.1
					l-0.7-0.7c-0.2-0.2-0.2-0.5,0-0.7c0.2-0.2,0.5-0.2,0.7,0L168,17c0.2,0.2,0.2,0.5,0,0.7C167.9,17.8,167.8,17.9,167.6,17.9z
					 M55.5,15.8c-0.2,0-0.4-0.1-0.5-0.4c-0.1-0.3,0.1-0.5,0.4-0.6l1-0.3l0.3,1l-1,0.3C55.6,15.7,55.6,15.8,55.5,15.8z M164.5,15.5
					c0,0-0.1,0-0.1,0l-1-0.3c-0.3-0.1-0.4-0.3-0.4-0.6c0.1-0.3,0.4-0.4,0.6-0.4l1,0.3c0.3,0.1,0.4,0.3,0.4,0.6
					C165,15.3,164.8,15.5,164.5,15.5z M59.4,14.7c-0.2,0-0.4-0.1-0.5-0.4c-0.1-0.3,0.1-0.5,0.4-0.6l1-0.3c0.3-0.1,0.5,0.1,0.6,0.4
					c0.1,0.3-0.1,0.5-0.4,0.6l-1,0.3C59.5,14.7,59.4,14.7,59.4,14.7z M160.7,14.5c0,0-0.1,0-0.1,0l-1-0.3c-0.3-0.1-0.4-0.3-0.4-0.6
					c0.1-0.3,0.3-0.4,0.6-0.4l1,0.3c0.3,0.1,0.4,0.3,0.4,0.6C161.1,14.3,160.9,14.5,160.7,14.5z M63.2,13.7c-0.2,0-0.4-0.1-0.5-0.4
					c-0.1-0.3,0.1-0.5,0.4-0.6l1-0.3c0.3-0.1,0.5,0.1,0.6,0.4c0.1,0.3-0.1,0.5-0.4,0.6l-1,0.3C63.3,13.7,63.3,13.7,63.2,13.7z
					 M156.8,13.4c0,0-0.1,0-0.1,0l-1-0.3c-0.3-0.1-0.4-0.3-0.4-0.6c0.1-0.3,0.3-0.4,0.6-0.4l1,0.3c0.3,0.1,0.4,0.3,0.4,0.6
					C157.3,13.3,157,13.4,156.8,13.4z M67.1,12.7c-0.2,0-0.4-0.1-0.5-0.4c-0.1-0.3,0.1-0.5,0.4-0.6l1-0.3c0.3-0.1,0.5,0.1,0.6,0.4
					c0.1,0.3-0.1,0.5-0.4,0.6l-1,0.3C67.2,12.6,67.1,12.7,67.1,12.7z M153,12.4c0,0-0.1,0-0.1,0l-1-0.3c-0.3-0.1-0.4-0.3-0.4-0.6
					c0.1-0.3,0.3-0.4,0.6-0.4l1,0.3c0.3,0.1,0.4,0.3,0.4,0.6C153.4,12.2,153.2,12.4,153,12.4z M71,11.6c-0.2,0-0.4-0.1-0.5-0.4
					c-0.1-0.3,0.1-0.5,0.4-0.6l1-0.3c0.3-0.1,0.5,0.1,0.6,0.4c0.1,0.3-0.1,0.5-0.4,0.6l-1,0.3C71,11.6,71,11.6,71,11.6z M149.1,11.4
					c0,0-0.1,0-0.1,0l-1-0.3c-0.3-0.1-0.4-0.3-0.4-0.6c0.1-0.3,0.3-0.4,0.6-0.4l1,0.3c0.3,0.1,0.4,0.3,0.4,0.6
					C149.5,11.2,149.3,11.4,149.1,11.4z M74.8,10.6c-0.2,0-0.4-0.1-0.5-0.4c-0.1-0.3,0.1-0.5,0.4-0.6l1-0.3c0.3-0.1,0.5,0.1,0.6,0.4
					c0.1,0.3-0.1,0.5-0.4,0.6l-1,0.3C74.9,10.6,74.9,10.6,74.8,10.6z M145.2,10.3c0,0-0.1,0-0.1,0l-1-0.3c-0.3-0.1-0.4-0.3-0.4-0.6
					c0.1-0.3,0.3-0.4,0.6-0.4l1,0.3c0.3,0.1,0.4,0.3,0.4,0.6C145.7,10.2,145.5,10.3,145.2,10.3z M78.7,9.6c-0.2,0-0.4-0.1-0.5-0.4
					c-0.1-0.3,0.1-0.5,0.4-0.6l1-0.3c0.3-0.1,0.5,0.1,0.6,0.4c0.1,0.3-0.1,0.5-0.4,0.6l-1,0.3C78.8,9.5,78.7,9.6,78.7,9.6z
					 M141.4,9.3c0,0-0.1,0-0.1,0l-1-0.3c-0.3-0.1-0.4-0.3-0.4-0.6c0.1-0.3,0.3-0.4,0.6-0.4l1,0.3c0.3,0.1,0.4,0.3,0.4,0.6
					C141.8,9.1,141.6,9.3,141.4,9.3z M82.5,8.5c-0.2,0-0.4-0.1-0.5-0.4c-0.1-0.3,0.1-0.5,0.4-0.6l1-0.3c0.3-0.1,0.5,0.1,0.6,0.4
					c0.1,0.3-0.1,0.5-0.4,0.6l-1,0.3C82.6,8.5,82.6,8.5,82.5,8.5z M137.5,8.3c0,0-0.1,0-0.1,0l-1-0.3c-0.3-0.1-0.4-0.3-0.4-0.6
					c0.1-0.3,0.4-0.4,0.6-0.4l1,0.3c0.3,0.1,0.4,0.3,0.4,0.6C138,8.1,137.8,8.3,137.5,8.3z M86.4,7.5c-0.2,0-0.4-0.1-0.5-0.4
					c-0.1-0.3,0.1-0.5,0.4-0.6l1-0.3c0.3-0.1,0.5,0.1,0.6,0.4s-0.1,0.5-0.4,0.6l-1,0.3C86.5,7.5,86.4,7.5,86.4,7.5z M133.7,7.2
					c0,0-0.1,0-0.1,0l-1-0.3c-0.3-0.1-0.4-0.3-0.4-0.6c0.1-0.3,0.3-0.4,0.6-0.4l1,0.3c0.3,0.1,0.4,0.3,0.4,0.6
					C134.1,7.1,133.9,7.2,133.7,7.2z M90.3,6.4c-0.2,0-0.4-0.1-0.5-0.4c-0.1-0.3,0.1-0.5,0.4-0.6l1-0.3c0.3-0.1,0.5,0.1,0.6,0.4
					c0.1,0.3-0.1,0.5-0.4,0.6l-1,0.3C90.3,6.4,90.3,6.4,90.3,6.4z M129.8,6.2c0,0-0.1,0-0.1,0l-1-0.3c-0.3-0.1-0.4-0.3-0.4-0.6
					c0.1-0.3,0.3-0.4,0.6-0.4l1,0.3c0.3,0.1,0.4,0.3,0.4,0.6C130.2,6,130,6.2,129.8,6.2z M94.1,5.4c-0.2,0-0.4-0.1-0.5-0.4
					c-0.1-0.3,0.1-0.5,0.4-0.6l1-0.3c0.3-0.1,0.5,0.1,0.6,0.4c0.1,0.3-0.1,0.5-0.4,0.6l-1,0.3C94.2,5.4,94.2,5.4,94.1,5.4z M126,5.2
					c0,0-0.1,0-0.1,0l-1-0.3c-0.3-0.1-0.4-0.3-0.4-0.6c0.1-0.3,0.3-0.4,0.6-0.4l1,0.3c0.3,0.1,0.4,0.3,0.4,0.6
					C126.4,5,126.2,5.2,126,5.2z M98,4.4c-0.2,0-0.4-0.1-0.5-0.4c-0.1-0.3,0.1-0.5,0.4-0.6l1-0.3c0.3-0.1,0.5,0.1,0.6,0.4
					c0.1,0.3-0.1,0.5-0.4,0.6l-1,0.3C98.1,4.4,98,4.4,98,4.4z M122.1,4.1c0,0-0.1,0-0.1,0l-1-0.3c-0.3-0.1-0.4-0.3-0.4-0.6
					c0.1-0.3,0.3-0.4,0.6-0.4l1,0.3c0.3,0.1,0.4,0.3,0.4,0.6C122.5,4,122.3,4.1,122.1,4.1z M101.8,3.3c-0.2,0-0.4-0.1-0.5-0.4
					c-0.1-0.3,0.1-0.5,0.4-0.6l1-0.3c0.3-0.1,0.5,0.1,0.6,0.4c0.1,0.3-0.1,0.5-0.4,0.6l-1,0.3C101.9,3.3,101.9,3.3,101.8,3.3z
					 M118.2,3.1c0,0-0.1,0-0.1,0l-1-0.3c-0.3-0.1-0.4-0.3-0.4-0.6c0.1-0.3,0.4-0.4,0.6-0.4l1,0.3c0.3,0.1,0.4,0.3,0.4,0.6
					C118.7,2.9,118.5,3.1,118.2,3.1z M105.7,2.3c-0.2,0-0.4-0.1-0.5-0.4c-0.1-0.3,0.1-0.5,0.4-0.6l1-0.3c0.3-0.1,0.5,0.1,0.6,0.4
					c0.1,0.3-0.1,0.5-0.4,0.6l-1,0.3C105.8,2.3,105.7,2.3,105.7,2.3z M114.4,2.1c0,0-0.1,0-0.1,0l-1-0.3c-0.3-0.1-0.4-0.3-0.4-0.6
					c0.1-0.3,0.4-0.4,0.6-0.4l1,0.3c0.3,0.1,0.4,0.3,0.4,0.6C114.8,1.9,114.6,2.1,114.4,2.1z M109.5,1.3c-0.2,0-0.4-0.1-0.5-0.4
					c-0.1-0.3,0.1-0.5,0.4-0.6l1-0.3c0.3-0.1,0.5,0.1,0.6,0.4c0.1,0.3-0.1,0.5-0.4,0.6l-1,0.3C109.6,1.3,109.6,1.3,109.5,1.3z"/>
			</g>
		</g>
	</g>
</g>
<g id="Layer_2" class="st1">
	<polygon class="st2" points="328.8,21.5 373.3,33.4 405.9,66 417.8,110.5 405.9,155 373.3,187.6 328.8,199.5 284.3,187.6 
		251.8,155 239.8,110.5 251.8,66 284.3,33.4 	"/>
</g>
<g id="Layer_6" class="st1">
	<polygon class="st2" points="201,110.5 189,66 156.5,33.4 112,21.5 111.5,21.6 111.5,110.2 156,187.7 156.5,187.6 189,155 	"/>
</g>
<g id="Layer_5" class="st1">
	<polygon class="st2" points="155.8,187.6 111.5,110.2 29.1,135.3 34.4,155 67,187.6 111.5,199.5 	"/>
</g>
<g id="Layer_4" class="st1">
	<polygon class="st2" points="22.9,111.9 29.1,135.3 111.5,110.2 39.6,60.9 34.4,66 23.5,107 	"/>
</g>
<g id="Layer_3" class="st1">
	<polygon class="st2" points="39.5,60.9 111.5,110.2 111.5,21.5 67,33.4 	"/>
</g>
</svg>
