<?xml version="1.0" encoding="utf-8"?>
<!-- Generator: Adobe Illustrator 19.2.1, SVG Export Plug-In . SVG Version: 6.00 Build 0)  -->
<svg version="1.1" xmlns="http://www.w3.org/2000/svg" xmlns:xlink="http://www.w3.org/1999/xlink" x="0px" y="0px" width="220.7px"
	 height="220.7px" viewBox="0 0 220.7 220.7" style="enable-background:new 0 0 220.7 220.7;" xml:space="preserve">
<style type="text/css">
	.st0{opacity:0.5;}
	.st1{display:none;}
	.st2{display:inline;}
	.st3{fill:#EF0957;}
</style>
<g id="Layer_2_1_">
	<g>
		<g class="st0">
			<g>
				<rect x="110.7" y="1.5" width="1" height="0.5"/>
			</g>
			<g>
				<path d="M48.8,194.4l-0.8-0.6l0.6-0.8l0.8,0.6L48.8,194.4z M51.3,191.1l-0.8-0.6l0.6-0.8l0.8,0.6L51.3,191.1z M53.7,187.9
					l-0.8-0.6l0.6-0.8l0.8,0.6L53.7,187.9z M56.1,184.7l-0.8-0.6l0.6-0.8l0.8,0.6L56.1,184.7z M58.5,181.5l-0.8-0.6l0.6-0.8l0.8,0.6
					L58.5,181.5z M60.9,178.3l-0.8-0.6l0.6-0.8l0.8,0.6L60.9,178.3z M63.3,175.1l-0.8-0.6l0.6-0.8l0.8,0.6L63.3,175.1z M65.7,171.9
					l-0.8-0.6l0.6-0.8l0.8,0.6L65.7,171.9z M68.2,168.6l-0.8-0.6l0.6-0.8l0.8,0.6L68.2,168.6z M70.6,165.4l-0.8-0.6l0.6-0.8l0.8,0.6
					L70.6,165.4z M73,162.2l-0.8-0.6l0.6-0.8l0.8,0.6L73,162.2z M75.4,159l-0.8-0.6l0.6-0.8l0.8,0.6L75.4,159z M77.8,155.8l-0.8-0.6
					l0.6-0.8l0.8,0.6L77.8,155.8z M80.2,152.6l-0.8-0.6l0.6-0.8l0.8,0.6L80.2,152.6z M82.6,149.4l-0.8-0.6l0.6-0.8l0.8,0.6
					L82.6,149.4z M85.1,146.2l-0.8-0.6l0.6-0.8l0.8,0.6L85.1,146.2z M87.5,142.9l-0.8-0.6l0.6-0.8l0.8,0.6L87.5,142.9z M89.9,139.7
					l-0.8-0.6l0.6-0.8l0.8,0.6L89.9,139.7z M92.3,136.5l-0.8-0.6l0.6-0.8l0.8,0.6L92.3,136.5z M94.7,133.3l-0.8-0.6l0.6-0.8l0.8,0.6
					L94.7,133.3z M97.1,130.1l-0.8-0.6l0.6-0.8l0.8,0.6L97.1,130.1z M99.5,126.9l-0.8-0.6l0.6-0.8l0.8,0.6L99.5,126.9z M102,123.7
					l-0.8-0.6l0.6-0.8l0.8,0.6L102,123.7z M104.4,120.4l-0.8-0.6l0.6-0.8l0.8,0.6L104.4,120.4z M106.8,117.2l-0.8-0.6l0.6-0.8
					l0.8,0.6L106.8,117.2z M109.2,114l-0.8-0.6l0.6-0.8l0.8,0.6L109.2,114z M111.6,110.8l-0.4-0.3h-0.5v-1h1v1.1L111.6,110.8z
					 M111.7,106.5h-1v-1h1V106.5z M111.7,102.5h-1v-1h1V102.5z M111.7,98.4h-1v-1h1V98.4z M111.7,94.4h-1v-1h1V94.4z M111.7,90.4h-1
					v-1h1V90.4z M111.7,86.4h-1v-1h1V86.4z M111.7,82.4h-1v-1h1V82.4z M111.7,78.4h-1v-1h1V78.4z M111.7,74.3h-1v-1h1V74.3z
					 M111.7,70.3h-1v-1h1V70.3z M111.7,66.3h-1v-1h1V66.3z M111.7,62.3h-1v-1h1V62.3z M111.7,58.3h-1v-1h1V58.3z M111.7,54.2h-1v-1
					h1V54.2z M111.7,50.2h-1v-1h1V50.2z M111.7,46.2h-1v-1h1V46.2z M111.7,42.2h-1v-1h1V42.2z M111.7,38.2h-1v-1h1V38.2z
					 M111.7,34.1h-1v-1h1V34.1z M111.7,30.1h-1v-1h1V30.1z M111.7,26.1h-1v-1h1V26.1z M111.7,22.1h-1v-1h1V22.1z M111.7,18.1h-1v-1
					h1V18.1z M111.7,14h-1v-1h1V14z M111.7,10h-1V9h1V10z M111.7,6h-1V5h1V6z"/>
			</g>
			<g>
				<rect x="46.2" y="196.2" transform="matrix(0.5994 -0.8005 0.8005 0.5994 -138.8021 116.0025)" width="0.5" height="1"/>
			</g>
		</g>
		<g class="st0">
			<g>
				<path d="M109.1,220.7l-1-0.3l0.3-1l1,0.3L109.1,220.7z M112.3,220.5l-0.3-1l1-0.3l0.3,1L112.3,220.5z M105.3,219.7l-1-0.3l0.3-1
					l1,0.3L105.3,219.7z M116.1,219.4l-0.3-1l1-0.3l0.3,1L116.1,219.4z M101.4,218.6l-1-0.3l0.3-1l1,0.3L101.4,218.6z M120,218.4
					l-0.3-1l1-0.3l0.3,1L120,218.4z M97.5,217.6l-1-0.3l0.3-1l1,0.3L97.5,217.6z M123.9,217.4l-0.3-1l1-0.3l0.3,1L123.9,217.4z
					 M93.7,216.6l-1-0.3l0.3-1l1,0.3L93.7,216.6z M127.7,216.3l-0.3-1l1-0.3l0.3,1L127.7,216.3z M89.8,215.5l-1-0.3l0.3-1l1,0.3
					L89.8,215.5z M131.6,215.3l-0.3-1l1-0.3l0.3,1L131.6,215.3z M86,214.5l-1-0.3l0.3-1l1,0.3L86,214.5z M135.4,214.2l-0.3-1l1-0.3
					l0.3,1L135.4,214.2z M82.1,213.5l-1-0.3l0.3-1l1,0.3L82.1,213.5z M139.3,213.2l-0.3-1l1-0.3l0.3,1L139.3,213.2z M78.2,212.4
					l-1-0.3l0.3-1l1,0.3L78.2,212.4z M143.2,212.2l-0.3-1l1-0.3l0.3,1L143.2,212.2z M74.4,211.4l-1-0.3l0.3-1l1,0.3L74.4,211.4z
					 M147,211.1l-0.3-1l1-0.3l0.3,1L147,211.1z M70.5,210.4l-1-0.3l0.3-1l1,0.3L70.5,210.4z M150.9,210.1l-0.3-1l1-0.3l0.3,1
					L150.9,210.1z M66.7,209.3l-1-0.3l0.3-1l1,0.3L66.7,209.3z M154.7,209.1l-0.3-1l1-0.3l0.3,1L154.7,209.1z M62.8,208.3l-1-0.3
					l0.3-1l1,0.3L62.8,208.3z M158.6,208l-0.3-1l1-0.3l0.3,1L158.6,208z M59,207.3l-1-0.3l0.3-1l1,0.3L59,207.3z M162.5,207l-0.3-1
					l1-0.3l0.3,1L162.5,207z M54.9,206.1l-0.7-0.7l0.7-0.7l0.7,0.7L54.9,206.1z M166.3,205.4l-0.7-0.7l0.7-0.7l0.7,0.7L166.3,205.4z
					 M52,203.3l-0.7-0.7l0.7-0.7l0.7,0.7L52,203.3z M169.1,202.6l-0.7-0.7l0.7-0.7l0.7,0.7L169.1,202.6z M49.2,200.5l-0.7-0.7
					l0.7-0.7l0.7,0.7L49.2,200.5z M171.9,199.7l-0.7-0.7l0.7-0.7l0.7,0.7L171.9,199.7z M46.4,197.6l-0.7-0.7l0.7-0.7l0.7,0.7
					L46.4,197.6z M174.8,196.9l-0.7-0.7l0.7-0.7l0.7,0.7L174.8,196.9z M43.6,194.8l-0.7-0.7l0.7-0.7l0.7,0.7L43.6,194.8z
					 M177.6,194.1l-0.7-0.7l0.7-0.7l0.7,0.7L177.6,194.1z M40.7,192l-0.7-0.7l0.7-0.7l0.7,0.7L40.7,192z M180.4,191.3l-0.7-0.7
					l0.7-0.7l0.7,0.7L180.4,191.3z M37.9,189.2l-0.7-0.7l0.7-0.7l0.7,0.7L37.9,189.2z M183.2,188.4l-0.7-0.7l0.7-0.7l0.7,0.7
					L183.2,188.4z M35.1,186.3l-0.7-0.7l0.7-0.7l0.7,0.7L35.1,186.3z M186.1,185.6l-0.7-0.7l0.7-0.7l0.7,0.7L186.1,185.6z
					 M32.3,183.5l-0.7-0.7l0.7-0.7l0.7,0.7L32.3,183.5z M188.9,182.8l-0.7-0.7l0.7-0.7l0.7,0.7L188.9,182.8z M29.4,180.7l-0.7-0.7
					l0.7-0.7l0.7,0.7L29.4,180.7z M191.7,180l-0.7-0.7l0.7-0.7l0.7,0.7L191.7,180z M26.6,177.8l-0.7-0.7l0.7-0.7l0.7,0.7L26.6,177.8
					z M194.5,177.1l-0.7-0.7l0.7-0.7l0.7,0.7L194.5,177.1z M23.8,175l-0.7-0.7l0.7-0.7l0.7,0.7L23.8,175z M197.4,174.3l-0.7-0.7
					l0.7-0.7l0.7,0.7L197.4,174.3z M21,172.2l-0.7-0.7l0.7-0.7l0.7,0.7L21,172.2z M200.2,171.5l-0.7-0.7l0.7-0.7l0.7,0.7
					L200.2,171.5z M18.1,169.4l-0.7-0.7l0.7-0.7l0.7,0.7L18.1,169.4z M203,168.7l-0.7-0.7l0.7-0.7l0.7,0.7L203,168.7z M15.3,166.5
					l-0.8-0.8l0-0.1l0.5-0.1l0.4-0.4l0.7,0.7L15.3,166.5z M206,165.6l-1-0.3l0.3-1l1,0.3L206,165.6z M13.7,162.7l-0.3-1l1-0.3l0.3,1
					L13.7,162.7z M207,161.8l-1-0.3l0.3-1l1,0.3L207,161.8z M12.7,158.9l-0.3-1l1-0.3l0.3,1L12.7,158.9z M208,157.9l-1-0.3l0.3-1
					l1,0.3L208,157.9z M11.6,155l-0.3-1l1-0.3l0.3,1L11.6,155z M209.1,154l-1-0.3l0.3-1l1,0.3L209.1,154z M10.6,151.1l-0.3-1l1-0.3
					l0.3,1L10.6,151.1z M210.1,150.2l-1-0.3l0.3-1l1,0.3L210.1,150.2z M9.6,147.3l-0.3-1l1-0.3l0.3,1L9.6,147.3z M211.1,146.3
					l-1-0.3l0.3-1l1,0.3L211.1,146.3z M8.5,143.4l-0.3-1l1-0.3l0.3,1L8.5,143.4z M212.2,142.5l-1-0.3l0.3-1l1,0.3L212.2,142.5z
					 M7.5,139.6l-0.3-1l1-0.3l0.3,1L7.5,139.6z M213.2,138.6l-1-0.3l0.3-1l1,0.3L213.2,138.6z M6.5,135.7l-0.3-1l1-0.3l0.3,1
					L6.5,135.7z M214.2,134.7l-1-0.3l0.3-1l1,0.3L214.2,134.7z M5.4,131.8l-0.3-1l1-0.3l0.3,1L5.4,131.8z M215.3,130.9l-1-0.3l0.3-1
					l1,0.3L215.3,130.9z M4.4,128l-0.3-1l1-0.3l0.3,1L4.4,128z M216.3,127l-1-0.3l0.3-1l1,0.3L216.3,127z M3.4,124.1l-0.3-1l1-0.3
					l0.3,1L3.4,124.1z M217.3,123.2l-1-0.3l0.3-1l1,0.3L217.3,123.2z M2.3,120.3l-0.3-1l1-0.3l0.3,1L2.3,120.3z M218.4,119.3l-1-0.3
					l0.3-1l1,0.3L218.4,119.3z M1.3,116.4l-0.3-1l1-0.3l0.3,1L1.3,116.4z M219.4,115.4l-1-0.3l0.3-1l1,0.3L219.4,115.4z M0.3,112.5
					l-0.3-1l1-0.3l0.3,1L0.3,112.5z M220.4,111.6l-1-0.3l0.3-1l1,0.3L220.4,111.6z M1.2,108.7l-1-0.3l0.3-1l1,0.3L1.2,108.7z
					 M219,107.7l-0.3-1l1-0.3l0.3,1L219,107.7z M2.3,104.8l-1-0.3l0.3-1l1,0.3L2.3,104.8z M217.9,103.9l-0.3-1l1-0.3l0.3,1
					L217.9,103.9z M3.3,101l-1-0.3l0.3-1l1,0.3L3.3,101z M216.9,100l-0.3-1l1-0.3l0.3,1L216.9,100z M4.3,97.1l-1-0.3l0.3-1l1,0.3
					L4.3,97.1z M215.9,96.1l-0.3-1l1-0.3l0.3,1L215.9,96.1z M5.4,93.2l-1-0.3l0.3-1l1,0.3L5.4,93.2z M214.8,92.3l-0.3-1l1-0.3l0.3,1
					L214.8,92.3z M6.4,89.4l-1-0.3l0.3-1l1,0.3L6.4,89.4z M213.8,88.4l-0.3-1l1-0.3l0.3,1L213.8,88.4z M7.4,85.5l-1-0.3l0.3-1l1,0.3
					L7.4,85.5z M212.8,84.6l-0.3-1l1-0.3l0.3,1L212.8,84.6z M8.5,81.7l-1-0.3l0.3-1l1,0.3L8.5,81.7z M211.7,80.7l-0.3-1l1-0.3l0.3,1
					L211.7,80.7z M9.5,77.8l-1-0.3l0.3-1l1,0.3L9.5,77.8z M210.7,76.8l-0.3-1l1-0.3l0.3,1L210.7,76.8z M10.5,73.9l-1-0.3l0.3-1
					l1,0.3L10.5,73.9z M209.6,73l-0.3-1l1-0.3l0.3,1L209.6,73z M11.6,70.1l-1-0.3l0.3-1l1,0.3L11.6,70.1z M208.6,69.1l-0.3-1l1-0.3
					l0.3,1L208.6,69.1z M12.6,66.2l-1-0.3l0.3-1l1,0.3L12.6,66.2z M207.6,65.3l-0.3-1l1-0.3l0.3,1L207.6,65.3z M13.6,62.4l-1-0.3
					l0.3-1l1,0.3L13.6,62.4z M206.5,61.4l-0.3-1l1-0.3l0.3,1L206.5,61.4z M14.7,58.5l-1-0.3l0.3-1l1,0.3L14.7,58.5z M205.5,57.5
					l-0.3-1l1-0.3l0.3,1L205.5,57.5z M16,55.1l-0.7-0.7l0.7-0.7l0.7,0.7L16,55.1z M203.7,54.4l-0.7-0.7l0.7-0.7l0.7,0.7L203.7,54.4z
					 M18.8,52.3l-0.7-0.7l0.7-0.7l0.7,0.7L18.8,52.3z M200.9,51.6l-0.7-0.7l0.7-0.7l0.7,0.7L200.9,51.6z M21.7,49.5L21,48.8l0.7-0.7
					l0.7,0.7L21.7,49.5z M198.1,48.8l-0.7-0.7l0.7-0.7l0.7,0.7L198.1,48.8z M24.5,46.7l-0.7-0.7l0.7-0.7l0.7,0.7L24.5,46.7z
					 M195.2,45.9l-0.7-0.7l0.7-0.7l0.7,0.7L195.2,45.9z M27.3,43.8l-0.7-0.7l0.7-0.7l0.7,0.7L27.3,43.8z M192.4,43.1l-0.7-0.7
					l0.7-0.7l0.7,0.7L192.4,43.1z M30.1,41l-0.7-0.7l0.7-0.7l0.7,0.7L30.1,41z M189.6,40.3l-0.7-0.7l0.7-0.7l0.7,0.7L189.6,40.3z
					 M33,38.2l-0.7-0.7l0.7-0.7l0.7,0.7L33,38.2z M186.8,37.5l-0.7-0.7l0.7-0.7l0.7,0.7L186.8,37.5z M35.8,35.4l-0.7-0.7l0.7-0.7
					l0.7,0.7L35.8,35.4z M183.9,34.6l-0.7-0.7l0.7-0.7l0.7,0.7L183.9,34.6z M38.6,32.5l-0.7-0.7l0.7-0.7l0.7,0.7L38.6,32.5z
					 M181.1,31.8l-0.7-0.7l0.7-0.7l0.7,0.7L181.1,31.8z M41.4,29.7L40.7,29l0.7-0.7l0.7,0.7L41.4,29.7z M178.3,29l-0.7-0.7l0.7-0.7
					l0.7,0.7L178.3,29z M44.3,26.9l-0.7-0.7l0.7-0.7l0.7,0.7L44.3,26.9z M175.5,26.2l-0.7-0.7l0.7-0.7l0.7,0.7L175.5,26.2z
					 M47.1,24.1l-0.7-0.7l0.7-0.7l0.7,0.7L47.1,24.1z M172.6,23.3l-0.7-0.7l0.7-0.7l0.7,0.7L172.6,23.3z M49.9,21.2l-0.7-0.7
					l0.7-0.7l0.7,0.7L49.9,21.2z M169.8,20.5l-0.7-0.7l0.7-0.7l0.7,0.7L169.8,20.5z M52.7,18.4L52,17.7l0.7-0.7l0.7,0.7L52.7,18.4z
					 M167,17.7l-0.7-0.7l0.7-0.7l0.7,0.7L167,17.7z M55.4,15.7l-0.1-0.5l-0.4-0.4l0.1-0.1l1.1-0.3l0.3,1L55.4,15.7z M164.1,15.4
					l-1-0.3l0.3-1l1,0.3L164.1,15.4z M59.2,14.7l-0.3-1l1-0.3l0.3,1L59.2,14.7z M160.3,14.4l-1-0.3l0.3-1l1,0.3L160.3,14.4z
					 M63.1,13.6l-0.3-1l1-0.3l0.3,1L63.1,13.6z M156.4,13.4l-1-0.3l0.3-1l1,0.3L156.4,13.4z M66.9,12.6l-0.3-1l1-0.3l0.3,1
					L66.9,12.6z M152.5,12.3l-1-0.3l0.3-1l1,0.3L152.5,12.3z M70.8,11.6l-0.3-1l1-0.3l0.3,1L70.8,11.6z M148.7,11.3l-1-0.3l0.3-1
					l1,0.3L148.7,11.3z M74.6,10.5l-0.3-1l1-0.3l0.3,1L74.6,10.5z M144.8,10.3l-1-0.3l0.3-1l1,0.3L144.8,10.3z M78.5,9.5l-0.3-1
					l1-0.3l0.3,1L78.5,9.5z M141,9.2L140,9l0.3-1l1,0.3L141,9.2z M82.4,8.5l-0.3-1l1-0.3l0.3,1L82.4,8.5z M137.1,8.2l-1-0.3l0.3-1
					l1,0.3L137.1,8.2z M86.2,7.4l-0.3-1l1-0.3l0.3,1L86.2,7.4z M133.2,7.2l-1-0.3l0.3-1l1,0.3L133.2,7.2z M90.1,6.4l-0.3-1l1-0.3
					l0.3,1L90.1,6.4z M129.4,6.1l-1-0.3l0.3-1l1,0.3L129.4,6.1z M93.9,5.4l-0.3-1l1-0.3l0.3,1L93.9,5.4z M125.5,5.1l-1-0.3l0.3-1
					l1,0.3L125.5,5.1z M97.8,4.3l-0.3-1l1-0.3l0.3,1L97.8,4.3z M121.7,4.1l-1-0.3l0.3-1l1,0.3L121.7,4.1z M101.7,3.3l-0.3-1l1-0.3
					l0.3,1L101.7,3.3z M117.8,3l-1-0.3l0.3-1l1,0.3L117.8,3z M105.5,2.3l-0.3-1l1-0.3l0.3,1L105.5,2.3z M113.9,2l-1-0.3l0.3-1l1,0.3
					L113.9,2z M109.4,1.2l-0.3-1l1-0.3l0.3,1L109.4,1.2z"/>
			</g>
		</g>
	</g>
</g>
<g id="Layer_1" class="st1">
	<g id="Layer_1_1_" class="st2">
	</g>
	<g id="Layer_2" class="st2">
		<g>
			<polygon class="st3" points="187.8,66 155.2,33.4 110.7,21.5 110.2,21.6 110.2,110.9 59.5,180.8 66.2,187.6 110.7,199.5 
				155.2,187.6 187.8,155 199.7,110.5 			"/>
		</g>
		<polygon class="st3" points="110.2,110.9 110.2,21.6 66.2,33.4 33.6,66 21.7,110.5 33.6,155 59.5,180.8 		"/>
	</g>
</g>
</svg>
