<?xml version="1.0" encoding="utf-8"?>
<svg version="1.1" xmlns="http://www.w3.org/2000/svg" x="0px" y="0px" width="68px"
	 height="83px" viewBox="0 0 68 83" style="enable-background:new 0 0 68 83;" xml:space="preserve">
<style type="text/css">
	.st1{fill:#EF0957;}
</style>
<g>
	<g>
		<g>
			<path d="M17,43h1v-4h-1V43z M28,39v4h1v-4H28z"/>
		</g>
	</g>
	<g>
		<g>
			<path d="M39,43h1v-4h-1V43z M50,39v4h1v-4H50z"/>
		</g>
	</g>
</g>
<g >
	<path d="M54,4h-1H4v75h60V15v-1L54,4z M54,5.4l8.6,8.6H54V5.4z M63,78H5V5h48v10h10V78z"/>
</g>
<g>
	<polygon class="st1" points="5,78 5,74 4,74 4,78 0,78 0,79 4,79 4,83 5,83 5,79 9,79 9,78 "/>
	<polygon class="st1" points="64,78 64,74 63,74 63,78 59,78 59,79 63,79 63,83 64,83 64,79 68,79 68,78 "/>
	<polygon class="st1" points="5,4 5,0 4,0 4,4 0,4 0,5 4,5 4,9 5,9 5,5 9,5 9,4 "/>
</g>
</svg>
