<svg xmlns="http://www.w3.org/2000/svg" xmlns:xlink="http://www.w3.org/1999/xlink" viewBox="0 0 609.77 697.02"><defs><style>.cls-1,.cls-7{fill:#88e9c2;}.cls-1{clip-rule:evenodd;}.cls-2{fill:#6fbdbf;}.cls-3{fill:#fff;}.cls-4{fill:#3627a2;}.cls-10,.cls-16,.cls-17,.cls-18,.cls-5,.cls-9{fill:none;stroke-linecap:round;stroke-linejoin:round;}.cls-17,.cls-5{stroke:#d675ad;}.cls-5{stroke-width:33.1px;}.cls-6{fill:#406b9c;}.cls-10,.cls-13,.cls-14,.cls-16,.cls-18,.cls-19,.cls-7{fill-rule:evenodd;}.cls-8{clip-path:url(#clip-path);}.cls-9{stroke:#6fbdbf;stroke-width:4.02px;}.cls-10,.cls-16{stroke:#efecf5;}.cls-10{stroke-width:4.37px;}.cls-11{fill:url(#Безымянный_градиент_35);}.cls-12{fill:#d675ad;}.cls-13{fill:url(#Безымянный_градиент_35-2);}.cls-14{fill:url(#Безымянный_градиент_35-3);}.cls-15{fill:#1f1c1e;}.cls-16{stroke-width:5.47px;}.cls-17{stroke-width:8.48px;}.cls-18{stroke:#b962b8;stroke-width:1.5px;}.cls-19{fill:#2a0d50;}</style><clipPath id="clip-path"><path class="cls-1" d="M197.82,361.08H411.06a5.64,5.64,0,0,1,5.64,5.64,112.22,112.22,0,0,0-58.45-98.54v-20H251.68v19.48a112.22,112.22,0,0,0-59.5,99.09A5.64,5.64,0,0,1,197.82,361.08Z"/></clipPath><linearGradient id="Безымянный_градиент_35" x1="305" y1="-50.62" x2="305" y2="144.63" gradientUnits="userSpaceOnUse"><stop offset="0" stop-color="#df6531"/><stop offset="1" stop-color="#db332d"/></linearGradient><linearGradient id="Безымянный_градиент_35-2" x1="246.39" y1="-22.37" x2="246.39" y2="127.2" xlink:href="#Безымянный_градиент_35"/><linearGradient id="Безымянный_градиент_35-3" x1="363.66" y1="-22.37" x2="363.66" y2="127.2" xlink:href="#Безымянный_градиент_35"/></defs><title>Asset 1</title><g id="Layer_2" data-name="Layer 2"><g id="arm1"><path class="cls-2" d="M274.41,157.19H68.82v33.1H274.41a16.55,16.55,0,1,0,0-33.1Z"/><circle class="cls-3" cx="82.26" cy="162.44" r="5.71"/><circle class="cls-3" cx="82.26" cy="173.74" r="5.71"/><circle class="cls-3" cx="82.26" cy="185.04" r="5.71"/><rect class="cls-3" x="68.56" y="156.73" width="13.7" height="34.02"/></g><g id="arm2"><path class="cls-2" d="M335.36,157.19H540.95v33.1H335.36a16.55,16.55,0,1,1,0-33.1Z"/><circle class="cls-3" cx="527.52" cy="162.44" r="5.71"/><circle class="cls-3" cx="527.52" cy="173.74" r="5.71"/><circle class="cls-3" cx="527.52" cy="185.04" r="5.71"/><rect class="cls-3" x="527.52" y="156.73" width="13.7" height="34.02" transform="translate(1068.73 347.48) rotate(-180)"/></g><g id="body"><rect class="cls-4" x="192.18" y="361.08" width="224.51" height="11.27" rx="5.64" ry="5.64"/></g><g id="l_leg"><line class="cls-5" x1="282.56" y1="286.71" x2="282.56" y2="610.93"/><rect class="cls-3" x="265.53" y="521.41" width="34.19" height="126.92"/><circle class="cls-3" cx="271.13" cy="521.41" r="5.72"/><circle class="cls-3" cx="282.56" cy="521.41" r="5.72"/><circle class="cls-3" cx="294" cy="521.41" r="5.72"/></g><g id="r_leg"><line class="cls-5" x1="328.32" y1="286.71" x2="328.32" y2="610.93"/><rect class="cls-3" x="311.17" y="521.41" width="34.19" height="126.92" transform="translate(656.52 1169.75) rotate(-180)"/><circle class="cls-3" cx="339.75" cy="521.41" r="5.72"/><circle class="cls-3" cx="328.32" cy="521.41" r="5.72"/><circle class="cls-3" cx="316.88" cy="521.41" r="5.72"/></g><g id="body-2" data-name="body"><circle class="cls-2" cx="305.03" cy="207.27" r="59.85"/><circle class="cls-6" cx="305.03" cy="216.37" r="3.48"/><circle class="cls-6" cx="305.03" cy="192.49" r="3.48"/><path class="cls-7" d="M197.82,361.08H411.06a5.64,5.64,0,0,1,5.64,5.64,112.22,112.22,0,0,0-58.45-98.54v-20H251.68v19.48a112.22,112.22,0,0,0-59.5,99.09A5.64,5.64,0,0,1,197.82,361.08Z"/><g class="cls-8"><line class="cls-9" x1="225.64" y1="212.9" x2="225.64" y2="402.71"/><line class="cls-9" x1="265.37" y1="212.9" x2="265.37" y2="402.71"/><line class="cls-9" x1="305.11" y1="212.9" x2="305.11" y2="402.71"/><line class="cls-9" x1="344.85" y1="212.9" x2="344.85" y2="402.71"/><line class="cls-9" x1="384.59" y1="212.9" x2="384.59" y2="402.71"/><line class="cls-9" x1="448.44" y1="261.37" x2="161.79" y2="261.37"/><line class="cls-9" x1="448.44" y1="301.1" x2="161.79" y2="301.1"/><line class="cls-9" x1="448.44" y1="340.84" x2="161.79" y2="340.84"/><line class="cls-9" x1="448.44" y1="380.58" x2="161.79" y2="380.58"/></g><path class="cls-10" d="M279.55,154.36c-.35,18.17,18.46,20,25.48,8.52"/><path class="cls-10" d="M330.51,154.36c.35,18.17-18.46,20-25.48,8.52"/></g><g id="head"><rect class="cls-11" x="219.23" y="77.52" width="171.54" height="60.74"/><circle class="cls-12" cx="304.85" cy="93.05" r="54.37"/><path class="cls-13" d="M281.74.09a25.13,25.13,0,0,0-22.59,21.55q-.14,1-.19,2.07a10.35,10.35,0,0,1-9.68,9.79l-.29,0a25.57,25.57,0,0,0-23.16,22.72,26,26,0,0,0-.13,2.76,12.32,12.32,0,0,1-11.08,12l-.36,0a33.75,33.75,0,0,0,7.36,67.07c16.07-1.3,28.88-30.2,28.88-30.2V81.59c23.06,0,57.11-12.81,57.11-53.17C309.15,12.72,297.41-1.25,281.74.09Z"/><path class="cls-14" d="M328.32.09a25.13,25.13,0,0,1,22.59,21.55q.14,1,.19,2.07a10.35,10.35,0,0,0,9.68,9.79l.29,0a25.57,25.57,0,0,1,23.16,22.72,26,26,0,0,1,.13,2.76,12.32,12.32,0,0,0,11.08,12l.36,0a33.75,33.75,0,0,1-7.36,67.07c-16.07-1.3-28.43-30.27-28.43-30.27l-.47-26.3c-23.06,0-57.08-12.81-57.08-53.17C300.91,12.72,312.65-1.25,328.32.09Z"/><circle class="cls-15" cx="290.51" cy="88.11" r="3.42"/><circle class="cls-15" cx="319.2" cy="88.11" r="3.42"/><path class="cls-16" d="M291,110.67a14.86,14.86,0,0,0,12.41,6.68"/><circle class="cls-12" cx="250.51" cy="91.53" r="9.94"/><circle class="cls-12" cx="359.23" cy="91.53" r="9.94"/></g><g id="hand2"><path class="cls-12" d="M552.86,157.19h23.7a6.38,6.38,0,0,1,6.38,6.38v23.51a0,0,0,0,1,0,0H552.86a0,0,0,0,1,0,0v-29.9a0,0,0,0,1,0,0Z" transform="translate(1135.8 344.28) rotate(-180)"/><rect class="cls-12" x="574.95" y="179.61" width="29.6" height="7.47" rx="3.74" ry="3.74" transform="translate(1179.5 366.7) rotate(-180)"/><rect class="cls-12" x="576.08" y="172.14" width="33.69" height="7.47" rx="3.74" ry="3.74" transform="translate(1185.86 351.75) rotate(-180)"/><rect class="cls-12" x="576.08" y="164.67" width="33.69" height="7.47" rx="3.74" ry="3.74" transform="translate(1185.86 336.8) rotate(-180)"/><rect class="cls-12" x="576.08" y="157.19" width="29.6" height="7.47" rx="3.74" ry="3.74" transform="translate(1181.76 321.86) rotate(-180)"/><rect class="cls-12" x="540.95" y="157.19" width="23.46" height="29.9" transform="translate(1105.36 344.28) rotate(-180)"/><line class="cls-17" x1="556.94" y1="160.93" x2="578.87" y2="149.44"/><path class="cls-18" d="M571.25,160.93a7.93,7.93,0,0,1-7.93,7.93"/></g><g id="hand1"><path class="cls-12" d="M26.83,157.19H56.91a0,0,0,0,1,0,0v23.51a6.38,6.38,0,0,1-6.38,6.38H26.83a0,0,0,0,1,0,0v-29.9A0,0,0,0,1,26.83,157.19Z"/><rect class="cls-12" x="5.22" y="179.61" width="29.6" height="7.47" rx="3.74" ry="3.74"/><rect class="cls-12" y="172.14" width="33.69" height="7.47" rx="3.74" ry="3.74"/><rect class="cls-12" y="164.67" width="33.69" height="7.47" rx="3.74" ry="3.74"/><rect class="cls-12" x="4.09" y="157.19" width="29.6" height="7.47" rx="3.74" ry="3.74"/><rect class="cls-12" x="45.36" y="157.19" width="23.46" height="29.9"/><line class="cls-17" x1="52.84" y1="160.93" x2="30.91" y2="149.44"/><path class="cls-18" d="M38.53,160.93a7.93,7.93,0,0,0,7.93,7.93"/></g><g id="l_foot"><path class="cls-19" d="M252.06,659.79h-15A23.31,23.31,0,0,0,213.83,683v14h38.59a23.32,23.32,0,0,0,23.2-21.81h0V697h27.94V648.33h-41v.9A10.58,10.58,0,0,1,252.06,659.79Z"/></g><g id="r_foot"><path class="cls-19" d="M358.83,659.79h15A23.31,23.31,0,0,1,397,683v14H358.46a23.32,23.32,0,0,1-23.2-21.81h0V697H307.27V648.33h41v.9A10.58,10.58,0,0,0,358.83,659.79Z"/></g></g></svg>