<svg xmlns="http://www.w3.org/2000/svg" viewBox="0 0 68.88 13.25"><defs></defs><title>Asset 2</title><g id="Layer_2" data-name="Layer 2"><g id="Layer_1-2" data-name="Layer 1"><polygon class="logo-svg" points="29.17 5.99 29.17 4.13 29.05 4.01 23.18 4.01 25.01 0.17 24.9 0 24.27 0 24.17 0.07 17.97 13.08 18.08 13.25 18.7 13.25 18.81 13.18 22.18 6.11 23.91 6.11 23.91 10.28 24.02 10.4 26.54 10.4 26.66 10.28 26.66 6.11 29.05 6.11 29.17 5.99"/><polygon class="logo-svg" points="40.38 8.24 40.38 4.13 40.27 4.01 37.74 4.01 37.63 4.13 37.63 10.28 37.74 10.4 43.91 10.4 44.02 10.28 44.02 8.36 43.91 8.24 40.38 8.24"/><polygon class="logo-svg" points="47.43 8.57 47.43 8.06 51.09 8.06 51.21 7.94 51.21 6.44 51.09 6.32 47.43 6.32 47.43 5.82 51.21 5.82 51.33 5.7 51.33 4.13 51.21 4.01 44.78 4.01 44.66 4.13 44.66 10.28 44.78 10.4 51.27 10.4 51.39 10.28 51.39 8.69 51.27 8.57 47.43 8.57"/><polygon class="logo-svg" points="57.86 4.01 57.75 4.13 57.75 6.99 54.79 4.04 54.7 4.01 52.14 4.01 52.02 4.13 52.02 10.28 52.14 10.4 54.6 10.4 54.72 10.28 54.72 7.26 57.84 10.36 57.92 10.4 60.33 10.4 60.45 10.28 60.45 4.13 60.33 4.01 57.86 4.01"/><polygon class="logo-svg" points="68.76 4.01 61.22 4.01 61.1 4.13 61.1 5.99 61.22 6.11 63.61 6.11 63.61 10.28 63.73 10.4 66.25 10.4 66.36 10.28 66.36 6.11 68.76 6.11 68.88 5.99 68.88 4.13 68.76 4.01"/><polygon class="logo-svg" points="17.82 6.11 20.22 6.11 20.34 5.99 20.34 4.13 20.22 4.01 12.67 4.01 12.55 4.13 12.55 5.99 12.67 6.11 15.07 6.11 15.07 10.28 15.19 10.4 17.7 10.4 17.82 10.28 17.82 6.11"/><polygon class="logo-svg" points="9.31 4.01 9.2 4.13 9.2 10.28 9.31 10.4 11.83 10.4 11.95 10.28 11.95 4.13 11.83 4.01 9.31 4.01"/><path class="logo-svg" d="M37,9.31,34.47,4.07,34.36,4H31.1L31,4.08,28.51,9.31v1l.12.12H30.7l.11-.07.39-.85h2.95l.39.85.11.07h2.23l.12-.12v-1ZM31.91,7.7,32.6,6h.14l.7,1.69Z"/><path class="logo-svg" d="M7.23,7a4.5,4.5,0,0,0,1.2-.73V4.91A3.79,3.79,0,0,0,6.09,4h-6L0,4.13v6.15l.12.12H6.44a4.85,4.85,0,0,0,2.12-1V7.64A3.94,3.94,0,0,0,7.23,7ZM5.49,8.39A1.32,1.32,0,0,1,5,8.57H2.76V8H5a1.29,1.29,0,0,1,.46.16Zm.05-2.17A1,1,0,0,1,5,6.35H2.76V5.77H5a1,1,0,0,1,.51.13Z"/></g></g></svg>