<svg xmlns="http://www.w3.org/2000/svg" xmlns:xlink="http://www.w3.org/1999/xlink" viewBox="0 0 515.52 551.6"><defs><style>.cls-1{fill:url(#GradientFill_4);}.cls-2{fill:#1a1138;}.cls-3{fill:#400c7f;}.cls-10,.cls-11,.cls-13,.cls-16,.cls-20,.cls-27,.cls-3,.cls-4,.cls-7,.cls-9{fill-rule:evenodd;}.cls-13,.cls-14,.cls-23,.cls-25,.cls-27,.cls-4,.cls-6,.cls-7{fill:none;stroke-linecap:round;stroke-linejoin:round;}.cls-4{stroke:#1a1138;}.cls-27,.cls-4,.cls-6,.cls-7{stroke-width:4.34px;}.cls-5{fill:url(#Безымянный_градиент_5);}.cls-14,.cls-6,.cls-7{stroke:#df6531;}.cls-11,.cls-8{fill:#8e3935;}.cls-9{fill:#3d165b;}.cls-10{fill:url(#GradientFill_4-2);}.cls-12{fill:#3f0f0f;}.cls-13{stroke:#b25546;stroke-width:2.36px;}.cls-14{stroke-width:2.89px;}.cls-15{fill:url(#Безымянный_градиент_33);}.cls-16{fill:#df6531;}.cls-17{fill:url(#Безымянный_градиент_73);}.cls-18{fill:url(#Безымянный_градиент_44);}.cls-19{fill:url(#Безымянный_градиент_44-2);}.cls-20{fill:url(#Безымянный_градиент_44-3);}.cls-21{fill:#6fbdbf;}.cls-22{fill:url(#Безымянный_градиент_33-2);}.cls-23{stroke:#8e3935;stroke-width:13.32px;}.cls-24{fill:#d0a9fb;}.cls-25{stroke:#7f2f2f;stroke-width:2.17px;}.cls-26{fill:#54358e;}.cls-27{stroke:#442672;}.cls-28{fill:#e0e0e0;}</style><linearGradient id="GradientFill_4" x1="124.03" y1="483.52" x2="515.52" y2="483.52" gradientUnits="userSpaceOnUse"><stop offset="0" stop-color="#f0ca30"/><stop offset="1" stop-color="#dd9623"/></linearGradient><linearGradient id="Безымянный_градиент_5" x1="281.2" y1="490.6" x2="281.2" y2="585.51" gradientUnits="userSpaceOnUse"><stop offset="0" stop-color="#df6531"/><stop offset="1" stop-color="#db332d"/></linearGradient><linearGradient id="GradientFill_4-2" x1="233.02" y1="57.89" x2="401.53" y2="57.89" xlink:href="#GradientFill_4"/><linearGradient id="Безымянный_градиент_33" x1="288" y1="36.85" x2="310.42" y2="36.85" gradientUnits="userSpaceOnUse"><stop offset="0" stop-color="#42067b"/><stop offset="0.59" stop-color="#56067b"/><stop offset="1" stop-color="#5e067b"/></linearGradient><linearGradient id="Безымянный_градиент_73" x1="103.78" y1="276.38" x2="319.31" y2="276.38" gradientUnits="userSpaceOnUse"><stop offset="0" stop-color="#d0a9fb"/><stop offset="0.15" stop-color="#caa7f8"/><stop offset="0.33" stop-color="#baa0f1"/><stop offset="0.54" stop-color="#a096e5"/><stop offset="0.77" stop-color="#7b87d4"/><stop offset="1" stop-color="#4e75bf"/></linearGradient><linearGradient id="Безымянный_градиент_44" x1="79.59" y1="148.53" x2="309.9" y2="148.53" gradientUnits="userSpaceOnUse"><stop offset="0" stop-color="#6fbdbf"/><stop offset="1" stop-color="#4e75bf"/></linearGradient><linearGradient id="Безымянный_градиент_44-2" x1="76.64" y1="148.79" x2="92.82" y2="148.79" xlink:href="#Безымянный_градиент_44"/><linearGradient id="Безымянный_градиент_44-3" x1="32.66" y1="148.49" x2="84.73" y2="148.49" xlink:href="#Безымянный_градиент_44"/><linearGradient id="Безымянный_градиент_33-2" x1="55.8" y1="148.53" x2="-6.22" y2="148.53" xlink:href="#Безымянный_градиент_33"/></defs><title>Asset 2</title><g id="Layer_2" data-name="Layer 2"><g id="legs"><rect class="cls-1" x="124.03" y="415.44" width="391.49" height="136.16" rx="68.08" ry="68.08"/><rect class="cls-2" x="271.56" y="483.52" width="19.29" height="68.08" rx="9.64" ry="9.64"/><path class="cls-3" d="M248.89,501.2h0A32.22,32.22,0,0,0,216.67,469H199.72V551.6h91.12V501.2Z"/><path class="cls-4" d="M248.89,501.2v1.45a33.26,33.26,0,0,1-33.26,33.26h0"/><rect class="cls-5" x="271.56" y="501.2" width="19.29" height="50.4"/><line class="cls-6" x1="293.88" y1="481.28" x2="449.58" y2="481.28"/><path class="cls-7" d="M455.39,473.12a8.15,8.15,0,0,1,0,16.31"/></g><g id="head"><rect class="cls-8" x="272.44" y="49.81" width="89.68" height="149.15" rx="44.84" ry="44.84"/><path class="cls-9" d="M362.11,116.67v-22a44.61,44.61,0,0,0-5.93-22.27h-1.37a22.15,22.15,0,0,0,0,44.29Z"/><path class="cls-10" d="M364.89,21.24H269.66a36.64,36.64,0,1,0,0,73.28h2.78A44.75,44.75,0,0,1,288.87,60l73.24,34.57h2.78a36.64,36.64,0,1,0,0-73.28Z"/><path class="cls-11" d="M276.65,75.67l-26.39,52.13h25.07C276.41,127.79,276.65,75.67,276.65,75.67Z"/><circle class="cls-12" cx="281.62" cy="99.21" r="4.01"/><circle class="cls-12" cx="305.49" cy="99.21" r="4.01"/><circle class="cls-12" cx="288.53" cy="148.53" r="6.87"/><circle class="cls-8" cx="362.11" cy="114.29" r="11.07"/><path class="cls-13" d="M325.77,133a17,17,0,0,0,0,34"/><line class="cls-14" x1="362.11" y1="94.53" x2="255.05" y2="44.87"/><circle class="cls-15" cx="299.21" cy="36.85" r="11.21"/><line class="cls-14" x1="299.21" y1="65.35" x2="347.89" y2="44.87"/><path class="cls-16" d="M304.24,5a5,5,0,0,0-10.06,0c0,2.78,5,13,5,13S304.24,7.81,304.24,5Z"/><path class="cls-16" d="M314.72,13.54a5,5,0,1,0-7.12-7.12c-2,2-5.65,12.76-5.65,12.76S312.76,15.51,314.72,13.54Z"/><path class="cls-16" d="M290.82,6.43a5,5,0,0,0-7.12,7.12c2,2,12.76,5.65,12.76,5.65S292.78,8.39,290.82,6.43Z"/></g><g id="l_arm"><path class="cls-17" d="M316.28,225.07a29.65,29.65,0,0,0-39.67-13.58L163.08,267.11v-53h-59.3V314.66a29.65,29.65,0,0,0,42.7,26.63L302.7,264.74A29.65,29.65,0,0,0,316.28,225.07Z"/><path class="cls-18" d="M288.53,152.86H29a4.34,4.34,0,0,1,0-8.68H288.53a4.34,4.34,0,1,1,0,8.68Z"/><circle class="cls-19" cx="84.73" cy="148.79" r="8.09"/><path class="cls-20" d="M81.55,143.6,40.17,125.32a5.34,5.34,0,0,0-7.5,4.89v36.55a5.34,5.34,0,0,0,7.5,4.89l41.38-18.28a5.34,5.34,0,0,0,3.18-4.89h0A5.34,5.34,0,0,0,81.55,143.6Z"/><circle class="cls-21" cx="29.05" cy="148.53" r="29.05"/><circle class="cls-22" cx="29.05" cy="148.53" r="20.97"/></g><g id="l_hand"><polygon class="cls-11" points="162.91 214.46 162.91 177.63 115.94 177.85 115.94 214.46 162.91 214.46"/><polygon class="cls-11" points="162.58 144.11 162.96 188.19 115.98 188.41 115.61 144.58 162.58 144.11"/><line class="cls-23" x1="157.09" y1="189.41" x2="174.99" y2="154.87"/><path class="cls-13" d="M157,166.92a12.47,12.47,0,0,0-12.41,12.52"/><rect class="cls-8" x="135.16" y="138.88" width="19.84" height="11.82" rx="5.89" ry="5.89" transform="matrix(0, 1, -1, 0, 289.21, -0.96)"/><rect class="cls-8" x="123.3" y="138.88" width="19.84" height="11.82" rx="5.89" ry="5.89" transform="translate(277.4 10.9) rotate(89.74)"/><path class="cls-13" d="M151,148.79a5.89,5.89,0,0,1-5.86,5.92h0a5.89,5.89,0,0,1-5.92-5.86v-7.06"/><rect class="cls-8" x="146.79" y="138.88" width="19.84" height="11.82" rx="5.89" ry="5.89" transform="translate(300.78 -12.59) rotate(89.74)"/><path class="cls-13" d="M156.78,154.71h0a5.89,5.89,0,0,1-5.92-5.86v-7.06"/><rect class="cls-8" x="111.44" y="138.88" width="19.84" height="11.82" rx="5.89" ry="5.89" transform="translate(265.6 22.76) rotate(89.74)"/><path class="cls-13" d="M139.15,148.79a5.89,5.89,0,0,1-5.86,5.92h0a5.89,5.89,0,0,1-5.92-5.86v-7.06"/><path class="cls-13" d="M127.29,148.79a5.89,5.89,0,0,1-5.86,5.92h0"/></g><g id="r_arm"><path class="cls-8" d="M427,397.3h59.06a0,0,0,0,1,0,0v10.61a14,14,0,0,1-14,14H413.06a0,0,0,0,1,0,0V411.29A14,14,0,0,1,427,397.3Z"/><path class="cls-8" d="M413.06,421.89V411.29a14,14,0,0,1,14-14"/><path class="cls-24" d="M439.82,388.26h59.3V292.38A29.65,29.65,0,0,0,482,265.52L361.8,209.38a29.65,29.65,0,1,0-25.09,53.73l103.11,48.15Z"/><rect class="cls-8" x="413.06" y="406.83" width="13.26" height="27.12" rx="6.63" ry="6.63"/><rect class="cls-8" x="426.32" y="406.83" width="13.26" height="27.12" rx="6.63" ry="6.63"/><rect class="cls-8" x="439.58" y="406.83" width="13.26" height="27.12" rx="6.63" ry="6.63"/><rect class="cls-8" x="452.84" y="406.83" width="13.26" height="27.12" rx="6.63" ry="6.63"/><rect class="cls-8" x="439.82" y="388.26" width="46.28" height="11.75"/><line class="cls-25" x1="426.32" y1="425.24" x2="426.32" y2="411.7"/><line class="cls-25" x1="439.58" y1="425.24" x2="439.58" y2="411.7"/><line class="cls-25" x1="452.84" y1="425.24" x2="452.84" y2="411.7"/></g><g id="body"><path class="cls-24" d="M319.77,198.43h0a81.75,81.75,0,0,1,81.75,81.75V415.44a0,0,0,0,1,0,0H238a0,0,0,0,1,0,0V280.19A81.75,81.75,0,0,1,319.77,198.43Z"/><path class="cls-26" d="M238.83,365H400.71a2.23,2.23,0,0,1,2.23,2.23v48.21a0,0,0,0,1,0,0H236.6a0,0,0,0,1,0,0V367.23A2.23,2.23,0,0,1,238.83,365Z"/><path class="cls-27" d="M248.89,379.95H382.51a5.24,5.24,0,0,1,5.24,5.24v.36a5.24,5.24,0,0,1-5.24,5.24H254.13a5.24,5.24,0,0,0-5.24,5.24h0a5.24,5.24,0,0,0,5.24,5.24H387.75"/><circle class="cls-28" cx="318.32" cy="237.48" r="5.57"/><circle class="cls-28" cx="318.32" cy="281.59" r="5.57"/><circle class="cls-28" cx="318.32" cy="325.71" r="5.57"/></g></g></svg>